<svg width="329" height="242" viewBox="0 0 329 242" fill="none" xmlns="http://www.w3.org/2000/svg">
<g opacity="0.7" clip-path="url(#clip0_341_2276)">
<path d="M73.0431 66.7792L11.6782 107.774L72.1223 198.014L133.487 157.019L73.0431 66.7792Z" fill="#F5F5F5"/>
<path d="M101.777 152.751L101.077 157.055L70.5693 152.663L71.2694 148.359L101.777 152.751Z" fill="#E0E0E0"/>
<path d="M86.4138 137.397L90.7891 138.025L85.938 168.022L81.5571 167.389L86.4138 137.397Z" fill="#E0E0E0"/>
<path d="M58.34 99.2723C58.3838 99.3323 52.2364 103.522 44.6069 108.612C36.9773 113.703 30.7588 117.788 30.7151 117.723C30.6713 117.657 36.8187 113.473 44.4482 108.377C52.0778 103.281 58.2689 99.2067 58.34 99.2723Z" fill="#E0E0E0"/>
<path d="M80.8845 93.6133C80.9282 93.6788 70.7008 100.583 58.0451 109.038C45.3893 117.493 35.0744 124.293 35.0416 124.233C35.0088 124.173 45.2143 117.258 57.8865 108.803C70.5586 100.348 80.8407 93.5477 80.8845 93.6133Z" fill="#E0E0E0"/>
<path d="M85.4074 100.365C85.4512 100.43 75.2237 107.34 62.568 115.795C49.9123 124.25 39.5973 131.05 39.5645 130.985C39.5317 130.919 49.7482 124.015 62.4094 115.555C75.0706 107.094 85.3637 100.299 85.4074 100.365Z" fill="#E0E0E0"/>
<path d="M89.9302 107.121C89.9739 107.187 79.7465 114.096 67.0908 122.546C54.435 130.996 44.1201 137.807 44.1201 137.741C44.1201 137.676 54.2983 130.766 66.9595 122.311C79.6207 113.856 89.8864 107.056 89.9302 107.121Z" fill="#E0E0E0"/>
<path d="M94.4371 113.877C94.4808 113.943 84.2534 120.847 71.5977 129.302C58.9419 137.757 48.627 144.558 48.5997 144.492C48.5723 144.426 58.7943 137.522 71.4664 129.067C84.1385 120.612 94.4371 113.812 94.4371 113.877Z" fill="#E0E0E0"/>
<path d="M278.24 127.246L226.704 161.675L277.465 237.46L329.002 203.031L278.24 127.246Z" fill="#F5F5F5"/>
<path d="M302.376 199.462L301.791 203.078L276.168 199.391L276.753 195.775L302.376 199.462Z" fill="#E0E0E0"/>
<path d="M289.469 186.566L293.15 187.096L289.07 212.287L285.395 211.757L289.469 186.566Z" fill="#E0E0E0"/>
<path d="M265.875 154.575C265.918 154.641 260.761 158.164 254.351 162.44C247.941 166.717 242.712 170.136 242.669 170.087C242.625 170.038 247.788 166.504 254.192 162.222C260.597 157.94 265.831 154.482 265.875 154.575Z" fill="#E0E0E0"/>
<path d="M284.826 149.796C284.869 149.862 276.288 155.673 265.683 162.768C255.079 169.863 246.399 175.577 246.355 175.511C246.311 175.446 254.893 169.634 265.497 162.533C276.102 155.433 284.765 149.73 284.826 149.796Z" fill="#E0E0E0"/>
<path d="M288.627 155.465C288.671 155.531 280.089 161.342 269.485 168.443C258.88 175.544 250.2 181.246 250.156 181.18C250.113 181.115 258.667 175.331 269.299 168.23C279.931 161.129 288.594 155.405 288.627 155.465Z" fill="#E0E0E0"/>
<path d="M292.422 161.129C292.466 161.195 283.879 167.006 273.28 174.107C262.681 181.208 253.996 186.91 253.952 186.844C253.908 186.779 262.489 180.973 273.094 173.867C283.699 166.761 292.384 161.075 292.422 161.129Z" fill="#E0E0E0"/>
<path d="M296.251 166.816C296.295 166.881 287.713 172.687 277.109 179.788C266.504 186.888 257.824 192.591 257.78 192.531C257.737 192.471 266.318 186.654 276.923 179.553C287.527 172.452 296.18 166.75 296.251 166.816Z" fill="#E0E0E0"/>
<path d="M196.701 70.0991L140.468 40.0625L96.1816 122.755L152.415 152.792L196.701 70.0991Z" fill="#F5F5F5"/>
<path d="M165.93 72.0988C165.887 72.1807 160.188 69.2203 153.193 65.4897C146.198 61.7592 140.57 58.6622 140.614 58.5803C140.657 58.4983 146.362 61.4588 153.357 65.1893C160.352 68.9199 165.974 72.0114 165.93 72.0988Z" fill="#E0E0E0"/>
<path d="M179.428 86.9717C179.385 87.0536 169.945 82.0941 158.345 75.9002C146.744 69.7062 137.381 64.6156 137.425 64.5337C137.469 64.4518 146.903 69.4058 158.503 75.6052C170.103 81.8046 179.472 86.8897 179.428 86.9717Z" fill="#E0E0E0"/>
<path d="M176.114 93.1601C176.07 93.2421 166.63 88.288 155.03 82.0941C143.43 75.9002 134.067 70.8041 134.111 70.7222C134.154 70.6403 143.589 75.5998 155.189 81.7937C166.789 87.9876 176.158 93.0782 176.114 93.1601Z" fill="#E0E0E0"/>
<path d="M172.8 99.3485C172.756 99.4304 163.316 94.4764 151.716 88.2824C140.116 82.0885 130.752 77.0143 130.796 76.916C130.84 76.8177 140.274 81.7881 151.874 87.982C163.475 94.1759 172.843 99.2665 172.8 99.3485Z" fill="#E0E0E0"/>
<path d="M169.486 105.537C169.442 105.619 160.002 100.665 148.402 94.471C136.802 88.2771 127.433 83.1864 127.482 83.1045C127.531 83.0226 136.96 87.9766 148.56 94.1706C160.161 100.364 169.529 105.455 169.486 105.537Z" fill="#E0E0E0"/>
<path opacity="0.2" d="M169.775 0H168.364V24.0219H169.775V0Z" fill="black"/>
<path d="M136.128 53.0852H202.01C202.01 53.0852 195.929 24.0327 168.572 24.0327C144.239 24.0327 136.128 53.0852 136.128 53.0852Z" fill="#2E758E"/>
<path d="M169.775 0H168.364V24.0219H169.775V0Z" fill="#2E758E"/>
<path d="M315.759 240.236C315.759 240.312 245.07 240.378 157.885 240.378C70.7004 240.378 0 240.329 0 240.236C0 240.143 70.6785 240.094 157.885 240.094C245.091 240.094 315.759 240.154 315.759 240.236Z" fill="#263238"/>
<path d="M17.4797 206.027C18.4044 206.094 19.3062 206.346 20.1312 206.768C20.9562 207.19 21.6876 207.774 22.2817 208.485C23.4629 209.915 24.2994 211.597 24.7264 213.401C25.6507 216.853 25.0819 220.933 24.0975 224.368C20.3565 223.03 18.0431 219.043 16.9875 216.946C15.3467 213.636 14.3678 206.644 17.4633 206.021" fill="#2E758E"/>
<path d="M29.4842 228.558C28.9224 227.688 28.6012 226.685 28.5532 225.65C28.5052 224.616 28.732 223.588 29.2107 222.67C29.7044 221.76 30.3746 220.958 31.1822 220.31C31.9898 219.662 32.9185 219.181 33.9142 218.895C34.8276 218.611 35.8886 218.497 36.6817 219.027C37.0392 219.297 37.3176 219.657 37.4878 220.071C37.6581 220.486 37.714 220.938 37.6497 221.381C37.5062 222.268 37.1286 223.101 36.5559 223.795C34.7346 226.258 32.5251 228.306 29.4459 228.558" fill="#2E758E"/>
<path d="M29.8999 240.099C29.8187 239.867 29.7619 239.627 29.7303 239.383C29.6319 238.87 29.5006 238.209 29.342 237.417C28.8511 235.249 28.7144 233.015 28.9373 230.803C29.1952 228.58 30.0429 226.466 31.3929 224.68C31.8054 224.146 32.2811 223.663 32.8095 223.243C32.953 223.13 33.1028 223.024 33.2579 222.926C33.3073 222.886 33.3626 222.852 33.422 222.828C32.7302 223.418 32.0982 224.075 31.5351 224.789C30.2563 226.577 29.4511 228.659 29.1943 230.841C28.8443 233.386 29.2764 235.718 29.5279 237.395C29.6592 238.231 29.7686 238.908 29.8287 239.378C29.8718 239.616 29.8956 239.857 29.8999 240.099Z" fill="#263238"/>
<path d="M18.6826 211.287C18.7451 211.373 18.7965 211.467 18.8358 211.566C18.9342 211.784 19.0655 212.057 19.2186 212.401C19.5522 213.128 20.0171 214.182 20.5804 215.487C21.7071 218.104 23.2166 221.741 24.7917 225.794C26.3669 229.847 27.7068 233.545 28.6202 236.238C29.0905 237.581 29.457 238.674 29.714 239.433C29.8289 239.793 29.9164 240.083 29.9875 240.307C30.0265 240.407 30.054 240.512 30.0695 240.618C30.014 240.525 29.97 240.426 29.9382 240.323C29.8562 240.105 29.7523 239.821 29.6156 239.466L28.4616 236.298C27.4826 233.627 26.1153 229.934 24.5456 225.887C22.9759 221.84 21.4883 218.191 20.4054 215.558C19.8585 214.264 19.4374 213.21 19.1256 212.44C18.9834 212.09 18.8686 211.811 18.7811 211.588C18.74 211.49 18.707 211.39 18.6826 211.287Z" fill="#263238"/>
<path d="M25.4536 232.463C24.3282 230.592 22.7731 229.015 20.9167 227.863C19.0603 226.711 16.956 226.017 14.7777 225.838C13.6839 225.761 12.3385 225.947 11.8462 226.93C11.354 227.913 12.0103 229.115 12.7651 229.912C14.3687 231.588 16.433 232.751 18.6979 233.257C20.9627 233.762 23.3267 233.587 25.4919 232.753" fill="#2E758E"/>
<path d="M16.4624 228.798C16.6943 228.787 16.9268 228.796 17.157 228.826C17.4267 228.84 17.6951 228.871 17.961 228.918C18.2727 228.979 18.6392 229.011 19.022 229.121C19.45 229.211 19.8719 229.328 20.2854 229.47C20.7645 229.624 21.2339 229.806 21.691 230.016C22.7424 230.487 23.7369 231.075 24.6553 231.77C25.5631 232.481 26.3853 233.295 27.1055 234.195C27.4165 234.587 27.7033 234.997 27.9642 235.424C28.2 235.792 28.4154 236.173 28.6095 236.565C28.7738 236.884 28.9199 237.213 29.0471 237.548C29.1567 237.797 29.2499 238.052 29.326 238.313C29.407 238.531 29.4674 238.756 29.5065 238.985C29.4463 238.985 29.1838 238.045 28.4455 236.647C28.2444 236.272 28.0235 235.907 27.7837 235.555C27.5171 235.141 27.2287 234.742 26.9195 234.359C25.489 232.593 23.6647 231.187 21.5925 230.251C21.1167 230.044 20.6628 229.847 20.2198 229.705C19.8131 229.557 19.3986 229.431 18.9783 229.328C17.4469 228.907 16.457 228.858 16.4624 228.798Z" fill="#263238"/>
<g style="mix-blend-mode:screen">
<path d="M120.487 187.183C118.955 187.185 117.448 186.794 116.111 186.047L108.87 181.994L110.374 179.307L117.615 183.36C118.499 183.851 119.492 184.108 120.503 184.108C121.514 184.108 122.508 183.851 123.391 183.36L130.632 179.307L132.136 181.994L124.895 186.047C123.548 186.799 122.03 187.19 120.487 187.183Z" fill="url(#paint0_linear_341_2276)"/>
<path d="M122.023 197.993H118.944V191.111C118.946 190.059 118.667 189.026 118.135 188.119C117.604 187.211 116.839 186.462 115.92 185.949L109.482 182.349L110.986 179.662L117.424 183.267C118.818 184.049 119.979 185.188 120.788 186.566C121.596 187.945 122.022 189.513 122.023 191.111V197.993Z" fill="url(#paint1_linear_341_2276)"/>
<path d="M122.024 197.993H118.944V191.111C118.944 189.512 119.37 187.943 120.179 186.563C120.987 185.184 122.149 184.044 123.544 183.262L129.987 179.662L131.491 182.349L125.064 185.954C124.146 186.467 123.382 187.215 122.85 188.122C122.318 189.028 122.039 190.06 122.04 191.111L122.024 197.993Z" fill="url(#paint2_linear_341_2276)"/>
<path d="M134.11 185.91C134.107 188.248 133.5 190.546 132.349 192.582C131.198 194.618 129.541 196.323 127.538 197.533C125.535 198.743 123.253 199.417 120.913 199.49C118.573 199.564 116.254 199.033 114.179 197.951C112.104 196.868 110.343 195.27 109.067 193.31C107.79 191.351 107.041 189.095 106.891 186.762C106.741 184.429 107.196 182.097 108.211 179.99C109.226 177.883 110.768 176.074 112.687 174.735C113.567 174.122 114.516 173.616 115.515 173.228C115.703 173.152 115.904 173.117 116.106 173.124C116.309 173.125 116.51 173.167 116.696 173.25C116.881 173.332 117.048 173.449 117.189 173.594C117.327 173.742 117.436 173.914 117.511 174.102C117.552 174.202 117.581 174.306 117.599 174.413C117.656 174.76 117.592 175.117 117.418 175.423C117.245 175.73 116.97 175.967 116.642 176.095C115.658 176.483 114.736 177.013 113.907 177.668C112.084 179.117 110.79 181.126 110.227 183.384C109.664 185.642 109.864 188.022 110.794 190.155C111.725 192.288 113.335 194.055 115.374 195.181C117.413 196.307 119.767 196.728 122.071 196.381C124.374 196.034 126.499 194.936 128.114 193.259C129.729 191.582 130.745 189.42 131.003 187.107C131.262 184.795 130.748 182.462 129.543 180.47C128.337 178.479 126.507 176.941 124.337 176.095C124.009 175.966 123.735 175.729 123.561 175.423C123.387 175.117 123.323 174.76 123.38 174.413C123.395 174.304 123.425 174.198 123.467 174.096C123.539 173.908 123.648 173.737 123.79 173.594C123.928 173.446 124.096 173.329 124.282 173.25C124.469 173.168 124.669 173.124 124.873 173.118C125.075 173.114 125.276 173.152 125.464 173.228C128.019 174.223 130.214 175.967 131.759 178.23C133.304 180.494 134.128 183.171 134.121 185.91H134.11Z" fill="url(#paint3_linear_341_2276)"/>
<path d="M120.481 182.743C120.883 182.744 121.275 182.626 121.61 182.404C121.944 182.182 122.205 181.866 122.36 181.496C122.514 181.125 122.555 180.718 122.477 180.324C122.4 179.931 122.207 179.569 121.923 179.285C121.64 179.001 121.278 178.808 120.884 178.729C120.491 178.651 120.082 178.69 119.711 178.844C119.34 178.997 119.023 179.257 118.8 179.59C118.577 179.923 118.458 180.315 118.458 180.716C118.457 180.982 118.509 181.246 118.61 181.491C118.711 181.737 118.86 181.961 119.048 182.149C119.236 182.337 119.46 182.486 119.705 182.588C119.951 182.69 120.215 182.743 120.481 182.743Z" fill="url(#paint4_linear_341_2276)"/>
<path d="M125.966 191.503C126.368 191.505 126.761 191.387 127.095 191.165C127.43 190.943 127.691 190.627 127.845 190.256C127.999 189.886 128.04 189.479 127.963 189.085C127.885 188.692 127.692 188.33 127.409 188.046C127.125 187.762 126.764 187.569 126.37 187.49C125.976 187.411 125.568 187.451 125.197 187.604C124.826 187.758 124.508 188.017 124.285 188.351C124.062 188.684 123.943 189.076 123.943 189.477C123.943 190.014 124.156 190.528 124.535 190.908C124.915 191.288 125.429 191.502 125.966 191.503Z" fill="url(#paint5_linear_341_2276)"/>
<path d="M114.903 191.503C115.304 191.505 115.697 191.387 116.031 191.165C116.366 190.943 116.627 190.627 116.781 190.256C116.935 189.886 116.976 189.479 116.899 189.085C116.821 188.692 116.628 188.33 116.345 188.046C116.061 187.762 115.7 187.569 115.306 187.49C114.912 187.411 114.504 187.451 114.133 187.604C113.762 187.758 113.444 188.017 113.221 188.351C112.998 188.684 112.879 189.076 112.879 189.477C112.878 189.743 112.93 190.006 113.031 190.252C113.133 190.498 113.282 190.721 113.47 190.91C113.658 191.098 113.881 191.247 114.127 191.349C114.373 191.451 114.636 191.503 114.903 191.503Z" fill="url(#paint6_linear_341_2276)"/>
</g>
<path d="M168.747 65.1015C168.234 64.8281 167.801 64.4274 167.489 63.9381L165.799 61.2999L166.778 60.6772L168.468 63.3099C168.675 63.6306 168.96 63.8935 169.297 64.0741C169.634 64.2546 170.011 64.3469 170.393 64.3423L173.527 64.2822V65.4401L170.393 65.5002C169.819 65.5069 169.253 65.3698 168.747 65.1015Z" fill="url(#paint7_linear_341_2276)"/>
<path d="M167.336 68.9687L166.308 68.4225L167.533 66.1339C167.721 65.7843 167.813 65.3908 167.797 64.9941C167.782 64.5974 167.66 64.212 167.445 63.8781L165.947 61.5349L166.926 60.9067L168.424 63.2499C168.751 63.7576 168.936 64.3434 168.96 64.9464C168.984 65.5495 168.846 66.148 168.561 66.6801L167.336 68.9687Z" fill="url(#paint8_linear_341_2276)"/>
<path d="M167.336 68.9685L166.308 68.4223L167.533 66.1338C167.818 65.6015 168.24 65.1545 168.755 64.8387C169.27 64.5229 169.86 64.3497 170.464 64.3368L173.253 64.2876V65.4455L170.464 65.5002C170.068 65.5097 169.681 65.6238 169.342 65.831C169.004 66.0383 168.727 66.3311 168.539 66.68L167.336 68.9685Z" fill="url(#paint9_linear_341_2276)"/>
<path d="M173.516 67.1006C173.098 67.879 172.486 68.5366 171.74 69.0102C170.993 69.4838 170.137 69.7573 169.254 69.8044C168.371 69.8515 167.491 69.6705 166.698 69.2789C165.906 68.8874 165.227 68.2985 164.729 67.569C164.23 66.8395 163.929 65.994 163.853 65.1141C163.776 64.2343 163.929 63.3497 164.295 62.5456C164.66 61.7416 165.228 61.0453 165.941 60.5238C166.655 60.0023 167.491 59.6733 168.369 59.5685C168.771 59.5221 169.176 59.5221 169.578 59.5685C169.654 59.5773 169.727 59.601 169.794 59.6382C169.86 59.6754 169.919 59.7253 169.966 59.7852C170.014 59.8451 170.049 59.9137 170.069 59.9872C170.09 60.0606 170.096 60.1373 170.087 60.213C170.092 60.2529 170.092 60.2933 170.087 60.3332C170.044 60.4602 169.958 60.5686 169.845 60.6402C169.731 60.7118 169.596 60.7423 169.463 60.7265C168.667 60.6275 167.859 60.7731 167.148 61.1438C166.437 61.5146 165.855 62.093 165.481 62.802C165.163 63.396 165 64.0611 165.009 64.7349C165.017 65.4088 165.197 66.0695 165.531 66.655C165.866 67.2405 166.343 67.7318 166.919 68.0827C167.495 68.4337 168.151 68.6328 168.825 68.6616C169.5 68.6903 170.17 68.5477 170.774 68.247C171.378 67.9464 171.896 67.4976 172.279 66.9426C172.661 66.3877 172.897 65.7447 172.963 65.074C173.029 64.4033 172.924 63.7268 172.657 63.1079C172.499 62.7399 172.287 62.3975 172.028 62.092C171.944 61.9886 171.898 61.8594 171.898 61.726C171.898 61.5927 171.944 61.4634 172.028 61.36C172.028 61.36 172.083 61.3 172.116 61.2727C172.174 61.2229 172.241 61.1851 172.314 61.1614C172.386 61.1378 172.463 61.1287 172.539 61.1348C172.616 61.1409 172.69 61.162 172.758 61.1969C172.826 61.2318 172.887 61.2799 172.936 61.3382C173.195 61.6468 173.42 61.9818 173.609 62.3377C173.981 63.0797 174.167 63.9009 174.151 64.7306C174.135 65.5604 173.917 66.3738 173.516 67.1006Z" fill="url(#paint10_linear_341_2276)"/>
<path d="M169.895 63.7139C170.318 63.7139 170.661 63.3716 170.661 62.9493C170.661 62.5269 170.318 62.1846 169.895 62.1846C169.472 62.1846 169.129 62.5269 169.129 62.9493C169.129 63.3716 169.472 63.7139 169.895 63.7139Z" fill="url(#paint11_linear_341_2276)"/>
<path d="M170.163 67.6031C170.586 67.6031 170.929 67.2607 170.929 66.8384C170.929 66.4161 170.586 66.0737 170.163 66.0737C169.74 66.0737 169.397 66.4161 169.397 66.8384C169.397 67.2607 169.74 67.6031 170.163 67.6031Z" fill="url(#paint12_linear_341_2276)"/>
<path d="M166.477 65.6368C166.9 65.6368 167.243 65.2944 167.243 64.8721C167.243 64.4498 166.9 64.1074 166.477 64.1074C166.054 64.1074 165.711 64.4498 165.711 64.8721C165.711 65.2944 166.054 65.6368 166.477 65.6368Z" fill="url(#paint13_linear_341_2276)"/>
<path d="M48.0471 95.4483C47.5567 95.7692 46.9914 95.9574 46.4063 95.9945L43.2834 96.2458L43.1904 95.0878L46.3133 94.8366C46.6937 94.8058 47.06 94.6789 47.3777 94.4677C47.6953 94.2565 47.9539 93.9681 48.1291 93.6295L49.5511 90.8384L50.5848 91.3846L49.1628 94.1757C48.9065 94.6885 48.5222 95.1268 48.0471 95.4483Z" fill="url(#paint14_linear_341_2276)"/>
<path d="M50.7977 98.5182L49.8351 99.1627L48.3858 96.9779C48.1654 96.6475 47.8605 96.3821 47.5027 96.2092C47.145 96.0363 46.7473 95.9623 46.3512 95.9947L43.5729 96.2132L43.4854 95.0553L46.2637 94.8313C46.8652 94.7863 47.4679 94.9011 48.0106 95.1639C48.5533 95.4268 49.0168 95.8284 49.3538 96.3279L50.7977 98.5182Z" fill="url(#paint15_linear_341_2276)"/>
<path d="M50.7978 98.5181L49.8353 99.1626L48.3859 96.9778C48.0505 96.4754 47.8549 95.8929 47.8194 95.2901C47.7838 94.6873 47.9095 94.0859 48.1836 93.5476L49.447 91.0679L50.4861 91.6141L49.2227 94.0938C49.0423 94.4467 48.9594 94.8413 48.9824 95.2368C49.0055 95.6323 49.1338 96.0146 49.354 96.3442L50.7978 98.5181Z" fill="url(#paint16_linear_341_2276)"/>
<path d="M52.0559 92.193C52.4493 92.7535 52.7267 93.3868 52.8718 94.0557C53.0169 94.7247 53.0267 95.4159 52.9006 96.0887C52.7746 96.7615 52.5153 97.4024 52.1379 97.9737C51.7605 98.5451 51.2727 99.0354 50.703 99.4159C50.1332 99.7964 49.4932 100.059 48.8203 100.19C48.1474 100.32 47.4553 100.314 46.7846 100.174C46.1138 100.033 45.4779 99.7601 44.9143 99.3707C44.3506 98.9814 43.8704 98.4835 43.502 97.9063C43.0326 97.2228 42.7374 96.4351 42.6421 95.6117C42.5468 94.7883 42.6543 93.9542 42.9551 93.1817C43.0947 92.7977 43.2783 92.4312 43.502 92.0893C43.5913 91.9626 43.7273 91.8764 43.8801 91.8498C44.0329 91.8232 44.19 91.8582 44.317 91.9472L44.4099 92.0237C44.4997 92.1222 44.5534 92.2482 44.5623 92.3811C44.5713 92.514 44.5349 92.646 44.4592 92.7556C43.9989 93.4113 43.7488 94.1911 43.742 94.9918C43.7352 95.7926 43.9719 96.5765 44.4209 97.2399C44.7959 97.798 45.3065 98.2521 45.905 98.5597C46.5034 98.8672 47.1701 99.0183 47.8429 98.9987C48.5156 98.9791 49.1724 98.7896 49.7519 98.4478C50.3314 98.1059 50.8146 97.6229 51.1565 97.044C51.4984 96.465 51.6878 95.809 51.7069 95.1371C51.726 94.4652 51.5743 93.7995 51.2659 93.202C50.9575 92.6046 50.5025 92.095 49.9434 91.7208C49.3843 91.3467 48.7394 91.1201 48.0688 91.0624C47.6696 91.0272 47.2672 91.0549 46.8765 91.1443C46.7461 91.1737 46.6095 91.1571 46.4899 91.0974C46.3703 91.0376 46.275 90.9385 46.2202 90.8166C46.2018 90.7786 46.1889 90.7381 46.182 90.6964C46.1609 90.622 46.1559 90.544 46.1674 90.4675C46.1788 90.391 46.2064 90.3178 46.2482 90.2527C46.2901 90.1876 46.3454 90.1322 46.4103 90.09C46.4753 90.0479 46.5484 90.02 46.625 90.0082C47.0199 89.9206 47.4236 89.8784 47.8282 89.8826C48.6687 89.891 49.4942 90.1063 50.2317 90.5093C50.9691 90.9123 51.5956 91.4906 52.0559 92.193Z" fill="url(#paint17_linear_341_2276)"/>
<path d="M46.6851 94.1866C47.108 94.1866 47.4508 93.8442 47.4508 93.4219C47.4508 92.9996 47.108 92.6572 46.6851 92.6572C46.2622 92.6572 45.9194 92.9996 45.9194 93.4219C45.9194 93.8442 46.2622 94.1866 46.6851 94.1866Z" fill="url(#paint18_linear_341_2276)"/>
<path d="M50.2457 95.7818C50.6685 95.7818 51.0114 95.4395 51.0114 95.0171C51.0114 94.5948 50.6685 94.2524 50.2457 94.2524C49.8228 94.2524 49.48 94.5948 49.48 95.0171C49.48 95.4395 49.8228 95.7818 50.2457 95.7818Z" fill="url(#paint19_linear_341_2276)"/>
<path d="M46.7725 98.1031C47.1954 98.1031 47.5382 97.7607 47.5382 97.3384C47.5382 96.9161 47.1954 96.5737 46.7725 96.5737C46.3496 96.5737 46.0068 96.9161 46.0068 97.3384C46.0068 97.7607 46.3496 98.1031 46.7725 98.1031Z" fill="url(#paint20_linear_341_2276)"/>
<path d="M264.726 57.6132C263.118 57.9791 262.336 59.8307 262.183 61.4693C262.03 63.1079 262.238 64.8449 261.548 66.3414C260.772 68.0237 258.918 69.2691 258.858 71.1207C258.819 72.2514 259.492 73.3055 259.459 74.4471C259.405 76.3042 257.512 77.7243 257.408 79.5595C257.337 80.8977 258.229 82.1758 258.015 83.4976C257.851 84.5245 257.047 85.3329 256.708 86.316C256.036 88.2824 257.386 90.4399 259.142 91.5432C260.126 92.1607 261.232 92.5564 262.385 92.7024C263.537 92.8485 264.708 92.7414 265.815 92.3887C266.922 92.0361 267.938 91.4463 268.793 90.6606C269.648 89.8749 270.32 88.9123 270.764 87.8399C271.738 85.4803 271.524 82.8203 271.311 80.2805C270.655 72.3569 270.166 64.4225 269.845 56.4771" fill="#263238"/>
<path d="M260.055 85.5676C260.386 85.3623 260.644 85.0586 260.794 84.6992C260.951 84.2717 261.015 83.8152 260.979 83.361C260.92 82.7587 260.785 82.1662 260.58 81.5967C260.319 80.881 260.221 80.1156 260.296 79.3573C260.433 78.5052 261.045 77.8061 261.597 77.1179C261.895 76.7811 262.143 76.4041 262.336 75.9982C262.529 75.5876 262.56 75.1198 262.423 74.6873C262.139 73.797 261.264 73.1416 260.865 72.1092C260.677 71.5982 260.646 71.0428 260.777 70.5143C260.901 70.0188 261.085 69.5402 261.324 69.0887C261.786 68.2757 262.153 67.4126 262.418 66.5161C262.801 64.7847 262.62 63.1297 262.883 61.7696C263.028 60.6804 263.512 59.6641 264.266 58.8638C264.48 58.6483 264.723 58.4643 264.988 58.3176C265.08 58.27 265.177 58.2351 265.278 58.2139C264.935 58.4023 264.621 58.6376 264.343 58.913C263.644 59.7213 263.204 60.7201 263.08 61.7806C262.984 62.505 262.933 63.2346 262.927 63.9654C262.925 64.8253 262.841 65.6832 262.675 66.5271C262.414 67.4441 262.047 68.3276 261.581 69.1597C261.171 70.0173 260.794 71.0223 261.154 71.9618C261.515 72.9012 262.385 73.5512 262.719 74.5562C262.869 75.0527 262.832 75.5872 262.615 76.0583C262.402 76.505 262.125 76.9189 261.794 77.2872C261.247 77.9754 260.651 78.6309 260.52 79.3956C260.443 80.1209 260.529 80.8541 260.772 81.5421C260.967 82.1292 261.088 82.7384 261.133 83.3555C261.16 83.8308 261.075 84.3058 260.887 84.7429C260.769 85.0169 260.58 85.2545 260.34 85.4311C260.254 85.4936 260.158 85.5399 260.055 85.5676Z" fill="#455A64"/>
<path d="M255.778 98.5181L250.856 112.719L230.27 113.812L226.835 121.459L248.329 123.643C249.345 124.06 250.434 124.266 251.532 124.25C252.63 124.234 253.713 123.996 254.716 123.551C255.719 123.105 256.621 122.461 257.367 121.657C258.114 120.854 258.69 119.907 259.06 118.875L264.797 102.882L255.778 98.5181Z" fill="#B78876"/>
<path d="M298.334 232.518C298.334 232.518 283.25 184.66 282.927 183.108C282.638 181.699 288.397 147.261 289.129 138.32L268.746 139.079V139.281L260.083 139.762L267.838 237.597H277.218L276.288 205.126C282.074 220.632 290.365 236.439 290.365 236.439L298.334 232.518Z" fill="#B78876"/>
<path d="M276.671 216.776C276.671 216.481 276.556 205.896 276.556 205.896C276.441 206.529 272.963 196.709 273.045 196.113C273.089 195.802 276.671 216.776 276.671 216.776Z" fill="#A36957"/>
<path d="M272.651 191.46C272.603 191.655 272.582 191.855 272.591 192.055C272.56 192.601 272.56 193.148 272.591 193.694C272.591 194.038 272.64 194.409 272.684 194.814C272.727 195.218 272.787 195.644 272.88 196.086C273.075 197.052 273.333 198.005 273.652 198.937C274.33 200.92 275.085 202.652 275.615 203.908C275.867 204.454 276.085 204.973 276.271 205.388C276.338 205.581 276.43 205.765 276.545 205.934C276.516 205.746 276.46 205.562 276.381 205.388C276.255 205.028 276.063 204.509 275.834 203.87C275.352 202.592 274.631 200.844 273.958 198.883C273.64 197.964 273.378 197.026 273.176 196.075C273.077 195.638 273.012 195.218 272.952 194.825C272.891 194.431 272.848 194.06 272.82 193.732C272.755 193.055 272.727 192.509 272.711 192.126C272.721 191.903 272.701 191.678 272.651 191.46Z" fill="#A36957"/>
<path d="M267.663 238.094V237.215L277.272 236.794L277.3 240.427L276.709 240.465C274.067 240.618 263.282 241.066 261.521 240.536C259.547 239.946 267.663 238.094 267.663 238.094Z" fill="#455A64"/>
<path d="M277.425 240.208C277.371 240.212 277.316 240.212 277.261 240.208L276.791 240.241L275.052 240.318C273.586 240.378 271.557 240.432 269.32 240.443C267.083 240.454 265.048 240.416 263.577 240.372L261.844 240.301H261.368H261.204C261.258 240.297 261.313 240.297 261.368 240.301H261.844L263.583 240.334C265.048 240.334 267.078 240.378 269.314 240.367C271.551 240.356 273.586 240.318 275.052 240.28L276.791 240.236H277.425V240.208Z" fill="#263238"/>
<path d="M264.529 240.514C264.449 240.228 264.339 239.952 264.201 239.689C264.028 239.447 263.828 239.225 263.605 239.028C263.904 239.135 264.151 239.349 264.3 239.629C264.48 239.887 264.562 240.201 264.529 240.514Z" fill="#263238"/>
<path d="M267.362 239.078C267.362 239.078 267.204 238.93 267.061 238.712C266.919 238.493 266.832 238.302 266.859 238.286C266.886 238.269 267.018 238.428 267.16 238.646C267.302 238.865 267.389 239.061 267.362 239.078Z" fill="#263238"/>
<path d="M268.139 238.69C268.139 238.717 267.964 238.614 267.8 238.466C267.636 238.319 267.515 238.182 267.537 238.16C267.559 238.138 267.712 238.237 267.876 238.384C268.04 238.532 268.161 238.641 268.139 238.69Z" fill="#263238"/>
<path d="M268.625 237.761C268.465 237.82 268.293 237.843 268.122 237.827C267.955 237.849 267.784 237.832 267.625 237.778C267.783 237.719 267.954 237.697 268.122 237.712C268.291 237.689 268.464 237.706 268.625 237.761Z" fill="#263238"/>
<path d="M268.79 237.128C268.627 237.233 268.437 237.29 268.243 237.292C268.057 237.316 267.868 237.29 267.696 237.215C267.876 237.185 268.059 237.17 268.243 237.172C268.423 237.139 268.606 237.125 268.79 237.128Z" fill="#263238"/>
<path d="M267.039 238.242C266.835 238.28 266.626 238.28 266.421 238.242C266.2 238.215 265.983 238.168 265.771 238.1C265.639 238.064 265.513 238.012 265.393 237.947C265.32 237.904 265.266 237.836 265.24 237.756C265.23 237.71 265.233 237.663 265.25 237.619C265.266 237.576 265.295 237.538 265.333 237.51C265.484 237.437 265.65 237.398 265.819 237.397C265.987 237.395 266.153 237.431 266.306 237.501C266.459 237.572 266.594 237.675 266.702 237.804C266.81 237.933 266.888 238.085 266.93 238.247C266.941 238.302 266.941 238.357 266.93 238.411C266.868 238.214 266.772 238.029 266.646 237.865C266.5 237.702 266.31 237.584 266.099 237.526C265.857 237.448 265.594 237.468 265.366 237.581C265.273 237.652 265.311 237.767 265.415 237.832C265.527 237.893 265.644 237.942 265.765 237.98C265.971 238.047 266.181 238.1 266.394 238.138C266.804 238.226 267.039 238.226 267.039 238.242Z" fill="#263238"/>
<path d="M266.881 238.275C266.801 238.148 266.774 237.995 266.804 237.849C266.824 237.688 266.882 237.534 266.974 237.401C267.025 237.31 267.099 237.233 267.187 237.177C267.276 237.122 267.378 237.09 267.482 237.084C267.544 237.098 267.599 237.136 267.634 237.188C267.67 237.241 267.684 237.305 267.674 237.368C267.66 237.466 267.625 237.559 267.57 237.641C267.487 237.777 267.39 237.903 267.28 238.018C267.185 238.127 267.065 238.211 266.93 238.264C266.93 238.264 267.05 238.155 267.22 237.958C267.318 237.845 267.404 237.723 267.477 237.592C267.559 237.461 267.619 237.226 267.477 237.199C267.335 237.171 267.171 237.341 267.078 237.461C266.991 237.579 266.931 237.715 266.903 237.86C266.88 237.997 266.873 238.136 266.881 238.275Z" fill="#263238"/>
<path d="M277.223 237.598C277.223 237.598 276.95 237.598 276.518 237.625C275.955 237.692 275.423 237.916 274.981 238.27C274.539 238.625 274.205 239.095 274.018 239.63C273.876 240.039 273.865 240.318 273.843 240.312C273.821 240.307 273.843 240.241 273.843 240.121C273.857 239.945 273.89 239.771 273.942 239.602C274.116 239.043 274.45 238.547 274.904 238.177C275.364 237.813 275.922 237.594 276.507 237.549C276.688 237.527 276.872 237.527 277.054 237.549C277.112 237.558 277.169 237.574 277.223 237.598Z" fill="#263238"/>
<path d="M272.623 239.444C272.165 239.551 271.694 239.596 271.223 239.58C270.755 239.604 270.286 239.563 269.829 239.46C269.829 239.427 270.452 239.46 271.223 239.46C271.994 239.46 272.618 239.411 272.623 239.444Z" fill="#263238"/>
<path d="M274.494 239.428C274.494 239.428 274.445 239.559 274.379 239.701C274.314 239.843 274.281 239.974 274.248 239.968C274.215 239.963 274.199 239.821 274.275 239.651C274.352 239.482 274.472 239.4 274.494 239.428Z" fill="#263238"/>
<path d="M275.2 238.548C275.2 238.548 275.161 238.668 275.063 238.767C274.965 238.865 274.866 238.93 274.839 238.909C274.811 238.887 274.877 238.788 274.975 238.685C275.074 238.581 275.172 238.521 275.2 238.548Z" fill="#263238"/>
<path d="M276.206 238.144C276.206 238.176 276.075 238.176 275.932 238.226C275.79 238.275 275.692 238.351 275.664 238.329C275.637 238.307 275.719 238.176 275.894 238.116C276.069 238.056 276.217 238.111 276.206 238.144Z" fill="#263238"/>
<path d="M276.923 237.947C276.923 237.98 276.884 238.03 276.802 238.057C276.72 238.084 276.649 238.09 276.638 238.057C276.627 238.024 276.682 237.975 276.759 237.947C276.835 237.92 276.912 237.92 276.923 237.947Z" fill="#263238"/>
<path d="M290.174 237.248L289.813 236.445L298.405 232.136L299.92 235.413L299.373 235.692C297.027 236.91 287.374 241.727 285.547 241.967C283.529 242.257 290.174 237.248 290.174 237.248Z" fill="#455A64"/>
<path d="M299.953 235.178L299.811 235.265L299.39 235.484L297.836 236.27C296.524 236.92 294.697 237.8 292.657 238.728C290.617 239.657 288.747 240.449 287.39 241.011L285.777 241.661L285.339 241.83C285.289 241.854 285.235 241.87 285.181 241.88L285.328 241.809L285.76 241.617L287.357 240.935C288.708 240.356 290.568 239.547 292.608 238.619C294.648 237.69 296.48 236.827 297.804 236.194L299.368 235.445L299.8 235.243L299.953 235.178Z" fill="#263238"/>
<path d="M288.331 240.733C288.142 240.502 287.927 240.293 287.691 240.11C287.435 239.958 287.161 239.837 286.876 239.75C287.19 239.745 287.498 239.837 287.758 240.013C288.019 240.189 288.218 240.44 288.331 240.733Z" fill="#263238"/>
<path d="M290.305 238.264C290.305 238.264 290.097 238.198 289.879 238.056C289.66 237.914 289.501 237.778 289.518 237.75C289.534 237.723 289.726 237.816 289.944 237.958C290.163 238.1 290.322 238.236 290.305 238.264Z" fill="#263238"/>
<path d="M290.841 237.597C290.841 237.625 290.656 237.598 290.442 237.532C290.229 237.466 290.07 237.384 290.076 237.352C290.214 237.339 290.353 237.361 290.481 237.417C290.688 237.466 290.852 237.543 290.841 237.597Z" fill="#263238"/>
<path d="M290.918 236.549C290.918 236.582 290.738 236.696 290.486 236.816C290.341 236.903 290.179 236.958 290.01 236.975C290.01 236.942 290.191 236.827 290.437 236.707C290.584 236.621 290.748 236.567 290.918 236.549Z" fill="#263238"/>
<path d="M290.809 235.904C290.809 235.904 290.65 236.123 290.366 236.281C290.205 236.39 290.014 236.447 289.819 236.445C289.976 236.34 290.142 236.25 290.317 236.177C290.585 236.03 290.781 235.877 290.809 235.904Z" fill="#263238"/>
<path d="M289.687 237.641C289.521 237.755 289.336 237.84 289.141 237.892C288.926 237.955 288.706 238.001 288.484 238.029C288.35 238.046 288.214 238.046 288.079 238.029C287.995 238.023 287.916 237.983 287.861 237.92C287.835 237.881 287.822 237.835 287.822 237.789C287.822 237.742 287.835 237.696 287.861 237.657C288.027 237.456 288.258 237.319 288.514 237.269C288.771 237.219 289.037 237.26 289.266 237.384C289.402 237.455 289.521 237.554 289.616 237.674C289.682 237.761 289.709 237.816 289.704 237.821C289.569 237.671 289.408 237.547 289.228 237.455C289.035 237.365 288.821 237.333 288.61 237.363C288.485 237.376 288.363 237.413 288.252 237.473C288.142 237.533 288.044 237.614 287.965 237.712C287.904 237.816 287.965 237.903 288.112 237.92C288.238 237.931 288.364 237.931 288.49 237.92C288.707 237.898 288.923 237.859 289.135 237.805C289.447 237.718 289.687 237.625 289.687 237.641Z" fill="#263238"/>
<path d="M289.535 237.734C289.413 237.647 289.327 237.519 289.294 237.373C289.246 237.22 289.235 237.057 289.261 236.898C289.27 236.793 289.307 236.693 289.366 236.606C289.425 236.519 289.506 236.448 289.6 236.401C289.737 236.357 290.054 236.636 290.076 236.74C290.098 236.844 289.917 236.789 289.906 236.876C289.889 237.031 289.852 237.184 289.797 237.33C289.757 237.47 289.682 237.598 289.578 237.701C289.578 237.701 289.644 237.554 289.72 237.308C289.76 237.163 289.787 237.015 289.803 236.865C289.803 236.712 289.803 236.478 289.628 236.516C289.453 236.554 289.403 236.767 289.365 236.92C289.332 237.062 289.332 237.21 289.365 237.351C289.41 237.484 289.467 237.612 289.535 237.734Z" fill="#263238"/>
<path d="M298.695 232.878C298.695 232.878 298.433 232.971 298.061 233.195C297.574 233.486 297.179 233.905 296.918 234.408C296.665 234.915 296.557 235.482 296.606 236.046C296.639 236.483 296.743 236.735 296.721 236.746C296.685 236.691 296.658 236.633 296.639 236.571C296.585 236.404 296.546 236.232 296.524 236.057C296.446 235.476 296.546 234.884 296.813 234.361C297.08 233.838 297.5 233.408 298.017 233.13C298.172 233.044 298.335 232.975 298.504 232.922C298.565 232.898 298.63 232.884 298.695 232.878Z" fill="#263238"/>
<path d="M295.255 236.451C294.484 236.986 293.622 237.379 292.712 237.609C292.712 237.576 293.286 237.357 293.986 237.062C294.686 236.768 295.239 236.423 295.255 236.451Z" fill="#263238"/>
<path d="M296.956 235.669C296.983 235.669 296.956 235.806 296.956 235.964C296.956 236.123 296.956 236.254 296.956 236.265C296.956 236.276 296.847 236.145 296.847 235.964C296.847 235.784 296.929 235.653 296.956 235.669Z" fill="#263238"/>
<path d="M297.235 234.577C297.262 234.577 297.235 234.703 297.202 234.834C297.169 234.965 297.087 235.063 297.06 235.052C297.033 235.041 297.06 234.927 297.093 234.795C297.125 234.664 297.202 234.566 297.235 234.577Z" fill="#263238"/>
<path d="M297.99 233.774C297.99 233.807 297.88 233.856 297.771 233.96C297.662 234.063 297.602 234.173 297.574 234.162C297.547 234.151 297.574 233.998 297.695 233.872C297.815 233.747 297.984 233.774 297.99 233.774Z" fill="#263238"/>
<path d="M298.564 233.326C298.564 233.326 298.564 233.414 298.498 233.474C298.433 233.535 298.372 233.567 298.35 233.546C298.329 233.524 298.35 233.458 298.416 233.397C298.482 233.337 298.542 233.304 298.564 233.326Z" fill="#263238"/>
<path d="M287.806 122.153L286.209 102.653L294.413 102.801C294.413 102.801 294.79 99.9221 293.582 93.619C292.838 89.7519 290.262 87.3813 287.369 85.9721V85.9175L287.117 85.852C284.735 84.7841 282.192 84.1214 279.591 83.8911L269.501 84.0058C269.501 84.0058 261.795 83.0227 257.545 88.5338C255.904 90.6476 250.812 105.117 250.812 105.117L262.927 110.939L261.795 102.915C261.795 102.915 262.024 108.732 262.768 110.562C263.178 111.589 264.409 114.779 264.409 114.779L264.25 124.403L287.806 122.153Z" fill="#E8505B"/>
<path d="M282.238 99.8238L280.745 106.192H294.872L293.942 95.5088L282.238 99.8238Z" fill="#E8505B"/>
<path d="M294.872 106.192C294.255 106.079 293.629 106.017 293.002 106.007C291.842 105.941 290.267 105.881 288.473 105.892C286.679 105.903 285.099 105.979 283.939 106.067C283.312 106.089 282.688 106.165 282.074 106.296C282.7 106.346 283.329 106.346 283.956 106.296C285.11 106.258 286.69 106.214 288.473 106.209C290.256 106.203 291.837 106.209 292.996 106.236C293.622 106.271 294.249 106.256 294.872 106.192Z" fill="#263238"/>
<path d="M281.631 95.4595C281.564 96.003 281.549 96.5517 281.588 97.0981C281.588 98.0976 281.631 99.4741 281.692 100.998C281.752 102.522 281.823 103.904 281.888 104.898C281.891 105.449 281.95 105.998 282.063 106.536C282.131 105.993 282.145 105.444 282.107 104.898C282.107 103.898 282.063 102.516 282.003 100.992C281.943 99.4686 281.872 98.0922 281.806 97.0926C281.804 96.5437 281.745 95.9965 281.631 95.4595Z" fill="#263238"/>
<g opacity="0.3">
<path d="M268.779 100.976C268.779 100.976 271.918 124.228 280.745 123.611C280.745 123.611 284.722 123.567 285.996 120.929V119.891L268.779 100.976Z" fill="black"/>
</g>
<g opacity="0.3">
<path d="M281.631 96.8306L279.941 108.23L281.035 110.229L282.835 106.318L282.074 106.296L281.631 96.8306Z" fill="black"/>
</g>
<path d="M264.36 114.79C264.255 114.619 264.174 114.436 264.119 114.243C263.982 113.888 263.802 113.369 263.572 112.719C263.024 111.026 262.573 109.302 262.221 107.558C261.87 105.812 261.647 104.043 261.554 102.265C261.521 101.582 261.51 101.031 261.521 100.627C261.507 100.429 261.52 100.231 261.559 100.037C261.603 100.037 261.636 100.878 261.751 102.221C261.905 103.983 262.155 105.736 262.5 107.47C262.905 109.502 263.392 111.321 263.763 112.627C263.939 113.233 264.086 113.752 264.206 114.178C264.282 114.375 264.333 114.58 264.36 114.79Z" fill="#263238"/>
<path d="M267.925 121.47C267.849 121.47 267.63 120.995 267.439 120.377C267.274 119.999 267.201 119.588 267.225 119.176C267.467 119.51 267.633 119.892 267.712 120.295C267.869 120.666 267.942 121.067 267.925 121.47Z" fill="#263238"/>
<path d="M269.145 121.382C268.732 120.287 268.714 119.081 269.096 117.974C269.139 118.541 269.139 119.111 269.096 119.678C269.156 120.244 269.172 120.814 269.145 121.382Z" fill="#263238"/>
<path d="M263.173 111.206C263.134 111.272 260.318 109.939 256.878 108.224C253.437 106.509 250.675 105.056 250.708 104.985C250.741 104.914 253.563 106.252 257.003 107.967C260.443 109.682 263.205 111.135 263.173 111.206Z" fill="#263238"/>
<path d="M268.139 85.8903C268.199 83.1265 268.216 80.2207 268.216 80.2207C268.216 80.2207 264.666 79.538 264.048 74.8734C263.457 70.4273 265.109 59.9894 265.109 59.9894C270.294 58.034 275.681 59.8092 279.231 64.004L278.35 86.4365C278.246 89.0419 275.922 91.03 273.132 90.8989C270.31 90.7624 268.079 88.523 268.139 85.8903Z" fill="#B78876"/>
<path d="M264.835 68.3296C264.83 68.4828 264.884 68.6319 264.986 68.7467C265.088 68.8614 265.229 68.933 265.382 68.9468C265.46 68.9543 265.538 68.946 265.612 68.9222C265.687 68.8985 265.755 68.8599 265.814 68.8088C265.873 68.7577 265.921 68.6951 265.955 68.6249C265.989 68.5548 266.008 68.4785 266.011 68.4006C266.016 68.2481 265.962 68.0996 265.86 67.9857C265.758 67.8719 265.617 67.8014 265.464 67.7889C265.386 67.7771 265.307 67.7822 265.231 67.804C265.155 67.8258 265.085 67.8636 265.025 67.915C264.966 67.9663 264.918 68.03 264.885 68.1015C264.852 68.1731 264.835 68.2509 264.835 68.3296Z" fill="#263238"/>
<path d="M264.616 67.5486C264.687 67.6251 265.163 67.3028 265.792 67.3247C266.421 67.3465 266.886 67.6742 266.963 67.5978C267.039 67.5213 266.93 67.423 266.728 67.2646C266.454 67.0665 266.125 66.9577 265.787 66.9533C265.454 66.9406 265.125 67.0364 264.852 67.2264C264.649 67.3738 264.578 67.5104 264.616 67.5486Z" fill="#263238"/>
<path d="M271.349 68.7339C271.343 68.8874 271.396 69.0373 271.498 69.1523C271.6 69.2673 271.743 69.3386 271.896 69.3511C271.974 69.363 272.054 69.3577 272.131 69.3357C272.207 69.3136 272.277 69.2752 272.337 69.2233C272.397 69.1713 272.445 69.107 272.477 69.0348C272.51 68.9625 272.526 68.8841 272.525 68.8049C272.531 68.652 272.477 68.5028 272.375 68.3886C272.273 68.2745 272.131 68.2044 271.978 68.1932C271.9 68.1814 271.821 68.1865 271.745 68.2083C271.669 68.2301 271.599 68.2679 271.539 68.3193C271.479 68.3706 271.432 68.4343 271.399 68.5058C271.366 68.5774 271.349 68.6552 271.349 68.7339Z" fill="#263238"/>
<path d="M271.306 67.953C271.377 68.0349 271.852 67.7127 272.481 67.7291C273.11 67.7454 273.575 68.0786 273.657 68.0022C273.739 67.9257 273.619 67.8274 273.417 67.6744C273.147 67.4711 272.819 67.36 272.481 67.3576C272.147 67.3476 271.818 67.4432 271.541 67.6307C271.344 67.7782 271.273 67.9148 271.306 67.953Z" fill="#263238"/>
<path d="M268.855 72.6449C268.52 72.5296 268.17 72.458 267.816 72.4319C267.652 72.4319 267.499 72.3718 267.477 72.2626C267.464 72.0918 267.506 71.9214 267.597 71.7764L268.112 70.5475C268.59 69.503 268.983 68.4216 269.287 67.314C268.727 68.3176 268.248 69.3641 267.855 70.4437C267.685 70.8752 267.515 71.2903 267.357 71.6836C267.251 71.8787 267.216 72.1047 267.258 72.3226C267.28 72.3819 267.315 72.4353 267.36 72.4789C267.406 72.5225 267.461 72.555 267.521 72.5739C267.612 72.6001 267.705 72.6148 267.8 72.6176C268.149 72.6713 268.504 72.6805 268.855 72.6449Z" fill="#263238"/>
<path d="M268.215 80.2203C270.403 80.3078 272.573 79.7879 274.483 78.7183C274.483 78.7183 272.891 81.8698 268.248 81.3182L268.215 80.2203Z" fill="#A36957"/>
<path d="M273.362 66.0902C273.231 66.2923 272.739 66.205 272.192 66.0902C271.645 65.9755 271.164 65.8827 271.098 65.6478C271.032 65.413 271.607 65.1016 272.339 65.2491C273.072 65.3966 273.493 65.9155 273.362 66.0902Z" fill="#263238"/>
<path d="M266.979 65.1616C266.93 65.3965 266.405 65.4839 265.804 65.5112C265.202 65.5385 264.671 65.5112 264.6 65.2709C264.529 65.0305 265.038 64.6919 265.765 64.6591C266.493 64.6264 267.029 64.9377 266.979 65.1616Z" fill="#263238"/>
<path d="M268.866 74.1796C268.797 74.1632 268.725 74.1705 268.66 74.2002C268.596 74.2299 268.543 74.2804 268.511 74.3435C268.48 74.3992 268.464 74.462 268.464 74.5258C268.465 74.5896 268.482 74.6521 268.515 74.7071C268.547 74.7621 268.593 74.8077 268.649 74.8394C268.704 74.8711 268.767 74.8878 268.831 74.8878C268.895 74.8878 268.957 74.8711 269.013 74.8394C269.068 74.8077 269.114 74.7621 269.147 74.7071C269.179 74.6521 269.197 74.5896 269.197 74.5258C269.198 74.462 269.182 74.3992 269.151 74.3435C269.111 74.2701 269.048 74.2123 268.972 74.1795C268.895 74.1467 268.81 74.141 268.73 74.1632" fill="#A36957"/>
<path d="M269.014 74.2451C269.014 74.2178 268.91 74.0594 268.631 74.1195C268.548 74.1412 268.471 74.1844 268.41 74.2448C268.349 74.3052 268.304 74.3806 268.281 74.4636C268.252 74.5681 268.254 74.6791 268.288 74.7822C268.322 74.8853 268.387 74.976 268.472 75.0425C268.563 75.1048 268.671 75.1381 268.781 75.1381C268.892 75.1381 268.999 75.1048 269.09 75.0425C269.163 74.9936 269.22 74.9249 269.255 74.8446C269.29 74.7643 269.301 74.6756 269.287 74.5892C269.233 74.2997 269.019 74.256 269.008 74.2942C268.997 74.3325 269.085 74.4308 269.069 74.6001C269.065 74.642 269.051 74.6823 269.028 74.7175C269.005 74.7527 268.974 74.7818 268.937 74.8022C268.895 74.8267 268.847 74.8395 268.798 74.8395C268.749 74.8395 268.701 74.8267 268.658 74.8022C268.62 74.7699 268.591 74.7282 268.574 74.6813C268.557 74.6344 268.552 74.5839 268.56 74.5346C268.566 74.4914 268.583 74.4505 268.609 74.4152C268.634 74.38 268.668 74.3516 268.708 74.3325C268.861 74.2396 268.998 74.2833 269.014 74.2451Z" fill="#263238"/>
<path d="M277.108 69.4823C276.562 70.7604 275.205 71.749 275.391 73.1309C275.511 74.0212 276.086 74.8514 275.976 75.7472C275.834 76.8396 274.669 77.648 274.5 78.7677C274.297 80.1387 275.637 81.2037 276.168 82.4818C276.95 84.3499 275.954 86.4473 275.927 88.4901C275.959 90.041 276.553 91.5277 277.599 92.6746C278.645 93.8215 280.072 94.551 281.615 94.7277C282.862 94.8315 284.268 94.4546 284.897 93.384C285.444 92.4992 285.323 91.374 285.64 90.3963C286.122 88.9325 287.516 87.8619 287.828 86.3544C288.375 83.6234 285.039 81.3294 285.258 78.5328C285.351 77.3366 286.089 76.2989 286.401 75.1409C286.599 74.3799 286.614 73.5828 286.445 72.8148C286.276 72.0467 285.927 71.3296 285.427 70.7221C284.601 69.7444 283.409 69.0835 282.693 68.0348C281.9 66.8277 281.872 65.3038 281.599 63.8782C281.231 62.1455 280.43 60.534 279.27 59.1943C278.11 57.8547 276.629 56.8307 274.965 56.218C273.301 55.6054 271.508 55.424 269.755 55.6909C268.002 55.9579 266.345 56.6644 264.939 57.7444C264.939 57.7444 264.146 61.3439 267.849 61.9501C271.552 62.5564 273.264 61.8573 273.679 63.3375C273.581 63.9473 273.629 64.5715 273.82 65.1592C274.01 65.7469 274.336 66.2812 274.773 66.7185C276.283 68.3462 277.721 67.9966 277.108 69.4823Z" fill="#263238"/>
<path d="M282.988 94.4491C282.874 94.453 282.76 94.442 282.649 94.4163C282.328 94.3596 282.013 94.2736 281.708 94.1596C280.579 93.7272 279.588 92.9966 278.842 92.0458C278.319 91.3898 277.909 90.6514 277.628 89.861C277.309 88.9608 277.14 88.014 277.13 87.059C277.119 86.0064 277.252 84.9571 277.524 83.9402C277.673 83.4031 277.856 82.8759 278.071 82.3617C278.297 81.8498 278.496 81.3266 278.667 80.7941C278.818 80.2693 278.818 79.713 278.667 79.1882C278.507 78.6717 278.3 78.1707 278.049 77.6917C277.796 77.2166 277.582 76.7215 277.409 76.2115C277.241 75.7066 277.201 75.1678 277.294 74.6439C277.513 73.617 278.137 72.8523 278.509 72.0712C278.863 71.3482 279.032 70.5488 279.001 69.7444C278.951 68.5674 278.524 67.4375 277.781 66.5218C277.494 66.2011 277.185 65.9 276.857 65.6206C277.24 65.8358 277.583 66.1168 277.869 66.4508C278.665 67.3651 279.135 68.518 279.203 69.728C279.248 70.5674 279.083 71.4048 278.722 72.1641C278.345 72.9725 277.737 73.7426 277.552 74.6821C277.366 75.6216 277.809 76.6102 278.295 77.5606C278.561 78.0534 278.777 78.5711 278.941 79.1063C279.102 79.6778 279.102 80.2827 278.941 80.8542C278.759 81.4052 278.549 81.9466 278.312 82.4764C278.097 82.9795 277.914 83.4958 277.765 84.0221C277.493 85.0133 277.359 86.0369 277.366 87.0645C277.349 88.8145 277.914 90.5206 278.974 91.9147C279.682 92.8537 280.625 93.5901 281.708 94.0504C282.523 94.3672 282.993 94.4163 282.988 94.4491Z" fill="#455A64"/>
<path d="M282.441 66.8876C282.174 66.9565 281.901 66.9968 281.626 67.0077C280.875 67.0879 280.117 67.0677 279.372 66.9477C278.808 66.8641 278.265 66.669 277.777 66.3735C277.289 66.0781 276.864 65.6884 276.528 65.2271C276.216 64.6436 275.966 64.0284 275.785 63.3919C275.551 62.7562 275.112 62.2161 274.538 61.8571C273.34 61.0978 271.934 61.005 270.709 60.8575C269.579 60.8013 268.482 60.4592 267.521 59.8634C266.877 59.4373 266.412 58.7902 266.213 58.0446C266.166 57.8425 266.153 57.6338 266.175 57.4274C266.175 57.2854 266.208 57.2144 266.219 57.2144C266.225 57.4849 266.26 57.754 266.323 58.0173C266.549 58.7144 267.014 59.3099 267.635 59.6996C268.579 60.2494 269.645 60.5572 270.737 60.5953C271.962 60.7374 273.416 60.8084 274.696 61.6167C275.322 62.0095 275.8 62.5996 276.053 63.2936C276.224 63.9139 276.46 64.5144 276.758 65.0851C277.395 65.9578 278.349 66.5462 279.416 66.7237C280.137 66.8576 280.871 66.9071 281.604 66.8712C281.883 66.8555 282.163 66.861 282.441 66.8876Z" fill="#455A64"/>
<path d="M281.084 62.4415C280.878 62.5104 280.661 62.5418 280.444 62.5344C279.425 62.5413 278.443 62.1491 277.71 61.442C277.375 61.107 277.09 60.7263 276.862 60.3114C276.37 59.4811 275.894 58.4597 274.871 58.0337C273.886 57.7036 272.836 57.6118 271.808 57.7661C270.941 57.8877 270.061 57.8877 269.194 57.7661C268.591 57.6825 268.023 57.4328 267.553 57.0451C267.432 56.9395 267.326 56.8183 267.236 56.6846C267.171 56.5899 267.143 56.5408 267.154 56.5371C267.154 56.5371 267.307 56.7119 267.625 56.9577C268.092 57.2899 268.635 57.5001 269.205 57.5694C270.057 57.6653 270.917 57.6506 271.765 57.5257C272.837 57.3508 273.937 57.4446 274.964 57.7988C275.492 58.0359 275.945 58.4139 276.271 58.8912C276.56 59.317 276.824 59.7583 277.064 60.213C277.28 60.61 277.547 60.9773 277.857 61.3054C278.132 61.583 278.447 61.8169 278.793 61.9991C279.301 62.2644 279.861 62.4189 280.433 62.4525C280.855 62.447 281.079 62.4142 281.084 62.4415Z" fill="#455A64"/>
<path d="M284.618 93.2691C284.59 93.2691 284.765 92.9086 284.968 92.2313C285.242 91.2805 285.363 90.2924 285.329 89.3036C285.289 87.84 284.889 86.4087 284.164 85.1361C283.764 84.4206 283.157 83.7816 282.66 82.995C282.396 82.5944 282.211 82.1478 282.113 81.6787C282.026 81.1849 282.068 80.6773 282.233 80.2039C282.539 79.259 283.086 78.467 283.207 77.5986C283.327 76.7301 282.911 75.96 282.496 75.2335C282.281 74.88 282.086 74.5154 281.91 74.1411C281.75 73.7781 281.645 73.3934 281.599 72.9995C281.547 72.3055 281.569 71.608 281.664 70.9185C281.839 69.9439 281.748 68.9403 281.402 68.0127C281.247 67.6878 281.027 67.3978 280.756 67.1606C280.756 67.1606 280.784 67.1606 280.822 67.1934C280.887 67.2255 280.946 67.268 280.997 67.319C281.211 67.497 281.384 67.7186 281.506 67.969C281.901 68.9046 282.024 69.9326 281.861 70.9349C281.786 71.6115 281.777 72.2938 281.834 72.9722C281.969 73.7354 282.271 74.4591 282.72 75.0915C282.953 75.4606 283.153 75.85 283.316 76.2549C283.488 76.692 283.545 77.1661 283.48 77.6313C283.349 78.5872 282.785 79.3956 282.501 80.2859C282.352 80.7154 282.312 81.1754 282.386 81.6241C282.482 82.058 282.656 82.4708 282.9 82.8421C283.365 83.6013 283.994 84.2513 284.393 84.9996C285.126 86.3151 285.517 87.7929 285.531 89.2982C285.548 90.3057 285.393 91.3088 285.072 92.2641C284.984 92.5226 284.878 92.7745 284.754 93.0178C284.721 93.1077 284.675 93.1923 284.618 93.2691Z" fill="#455A64"/>
<path d="M262.342 195.043C262.342 195.043 258.655 160.174 258.442 147.289C258.229 134.404 264.245 121.688 264.245 121.688L287.806 120.71C287.806 120.71 292.466 133.781 292.548 139.281C292.712 149.954 289.71 160.49 290.054 168.956L290.842 195.065" fill="#263238"/>
<path d="M291.634 152.171C291.512 152.278 291.382 152.377 291.246 152.466L291.033 152.614L290.803 152.838C290.601 153.013 290.417 153.209 290.256 153.422C289.496 154.351 288.944 156.017 288.413 158.087C288.142 159.235 287.742 160.349 287.221 161.408C287.062 161.698 286.879 161.974 286.674 162.232C286.575 162.363 286.482 162.506 286.368 162.631L286.007 162.992C285.49 163.474 284.889 163.859 284.235 164.128C282.917 164.707 281.423 164.98 280.067 165.663C278.677 166.409 277.604 167.631 277.043 169.104C276.375 170.584 275.949 172.135 275.402 173.588C274.855 175.041 274.117 176.428 272.941 177.313C271.816 178.093 270.481 178.514 269.112 178.52C267.843 178.597 266.667 178.558 265.612 178.717C264.662 178.815 263.754 179.158 262.976 179.711C262.408 180.155 261.982 180.754 261.751 181.437C261.604 181.867 261.572 182.328 261.658 182.775C261.723 183.081 261.805 183.228 261.789 183.234C261.701 183.097 261.638 182.945 261.603 182.786C261.488 182.33 261.503 181.852 261.647 181.404C261.864 180.688 262.293 180.054 262.877 179.585C263.675 178.984 264.619 178.607 265.612 178.493C266.706 178.318 267.871 178.34 269.123 178.258C270.452 178.249 271.747 177.838 272.837 177.078C273.942 176.114 274.758 174.862 275.194 173.462C275.741 172.026 276.14 170.469 276.835 168.962C277.423 167.428 278.546 166.158 279.996 165.384C281.407 164.685 282.9 164.417 284.185 163.86C284.815 163.6 285.392 163.23 285.892 162.768L286.236 162.424C286.346 162.303 286.439 162.167 286.537 162.041C286.73 161.793 286.9 161.528 287.046 161.249C287.57 160.205 287.975 159.106 288.254 157.972C288.801 155.907 289.398 154.22 290.201 153.286C290.362 153.073 290.545 152.879 290.748 152.707C290.836 152.63 290.912 152.554 290.989 152.494L291.213 152.352C291.35 152.283 291.491 152.223 291.634 152.171Z" fill="#FAFAFA"/>
<path d="M291.777 136.037C291.802 136.19 291.813 136.345 291.81 136.501C291.808 136.952 291.753 137.401 291.646 137.839C291.175 139.437 290.249 140.864 288.982 141.947C288.146 142.714 287.229 143.39 286.247 143.962C285.192 144.585 284.027 145.18 282.829 145.857C281.571 146.531 280.399 147.354 279.34 148.31C278.253 149.387 277.358 150.641 276.693 152.018C276.022 153.415 275.256 154.763 274.401 156.055C273.966 156.657 273.464 157.207 272.903 157.694C272.349 158.163 271.742 158.565 271.092 158.89C269.917 159.466 268.693 159.936 267.433 160.293C266.263 160.654 265.169 160.976 264.217 161.386C263.354 161.729 262.532 162.169 261.767 162.697C261.192 163.095 260.675 163.571 260.23 164.111C259.858 164.58 259.548 165.094 259.306 165.641C259.345 165.489 259.396 165.341 259.459 165.198C259.639 164.786 259.868 164.397 260.143 164.04C260.579 163.477 261.095 162.981 261.674 162.566C262.442 162.019 263.27 161.561 264.141 161.2C265.195 160.771 266.27 160.398 267.362 160.08C268.604 159.715 269.811 159.243 270.972 158.671C271.588 158.35 272.165 157.962 272.695 157.513C273.234 157.033 273.719 156.495 274.139 155.907C274.982 154.622 275.74 153.283 276.408 151.898C277.095 150.49 278.02 149.211 279.143 148.119C280.221 147.149 281.415 146.316 282.698 145.639C283.901 144.967 285.066 144.383 286.122 143.765C287.1 143.213 288.017 142.557 288.856 141.81C290.113 140.76 291.046 139.375 291.547 137.817C291.688 137.234 291.765 136.637 291.777 136.037Z" fill="#FAFAFA"/>
<path d="M258.562 149.113C258.541 149.079 258.524 149.042 258.513 149.004C258.472 148.898 258.438 148.791 258.409 148.681C258.316 148.247 258.334 147.796 258.464 147.37C258.77 146.278 259.979 144.874 261.926 144.181C262.9 143.847 263.999 143.634 265.147 143.35C266.101 143.193 267.003 142.809 267.779 142.233C268.554 141.656 269.18 140.902 269.605 140.035C269.916 139.398 270.188 138.744 270.42 138.074C270.847 136.62 271.428 135.216 272.153 133.885C272.984 132.576 274.245 131.597 275.719 131.116C277.061 130.681 278.429 130.334 279.816 130.078C281.053 129.84 282.251 129.432 283.376 128.865C284.329 128.322 285.15 127.576 285.783 126.68C286.717 125.388 287.249 123.849 287.314 122.256C287.317 121.672 287.278 121.088 287.199 120.508C287.364 121.076 287.44 121.665 287.423 122.256C287.402 123.883 286.887 125.466 285.947 126.795C285.306 127.72 284.467 128.491 283.491 129.051C282.351 129.639 281.134 130.064 279.876 130.313C278.502 130.573 277.147 130.922 275.818 131.356C274.402 131.819 273.192 132.759 272.394 134.016C271.681 135.329 271.107 136.713 270.682 138.145C270.446 138.827 270.166 139.493 269.845 140.139C269.521 140.76 269.109 141.33 268.62 141.832C267.66 142.707 266.478 143.302 265.202 143.553C264.043 143.847 262.949 144.033 261.992 144.35C260.094 144.995 258.891 146.322 258.568 147.381C258.435 147.79 258.4 148.224 258.464 148.649C258.51 148.8 258.543 148.956 258.562 149.113Z" fill="#FAFAFA"/>
<path d="M289.753 178.608C289.775 178.721 289.788 178.836 289.791 178.952C289.802 179.283 289.767 179.614 289.687 179.935C289.344 181.12 288.617 182.157 287.62 182.885C286.954 183.414 286.218 183.848 285.432 184.174C284.595 184.529 283.671 184.813 282.698 185.113C281.687 185.408 280.698 185.773 279.739 186.206C278.742 186.681 277.848 187.347 277.108 188.166C276.31 188.997 275.62 189.909 274.855 190.717C274.122 191.5 273.272 192.164 272.333 192.684C270.737 193.553 268.951 194.019 267.132 194.038C265.914 194.051 264.703 193.85 263.555 193.443C263.244 193.336 262.94 193.206 262.647 193.055C262.541 193.011 262.44 192.954 262.347 192.886C262.458 192.913 262.566 192.951 262.669 193C262.97 193.129 263.276 193.242 263.588 193.339C264.734 193.698 265.932 193.866 267.132 193.836C268.911 193.79 270.652 193.316 272.208 192.454C273.116 191.94 273.941 191.29 274.652 190.526C275.402 189.729 276.085 188.822 276.9 187.97C277.684 187.12 278.628 186.433 279.679 185.949C280.652 185.515 281.656 185.149 282.681 184.856C283.644 184.562 284.563 184.31 285.416 183.95C286.179 183.638 286.896 183.224 287.549 182.721C288.529 182.03 289.26 181.041 289.633 179.902C289.713 179.476 289.753 179.042 289.753 178.608Z" fill="#FAFAFA"/>
<path d="M287.068 106.214L282.506 106.323C282.331 107.242 281.982 108.119 281.478 108.907C277.65 102.298 274.713 93.4495 273.98 89.8937C274.089 89.5387 274.215 89.1454 274.374 88.7085C274.487 88.0448 274.467 87.3651 274.313 86.7094C274.182 85.9174 273.963 84.8523 273.898 84.3607C273.695 82.8532 273.449 82.6183 272.924 82.7876C272.213 83.0225 273.22 87.0098 272.634 87.0972C272.317 87.1409 271.934 85.7754 271.825 84.6557C271.716 83.5359 271.201 80.0839 270.835 79.8545C270.288 79.5159 269.812 80.0512 269.954 81.1654C270.097 82.2797 270.266 85.6661 269.675 85.7153C269.085 85.7644 268.582 80.0402 268.582 80.0402C268.582 80.0402 268.675 78.7949 267.986 78.8222C266.749 78.8768 267.718 84.9069 267.821 85.4804C267.898 85.8737 267.275 85.9502 267.198 85.5187C267.121 85.0872 266.837 79.7999 265.557 79.8436C264.584 79.8436 266.306 84.8086 265.76 85.9556C265.213 87.1026 264.841 82.0667 263.916 82.1322C263.572 82.1595 263.315 82.2251 263.949 85.0708C264.557 87.3318 265.287 89.5581 266.137 91.7399C267.603 99.6325 274.034 124.883 284.114 120.263C289.758 117.674 292.045 106.214 292.045 106.214H287.068Z" fill="#B78876"/>
<path d="M267.625 85.8628C267.668 85.8737 267.713 85.8737 267.756 85.8628C267.822 85.8427 267.879 85.7997 267.916 85.7416C267.953 85.6836 267.968 85.6142 267.959 85.546C267.959 85.2074 267.893 84.7158 267.816 84.0767C267.688 83.3065 267.604 82.5297 267.565 81.7499C267.565 81.2911 267.565 80.7995 267.592 80.2806C267.6 80.0168 267.628 79.7539 267.674 79.4941C267.718 79.2483 267.882 78.9479 268.073 78.997H268.106C268.298 78.997 268.451 79.1391 268.511 79.3685C268.579 79.6062 268.604 79.8538 268.587 80.1004C268.7 81.63 268.896 83.1525 269.173 84.6612C269.216 84.8632 269.26 85.0708 269.326 85.2784C269.355 85.3846 269.391 85.4886 269.435 85.5897C269.463 85.646 269.494 85.7007 269.528 85.7536C269.553 85.7935 269.586 85.8271 269.626 85.8518C269.666 85.8764 269.711 85.8914 269.758 85.8956C269.838 85.8868 269.913 85.8546 269.974 85.8031C270.036 85.7516 270.08 85.683 270.102 85.6061C270.149 85.4992 270.184 85.3875 270.206 85.2729C270.249 85.0527 270.278 84.8302 270.294 84.6065C270.344 83.6964 270.331 82.7839 270.256 81.8755C270.186 81.422 270.168 80.9622 270.201 80.5046C270.221 80.3069 270.317 80.1247 270.469 79.9966C270.504 79.9758 270.543 79.9626 270.584 79.9579C270.624 79.9532 270.665 79.9571 270.704 79.9693C270.75 79.9804 270.795 79.9988 270.835 80.0239C270.863 80.0447 270.884 80.0732 270.896 80.1058C271.068 80.5488 271.194 81.0081 271.273 81.4768C271.371 81.9575 271.453 82.4545 271.53 82.9515C271.606 83.4486 271.678 83.9511 271.738 84.4591C271.785 84.9832 271.869 85.5034 271.989 86.0157C272.054 86.2777 272.136 86.535 272.235 86.7859C272.291 86.9263 272.369 87.0572 272.465 87.1737C272.502 87.2221 272.552 87.2591 272.609 87.2803C272.666 87.3016 272.728 87.3063 272.788 87.2938C272.843 87.2756 272.893 87.2434 272.932 87.2003C272.972 87.1573 272.999 87.1048 273.012 87.0481C273.077 86.7689 273.097 86.4814 273.072 86.196C273.072 85.9229 273.039 85.6498 273.012 85.3876C272.974 84.9288 272.93 84.4754 272.914 84.0276C272.9 83.8075 272.9 83.5867 272.914 83.3667C272.924 83.2692 272.948 83.1737 272.985 83.0826C272.996 83.0526 273.013 83.0248 273.034 83.0007H273.105C273.466 82.8532 273.586 83.3557 273.685 83.7599C273.783 84.1641 273.822 84.6229 273.909 85.0544C274.051 85.912 274.237 86.7695 274.33 87.5888C274.393 87.9811 274.379 88.382 274.286 88.7686C274.155 89.1619 274.024 89.5497 273.898 89.9375V89.9757V90.0085C274.539 92.6918 275.355 95.3302 276.343 97.9065C277.207 100.239 278.077 102.276 278.837 103.915C279.597 105.553 280.286 106.837 280.756 107.7L281.303 108.678C281.363 108.794 281.434 108.904 281.517 109.005C281.471 108.884 281.414 108.767 281.347 108.656L280.8 107.656C280.352 106.777 279.706 105.471 278.963 103.833C278.219 102.194 277.377 100.157 276.534 97.8246C275.57 95.2522 274.77 92.6215 274.139 89.9484V90.0249C274.265 89.6425 274.39 89.2547 274.522 88.8669C274.635 88.4413 274.658 87.9964 274.587 87.5615C274.489 86.7039 274.308 85.8737 274.166 85.0107C274.084 84.5847 274.029 84.1477 273.942 83.6998C273.936 83.4698 273.898 83.2417 273.827 83.0225C273.765 82.8893 273.658 82.7814 273.526 82.7167C273.386 82.6708 273.234 82.6708 273.094 82.7167H273.007C272.96 82.7315 272.917 82.7557 272.881 82.7877C272.82 82.8391 272.773 82.9048 272.744 82.9789C272.694 83.0971 272.663 83.2224 272.651 83.3503C272.635 83.5867 272.635 83.8239 272.651 84.0603C272.651 84.5191 272.717 84.9779 272.755 85.4368C272.755 85.7044 272.799 85.983 272.81 86.2287C272.831 86.4751 272.819 86.7233 272.771 86.9661C272.771 87.0207 272.728 87.0098 272.771 87.0371L272.739 87.0044C272.669 86.9151 272.614 86.8156 272.575 86.7094C272.479 86.4731 272.4 86.2304 272.339 85.983C272.219 85.4855 272.137 84.9798 272.093 84.47C272.035 83.9566 271.964 83.4486 271.88 82.9461C271.803 82.4436 271.716 81.952 271.617 81.4604C271.535 80.9601 271.396 80.4708 271.202 80.0021C271.164 79.9238 271.106 79.8575 271.032 79.8109C270.968 79.774 270.901 79.7447 270.83 79.7235C270.752 79.7031 270.671 79.6983 270.591 79.7096C270.511 79.7208 270.434 79.7478 270.365 79.789C270.252 79.8732 270.158 79.9797 270.088 80.1019C270.019 80.2241 269.975 80.3593 269.96 80.4991C269.925 80.7473 269.925 80.9992 269.96 81.2474C269.96 81.4823 270.015 81.7117 270.031 81.9411C270.107 82.8348 270.124 83.7325 270.081 84.6284C270.068 84.8412 270.04 85.0529 269.999 85.262C269.983 85.3596 269.955 85.455 269.917 85.546C269.902 85.582 269.882 85.6153 269.856 85.6443C269.856 85.6935 269.818 85.6443 269.824 85.7099C269.824 85.6552 269.824 85.7099 269.824 85.6389C269.799 85.602 269.777 85.5637 269.758 85.5242C269.72 85.4368 269.687 85.3384 269.654 85.2456C269.594 85.049 269.55 84.8469 269.506 84.6502C269.221 83.1546 269.015 81.645 268.888 80.1277C268.905 79.8531 268.873 79.5777 268.795 79.3138C268.759 79.1762 268.685 79.0514 268.582 78.9534C268.529 78.9017 268.465 78.8615 268.395 78.8352C268.326 78.8089 268.252 78.7971 268.177 78.8004H268.21C268.118 78.7869 268.023 78.8009 267.938 78.8408C267.854 78.8806 267.783 78.9444 267.734 79.0244C267.653 79.1546 267.597 79.2993 267.57 79.4504C267.524 79.7212 267.499 79.9951 267.494 80.2697C267.494 80.8159 267.494 81.2911 267.494 81.7554C267.546 82.5401 267.646 83.3208 267.794 84.0931C267.887 84.7267 267.959 85.2183 267.991 85.5515C268.002 85.6098 267.992 85.67 267.963 85.7218C267.934 85.7735 267.888 85.8137 267.833 85.8355C267.669 85.8519 267.619 85.8573 267.625 85.8628Z" fill="#A36957"/>
<path d="M232.004 113.736C230.936 113.713 229.871 113.836 228.837 114.102C226.009 114.844 221.136 117.794 220.934 121.437H224.478C224.478 121.437 222.493 125.654 223.073 125.26C224.588 124.244 227.596 121.191 227.596 121.191L232.004 113.736Z" fill="#B78876"/>
<path d="M280.313 50.2504C280.231 50.2504 279.914 47.3337 279.597 43.696C279.279 40.0583 279.083 37.1416 279.159 37.1416C279.236 37.1416 279.558 40.0583 279.876 43.696C280.193 47.3337 280.39 50.2504 280.313 50.2504Z" fill="#263238"/>
<path d="M295.851 37.3657C295.911 37.4093 293.521 40.8777 290.508 45.1108C287.494 49.3438 284.995 52.7576 284.929 52.6921C284.863 52.6265 287.259 49.18 290.272 44.9469C293.286 40.7139 295.785 37.322 295.851 37.3657Z" fill="#263238"/>
<path d="M302.305 53.0852C302.305 53.1617 299.527 53.8007 296.07 54.5108C292.613 55.2208 289.791 55.7343 289.775 55.6578C289.759 55.5813 292.548 54.9423 296.01 54.2322C299.472 53.5221 302.267 53.0087 302.305 53.0852Z" fill="#263238"/>
<path d="M116.313 128.106L96.9524 227.405L94.4365 240.405L223.51 239.782C229.307 239.755 234.448 234.615 236.302 226.979L259.196 133.235C260.613 127.44 257.506 121.41 253.109 121.415L122.439 121.552C119.595 121.546 117.046 124.233 116.313 128.106Z" fill="#2E758E"/>
<path d="M211.144 220.665L197.471 110.655C196.924 106.149 193.32 102.784 189.07 102.8L159.099 102.893C157.985 102.906 156.886 103.145 155.867 103.595C154.849 104.046 153.933 104.699 153.176 105.515L138.956 120.628L55.6053 121.076C50.5134 121.104 46.5975 125.921 47.2702 131.328L59.9642 233.004C60.5111 237.505 64.1153 240.864 68.354 240.858L213.643 240.569C229.821 240.902 231.369 236.134 231.369 236.134C212.796 240.236 211.144 220.692 211.144 220.665Z" fill="#2E758E"/>
</g>
<defs>
<linearGradient id="paint0_linear_341_2276" x1="120.175" y1="181.339" x2="123.467" y2="186.548" gradientUnits="userSpaceOnUse">
<stop stop-color="#3D5C80"/>
<stop offset="0.09" stop-color="#466585"/>
<stop offset="0.24" stop-color="#5F7C92"/>
<stop offset="0.45" stop-color="#8AA1A7"/>
<stop offset="0.64" stop-color="#B9C9BE"/>
<stop offset="0.88" stop-color="#B9C9BE"/>
<stop offset="1" stop-color="#7692AA"/>
</linearGradient>
<linearGradient id="paint1_linear_341_2276" x1="140.608" y1="209.294" x2="69.5251" y2="149.644" gradientUnits="userSpaceOnUse">
<stop stop-color="#3D5C80"/>
<stop offset="0.06" stop-color="#466585"/>
<stop offset="0.16" stop-color="#5F7C92"/>
<stop offset="0.29" stop-color="#8AA1A7"/>
<stop offset="0.41" stop-color="#B9C9BE"/>
<stop offset="0.77" stop-color="#B9C9BE"/>
<stop offset="1" stop-color="#7692AA"/>
</linearGradient>
<linearGradient id="paint2_linear_341_2276" x1="113.393" y1="205.951" x2="134.261" y2="169.801" gradientUnits="userSpaceOnUse">
<stop stop-color="#3D5C80"/>
<stop offset="0.06" stop-color="#466585"/>
<stop offset="0.16" stop-color="#5F7C92"/>
<stop offset="0.29" stop-color="#8AA1A7"/>
<stop offset="0.41" stop-color="#B9C9BE"/>
<stop offset="0.77" stop-color="#B9C9BE"/>
<stop offset="1" stop-color="#7692AA"/>
</linearGradient>
<linearGradient id="paint3_linear_341_2276" x1="111.134" y1="199.462" x2="131.225" y2="170.232" gradientUnits="userSpaceOnUse">
<stop stop-color="#324380"/>
<stop offset="0.07" stop-color="#3C4D84"/>
<stop offset="0.21" stop-color="#586A91"/>
<stop offset="0.39" stop-color="#8798A7"/>
<stop offset="0.55" stop-color="#B9C9BE"/>
<stop offset="0.8" stop-color="#B9C9BE"/>
</linearGradient>
<linearGradient id="paint4_linear_341_2276" x1="107.229" y1="174.014" x2="153.501" y2="197.468" gradientUnits="userSpaceOnUse">
<stop stop-color="#3D5C80"/>
<stop offset="0.06" stop-color="#466585"/>
<stop offset="0.16" stop-color="#5F7C92"/>
<stop offset="0.29" stop-color="#8AA1A7"/>
<stop offset="0.41" stop-color="#B9C9BE"/>
<stop offset="0.77" stop-color="#B9C9BE"/>
<stop offset="1" stop-color="#7692AA"/>
</linearGradient>
<linearGradient id="paint5_linear_341_2276" x1="112.709" y1="182.775" x2="158.981" y2="206.229" gradientUnits="userSpaceOnUse">
<stop stop-color="#3D5C80"/>
<stop offset="0.06" stop-color="#466585"/>
<stop offset="0.16" stop-color="#5F7C92"/>
<stop offset="0.29" stop-color="#8AA1A7"/>
<stop offset="0.41" stop-color="#B9C9BE"/>
<stop offset="0.77" stop-color="#B9C9BE"/>
<stop offset="1" stop-color="#7692AA"/>
</linearGradient>
<linearGradient id="paint6_linear_341_2276" x1="102.553" y1="183.234" x2="148.825" y2="206.688" gradientUnits="userSpaceOnUse">
<stop stop-color="#3D5C80"/>
<stop offset="0.06" stop-color="#466585"/>
<stop offset="0.16" stop-color="#5F7C92"/>
<stop offset="0.29" stop-color="#8AA1A7"/>
<stop offset="0.41" stop-color="#B9C9BE"/>
<stop offset="0.77" stop-color="#B9C9BE"/>
<stop offset="1" stop-color="#7692AA"/>
</linearGradient>
<linearGradient id="paint7_linear_341_2276" x1="169.682" y1="63.1035" x2="169.848" y2="65.4222" gradientUnits="userSpaceOnUse">
<stop stop-color="#3D5C80"/>
<stop offset="0.1" stop-color="#496686"/>
<stop offset="0.27" stop-color="#688295"/>
<stop offset="0.51" stop-color="#9AAEAF"/>
<stop offset="0.64" stop-color="#B9C9BE"/>
<stop offset="0.88" stop-color="#B9C9BE"/>
<stop offset="1" stop-color="#7692AA"/>
</linearGradient>
<linearGradient id="paint8_linear_341_2276" x1="171.497" y1="76.0459" x2="158.472" y2="43.5348" gradientUnits="userSpaceOnUse">
<stop stop-color="#3D5C80"/>
<stop offset="0.06" stop-color="#496686"/>
<stop offset="0.18" stop-color="#688295"/>
<stop offset="0.33" stop-color="#9AAEAF"/>
<stop offset="0.41" stop-color="#B9C9BE"/>
<stop offset="0.77" stop-color="#B9C9BE"/>
<stop offset="1" stop-color="#7692AA"/>
</linearGradient>
<linearGradient id="paint9_linear_341_2276" x1="163.043" y1="70.0932" x2="176.428" y2="61.7655" gradientUnits="userSpaceOnUse">
<stop stop-color="#3D5C80"/>
<stop offset="0.06" stop-color="#496686"/>
<stop offset="0.18" stop-color="#688295"/>
<stop offset="0.33" stop-color="#9AAEAF"/>
<stop offset="0.41" stop-color="#B9C9BE"/>
<stop offset="0.77" stop-color="#B9C9BE"/>
<stop offset="1" stop-color="#7692AA"/>
</linearGradient>
<linearGradient id="paint10_linear_341_2276" x1="163.448" y1="67.5288" x2="175.344" y2="61.3673" gradientUnits="userSpaceOnUse">
<stop stop-color="#324380"/>
<stop offset="0.08" stop-color="#3E4F85"/>
<stop offset="0.22" stop-color="#5D6E94"/>
<stop offset="0.41" stop-color="#8F9FAB"/>
<stop offset="0.55" stop-color="#B9C9BE"/>
<stop offset="0.8" stop-color="#B9C9BE"/>
</linearGradient>
<linearGradient id="paint11_linear_341_2276" x1="166.673" y1="58.3585" x2="177.893" y2="74.4105" gradientUnits="userSpaceOnUse">
<stop stop-color="#3D5C80"/>
<stop offset="0.06" stop-color="#496686"/>
<stop offset="0.18" stop-color="#688295"/>
<stop offset="0.33" stop-color="#9AAEAF"/>
<stop offset="0.41" stop-color="#B9C9BE"/>
<stop offset="0.77" stop-color="#B9C9BE"/>
<stop offset="1" stop-color="#7692AA"/>
</linearGradient>
<linearGradient id="paint12_linear_341_2276" x1="166.94" y1="62.2489" x2="178.155" y2="78.2983" gradientUnits="userSpaceOnUse">
<stop stop-color="#3D5C80"/>
<stop offset="0.06" stop-color="#496686"/>
<stop offset="0.18" stop-color="#688295"/>
<stop offset="0.33" stop-color="#9AAEAF"/>
<stop offset="0.41" stop-color="#B9C9BE"/>
<stop offset="0.77" stop-color="#B9C9BE"/>
<stop offset="1" stop-color="#7692AA"/>
</linearGradient>
<linearGradient id="paint13_linear_341_2276" x1="163.472" y1="60.5947" x2="174.692" y2="76.6467" gradientUnits="userSpaceOnUse">
<stop stop-color="#3D5C80"/>
<stop offset="0.06" stop-color="#496686"/>
<stop offset="0.18" stop-color="#688295"/>
<stop offset="0.33" stop-color="#9AAEAF"/>
<stop offset="0.41" stop-color="#B9C9BE"/>
<stop offset="0.77" stop-color="#B9C9BE"/>
<stop offset="1" stop-color="#7692AA"/>
</linearGradient>
<linearGradient id="paint14_linear_341_2276" x1="46.7254" y1="93.6741" x2="48.8527" y2="94.6136" gradientUnits="userSpaceOnUse">
<stop stop-color="#3D5C80"/>
<stop offset="0.1" stop-color="#496686"/>
<stop offset="0.27" stop-color="#688295"/>
<stop offset="0.51" stop-color="#9AAEAF"/>
<stop offset="0.64" stop-color="#B9C9BE"/>
<stop offset="0.88" stop-color="#B9C9BE"/>
<stop offset="1" stop-color="#7692AA"/>
</linearGradient>
<linearGradient id="paint15_linear_341_2276" x1="59.0098" y1="98.1634" x2="24.1574" y2="94.3634" gradientUnits="userSpaceOnUse">
<stop stop-color="#3D5C80"/>
<stop offset="0.06" stop-color="#496686"/>
<stop offset="0.18" stop-color="#688295"/>
<stop offset="0.33" stop-color="#9AAEAF"/>
<stop offset="0.41" stop-color="#B9C9BE"/>
<stop offset="0.77" stop-color="#B9C9BE"/>
<stop offset="1" stop-color="#7692AA"/>
</linearGradient>
<linearGradient id="paint16_linear_341_2276" x1="49.7748" y1="102.815" x2="48.7365" y2="87.0948" gradientUnits="userSpaceOnUse">
<stop stop-color="#3D5C80"/>
<stop offset="0.06" stop-color="#496686"/>
<stop offset="0.18" stop-color="#688295"/>
<stop offset="0.33" stop-color="#9AAEAF"/>
<stop offset="0.41" stop-color="#B9C9BE"/>
<stop offset="0.77" stop-color="#B9C9BE"/>
<stop offset="1" stop-color="#7692AA"/>
</linearGradient>
<linearGradient id="paint17_linear_341_2276" x1="47.7004" y1="101.25" x2="47.8701" y2="87.8689" gradientUnits="userSpaceOnUse">
<stop stop-color="#324380"/>
<stop offset="0.08" stop-color="#3E4F85"/>
<stop offset="0.22" stop-color="#5D6E94"/>
<stop offset="0.41" stop-color="#8F9FAB"/>
<stop offset="0.55" stop-color="#B9C9BE"/>
<stop offset="0.8" stop-color="#B9C9BE"/>
</linearGradient>
<linearGradient id="paint18_linear_341_2276" x1="41.1165" y1="94.0829" x2="60.5783" y2="91.7269" gradientUnits="userSpaceOnUse">
<stop stop-color="#3D5C80"/>
<stop offset="0.06" stop-color="#496686"/>
<stop offset="0.18" stop-color="#688295"/>
<stop offset="0.33" stop-color="#9AAEAF"/>
<stop offset="0.41" stop-color="#B9C9BE"/>
<stop offset="0.77" stop-color="#B9C9BE"/>
<stop offset="1" stop-color="#7692AA"/>
</linearGradient>
<linearGradient id="paint19_linear_341_2276" x1="44.6823" y1="95.6834" x2="64.1364" y2="93.326" gradientUnits="userSpaceOnUse">
<stop stop-color="#3D5C80"/>
<stop offset="0.06" stop-color="#496686"/>
<stop offset="0.18" stop-color="#688295"/>
<stop offset="0.33" stop-color="#9AAEAF"/>
<stop offset="0.41" stop-color="#B9C9BE"/>
<stop offset="0.77" stop-color="#B9C9BE"/>
<stop offset="1" stop-color="#7692AA"/>
</linearGradient>
<linearGradient id="paint20_linear_341_2276" x1="41.5851" y1="97.9559" x2="61.0469" y2="95.6" gradientUnits="userSpaceOnUse">
<stop stop-color="#3D5C80"/>
<stop offset="0.06" stop-color="#496686"/>
<stop offset="0.18" stop-color="#688295"/>
<stop offset="0.33" stop-color="#9AAEAF"/>
<stop offset="0.41" stop-color="#B9C9BE"/>
<stop offset="0.77" stop-color="#B9C9BE"/>
<stop offset="1" stop-color="#7692AA"/>
</linearGradient>
<clipPath id="clip0_341_2276">
<rect width="329" height="242" fill="white"/>
</clipPath>
</defs>
</svg>
