<svg width="18" height="18" viewBox="0 0 18 18" fill="none" xmlns="http://www.w3.org/2000/svg">
<path d="M15.75 7.49963C15.8485 7.49966 15.946 7.48028 16.037 7.44259C16.128 7.40491 16.2107 7.34967 16.2804 7.28002C16.35 7.21037 16.4053 7.12768 16.443 7.03667C16.4806 6.94567 16.5 6.84813 16.5 6.74963V4.49963C16.5001 4.34226 16.4506 4.18887 16.3585 4.06122C16.2665 3.93356 16.1366 3.83813 15.9873 3.78845L9.23731 1.53845C9.08326 1.48718 8.91674 1.48718 8.76269 1.53845L2.01269 3.78845C1.86337 3.83813 1.73348 3.93356 1.64145 4.06122C1.54943 4.18887 1.49994 4.34226 1.5 4.49963V6.74963C1.49997 6.84813 1.51936 6.94567 1.55704 7.03667C1.59472 7.12768 1.64996 7.21037 1.71961 7.28002C1.78926 7.34967 1.87195 7.40491 1.96296 7.44259C2.05396 7.48028 2.1515 7.49966 2.25 7.49963H3V12.8878C2.56255 13.0419 2.18352 13.3276 1.91495 13.7057C1.64638 14.0839 1.50143 14.5358 1.5 14.9996V16.4996C1.49997 16.5981 1.51936 16.6957 1.55704 16.7867C1.59472 16.8777 1.64996 16.9604 1.71961 17.03C1.78926 17.0997 1.87195 17.1549 1.96296 17.1926C2.05396 17.2303 2.1515 17.2497 2.25 17.2496H15.75C15.8485 17.2497 15.946 17.2303 16.037 17.1926C16.128 17.1549 16.2107 17.0997 16.2804 17.03C16.35 16.9604 16.4053 16.8777 16.443 16.7867C16.4806 16.6957 16.5 16.5981 16.5 16.4996V14.9996C16.4986 14.5358 16.3536 14.0839 16.085 13.7057C15.8165 13.3276 15.4374 13.0419 15 12.8878V7.49963H15.75ZM15 15.7496H3V14.9996C3.0002 14.8008 3.07928 14.6101 3.21989 14.4695C3.3605 14.3289 3.55115 14.2498 3.75 14.2496H14.25C14.4489 14.2498 14.6395 14.3289 14.7801 14.4695C14.9207 14.6101 14.9998 14.8008 15 14.9996V15.7496ZM4.5 12.7496V7.49963H6V12.7496H4.5ZM7.5 12.7496V7.49963H10.5V12.7496H7.5ZM12 12.7496V7.49963H13.5V12.7496H12ZM3 5.99963V5.04016L9 3.03991L15 5.04016V5.99963H3Z" fill="#7976F9"/>
</svg>
