<svg width="20" height="20" viewBox="0 0 20 20" fill="none" xmlns="http://www.w3.org/2000/svg">
<g clip-path="url(#clip0_541_1163)">
<path d="M9.16665 7.49967H12.5C12.721 7.49967 12.933 7.41188 13.0892 7.2556C13.2455 7.09932 13.3333 6.88735 13.3333 6.66634C13.3333 6.44533 13.2455 6.23337 13.0892 6.07709C12.933 5.92081 12.721 5.83301 12.5 5.83301H10.8333V4.99967C10.8333 4.77866 10.7455 4.5667 10.5892 4.41042C10.433 4.25414 10.221 4.16634 9.99998 4.16634C9.77897 4.16634 9.56701 4.25414 9.41073 4.41042C9.25445 4.5667 9.16665 4.77866 9.16665 4.99967V5.83301C8.50361 5.83301 7.86772 6.0964 7.39888 6.56524C6.93004 7.03408 6.66665 7.66997 6.66665 8.33301C6.66665 8.99605 6.93004 9.63193 7.39888 10.1008C7.86772 10.5696 8.50361 10.833 9.16665 10.833H10.8333C11.0543 10.833 11.2663 10.9208 11.4226 11.0771C11.5789 11.2334 11.6666 11.4453 11.6666 11.6663C11.6666 11.8874 11.5789 12.0993 11.4226 12.2556C11.2663 12.4119 11.0543 12.4997 10.8333 12.4997H7.49998C7.27897 12.4997 7.06701 12.5875 6.91073 12.7438C6.75445 12.9 6.66665 13.112 6.66665 13.333C6.66665 13.554 6.75445 13.766 6.91073 13.9223C7.06701 14.0785 7.27897 14.1663 7.49998 14.1663H9.16665V14.9997C9.16665 15.2207 9.25445 15.4327 9.41073 15.5889C9.56701 15.7452 9.77897 15.833 9.99998 15.833C10.221 15.833 10.433 15.7452 10.5892 15.5889C10.7455 15.4327 10.8333 15.2207 10.8333 14.9997V14.1663C11.4964 14.1663 12.1322 13.9029 12.6011 13.4341C13.0699 12.9653 13.3333 12.3294 13.3333 11.6663C13.3333 11.0033 13.0699 10.3674 12.6011 9.89857C12.1322 9.42973 11.4964 9.16634 10.8333 9.16634H9.16665C8.94564 9.16634 8.73368 9.07854 8.57739 8.92226C8.42111 8.76598 8.33332 8.55402 8.33332 8.33301C8.33332 8.11199 8.42111 7.90003 8.57739 7.74375C8.73368 7.58747 8.94564 7.49967 9.16665 7.49967ZM9.99998 0.833008C8.18699 0.833008 6.41471 1.37062 4.90726 2.37787C3.39981 3.38512 2.22489 4.81675 1.53109 6.49174C0.837285 8.16673 0.655754 10.0098 1.00945 11.788C1.36315 13.5662 2.23619 15.1995 3.51817 16.4815C4.80015 17.7635 6.4335 18.6365 8.21166 18.9902C9.98981 19.3439 11.8329 19.1624 13.5079 18.4686C15.1829 17.7748 16.6145 16.5999 17.6218 15.0924C18.629 13.585 19.1667 11.8127 19.1667 9.99967C19.1667 7.56852 18.2009 5.23695 16.4818 3.51786C14.7627 1.79878 12.4311 0.833008 9.99998 0.833008ZM9.99998 17.4997C8.51662 17.4997 7.06658 17.0598 5.83321 16.2357C4.59984 15.4116 3.63854 14.2402 3.07089 12.8698C2.50323 11.4994 2.3547 9.99135 2.64409 8.5365C2.93348 7.08164 3.64779 5.74527 4.69668 4.69637C5.74558 3.64748 7.08195 2.93317 8.53681 2.64378C9.99166 2.3544 11.4997 2.50292 12.8701 3.07058C14.2406 3.63824 15.4119 4.59953 16.236 5.8329C17.0601 7.06627 17.5 8.51631 17.5 9.99967C17.5 11.9888 16.7098 13.8965 15.3033 15.303C13.8968 16.7095 11.9891 17.4997 9.99998 17.4997Z" fill="#4B935B"/>
</g>
<defs>
<clipPath id="clip0_541_1163">
<rect width="20" height="20" fill="white"/>
</clipPath>
</defs>
</svg>
