<svg width="24" height="24" viewBox="0 0 24 24" fill="none" xmlns="http://www.w3.org/2000/svg">
<g clip-path="url(#clip0_356_586)">
<path d="M12 2.5C10.1211 2.5 8.28435 3.0572 6.72208 4.10107C5.15981 5.14495 3.94218 6.6286 3.22315 8.3645C2.50412 10.1004 2.31598 12.0105 2.68254 13.8533C3.0491 15.6961 3.95389 17.3889 5.28249 18.7175C6.61109 20.0461 8.30382 20.9508 10.1466 21.3174C11.9895 21.6839 13.8996 21.4959 15.6355 20.7769C17.3714 20.0578 18.8551 18.8401 19.899 17.2778C20.9428 15.7156 21.5 13.8789 21.5 12C21.4976 9.48117 20.496 7.06624 18.7149 5.28516C16.9338 3.50408 14.5188 2.50238 12 2.5ZM7.5 13.25C7.25278 13.25 7.01111 13.1767 6.80555 13.0393C6.59998 12.902 6.43977 12.7067 6.34516 12.4783C6.25055 12.2499 6.22579 11.9986 6.27402 11.7561C6.32225 11.5136 6.44131 11.291 6.61612 11.1162C6.79094 10.9414 7.01366 10.8222 7.25614 10.7739C7.49861 10.7257 7.74994 10.7506 7.97835 10.8452C8.20676 10.9398 8.40199 11.0999 8.53934 11.3054C8.67669 11.511 8.75 11.7528 8.75 12C8.75 12.3315 8.6183 12.6494 8.38388 12.8838C8.14946 13.1182 7.83152 13.25 7.5 13.25ZM12 13.25C11.7528 13.25 11.5111 13.1767 11.3055 13.0393C11.1 12.902 10.9398 12.7067 10.8452 12.4783C10.7505 12.2499 10.7258 11.9986 10.774 11.7561C10.8223 11.5136 10.9413 11.291 11.1161 11.1162C11.2909 10.9414 11.5137 10.8222 11.7561 10.7739C11.9986 10.7257 12.2499 10.7506 12.4784 10.8452C12.7068 10.9398 12.902 11.0999 13.0393 11.3054C13.1767 11.511 13.25 11.7528 13.25 12C13.25 12.3315 13.1183 12.6494 12.8839 12.8838C12.6495 13.1182 12.3315 13.25 12 13.25ZM16.5 13.25C16.2528 13.25 16.0111 13.1767 15.8055 13.0393C15.6 12.902 15.4398 12.7067 15.3452 12.4783C15.2505 12.2499 15.2258 11.9986 15.274 11.7561C15.3223 11.5136 15.4413 11.291 15.6161 11.1162C15.7909 10.9414 16.0137 10.8222 16.2561 10.7739C16.4986 10.7257 16.7499 10.7506 16.9784 10.8452C17.2068 10.9398 17.402 11.0999 17.5393 11.3054C17.6767 11.511 17.75 11.7528 17.75 12C17.75 12.3315 17.6183 12.6494 17.3839 12.8838C17.1495 13.1182 16.8315 13.25 16.5 13.25Z" fill="#1F2937" fill-opacity="0.8"/>
</g>
<defs>
<clipPath id="clip0_356_586">
<rect width="24" height="24" fill="white"/>
</clipPath>
</defs>
</svg>
