<svg width="20" height="20" viewBox="0 0 20 20" fill="none" xmlns="http://www.w3.org/2000/svg">
<g clip-path="url(#clip0_541_1150)">
<path d="M10 19.9997C7.69292 19.9984 5.45719 19.1996 3.6716 17.7386C1.88601 16.2777 0.660353 14.2444 0.202273 11.9832C-0.255807 9.72203 0.0818569 7.37202 1.15806 5.3313C2.23426 3.29058 3.98283 1.68463 6.10753 0.785524C8.55128 -0.246831 11.305 -0.266128 13.763 0.731878C16.221 1.72988 18.1818 3.66344 19.2142 6.10719C20.2465 8.55094 20.2658 11.3047 19.2678 13.7627C18.2698 16.2207 16.3363 18.1815 13.8925 19.2139C12.6611 19.735 11.3372 20.0023 10 19.9997ZM7.74711 5.67427C7.72187 5.6741 7.69742 5.68314 7.67836 5.69969C7.65916 5.71614 7.64646 5.73889 7.64253 5.76386L6.35378 13.9347H8.20836H8.25253L8.19878 14.2751L8.06586 15.1197C8.06056 15.1532 8.06258 15.1874 8.07179 15.22C8.081 15.2527 8.09716 15.2829 8.11918 15.3087C8.1412 15.3345 8.16855 15.3552 8.19934 15.3694C8.23012 15.3836 8.26363 15.3909 8.29753 15.3909H9.92461C10.0179 15.3913 10.1082 15.3581 10.1791 15.2976C10.25 15.2371 10.2969 15.1531 10.3113 15.0609L10.3275 14.9776L10.6338 13.0334L10.6534 12.9264C10.6675 12.8341 10.7144 12.75 10.7853 12.6893C10.8563 12.6287 10.9467 12.5956 11.04 12.5959H11.2834C12.0048 12.6293 12.7186 12.4365 13.325 12.0443C13.9415 11.5705 14.3472 10.8735 14.4546 10.1034C14.6138 9.28761 14.5038 8.65719 14.1288 8.22844C14.0023 8.08801 13.8514 7.97169 13.6834 7.88511C13.6717 7.95802 13.6617 8.01469 13.6517 8.06844C13.6417 8.12219 13.6304 8.17386 13.6154 8.24011C13.5838 8.22011 13.5517 8.20177 13.5175 8.18386L13.3425 8.08469V7.85927L13.3467 7.83386C13.4024 7.54253 13.4016 7.2432 13.3442 6.95219C13.2859 6.71396 13.1687 6.49419 13.0034 6.31302C12.6284 5.88677 11.9134 5.67052 10.875 5.67052L7.74711 5.67427Z" fill="#207FA7"/>
<path d="M13.2517 7.71736C13.1886 7.69903 13.1238 7.68236 13.0571 7.66736C12.9904 7.65236 12.921 7.63931 12.8488 7.62819C12.5823 7.58733 12.3129 7.56769 12.0433 7.56944H9.59083C9.49757 7.56943 9.40737 7.60277 9.33654 7.66344C9.26571 7.72412 9.2189 7.80812 9.20458 7.90028L8.68333 11.2019L8.66833 11.2986C8.68456 11.1935 8.73789 11.0976 8.81867 11.0283C8.89945 10.9591 9.00235 10.9211 9.10875 10.9211H10.0254C11.8271 10.9211 13.2379 10.1894 13.6504 8.07278C13.6629 8.01028 13.6729 7.94778 13.6825 7.88944C13.5736 7.83241 13.4602 7.7846 13.3433 7.74653C13.3138 7.73611 13.2825 7.72694 13.2517 7.71736Z" fill="#207FA7"/>
</g>
<defs>
<clipPath id="clip0_541_1150">
<rect width="20" height="20" fill="white"/>
</clipPath>
</defs>
</svg>
