<svg width="35" height="35" viewBox="0 0 35 35" fill="none" xmlns="http://www.w3.org/2000/svg">
<rect width="35" height="35" rx="8" fill="#207FA7" fill-opacity="0.8"/>
<path d="M17.4401 8C14.8764 8.00731 12.4135 8.99891 10.5601 10.77V9C10.5601 8.73478 10.4547 8.48043 10.2672 8.29289C10.0796 8.10536 9.82528 8 9.56006 8C9.29484 8 9.04049 8.10536 8.85295 8.29289C8.66542 8.48043 8.56006 8.73478 8.56006 9V13.5C8.56006 13.7652 8.66542 14.0196 8.85295 14.2071C9.04049 14.3946 9.29484 14.5 9.56006 14.5H14.0601C14.3253 14.5 14.5796 14.3946 14.7672 14.2071C14.9547 14.0196 15.0601 13.7652 15.0601 13.5C15.0601 13.2348 14.9547 12.9804 14.7672 12.7929C14.5796 12.6054 14.3253 12.5 14.0601 12.5H11.6601C12.5718 11.537 13.7086 10.8158 14.9682 10.4011C16.2278 9.98651 17.5707 9.89152 18.8762 10.1247C20.1816 10.3579 21.4086 10.9119 22.4468 11.737C23.485 12.5621 24.3018 13.6323 24.8238 14.8513C25.3457 16.0704 25.5564 17.4001 25.4369 18.7208C25.3175 20.0415 24.8716 21.3118 24.1393 22.4174C23.4071 23.5231 22.4115 24.4293 21.2421 25.0547C20.0727 25.68 18.7662 26.0049 17.4401 26C17.1748 26 16.9205 26.1054 16.733 26.2929C16.5454 26.4804 16.4401 26.7348 16.4401 27C16.4401 27.2652 16.5454 27.5196 16.733 27.7071C16.9205 27.8946 17.1748 28 17.4401 28C20.0922 28 22.6358 26.9464 24.5111 25.0711C26.3865 23.1957 27.4401 20.6522 27.4401 18C27.4401 15.3478 26.3865 12.8043 24.5111 10.9289C22.6358 9.05357 20.0922 8 17.4401 8ZM17.4401 14C17.1748 14 16.9205 14.1054 16.733 14.2929C16.5454 14.4804 16.4401 14.7348 16.4401 15V18C16.4401 18.2652 16.5454 18.5196 16.733 18.7071C16.9205 18.8946 17.1748 19 17.4401 19H19.4401C19.7053 19 19.9596 18.8946 20.1472 18.7071C20.3347 18.5196 20.4401 18.2652 20.4401 18C20.4401 17.7348 20.3347 17.4804 20.1472 17.2929C19.9596 17.1054 19.7053 17 19.4401 17H18.4401V15C18.4401 14.7348 18.3347 14.4804 18.1472 14.2929C17.9596 14.1054 17.7053 14 17.4401 14Z" fill="white"/>
</svg>
