<svg width="20" height="20" viewBox="0 0 20 20" fill="none" xmlns="http://www.w3.org/2000/svg">
<path fill-rule="evenodd" clip-rule="evenodd" d="M9.58329 2.41699C5.62525 2.41699 2.41663 5.62562 2.41663 9.58366C2.41663 13.5417 5.62525 16.7503 9.58329 16.7503C13.5413 16.7503 16.75 13.5417 16.75 9.58366C16.75 5.62562 13.5413 2.41699 9.58329 2.41699ZM0.916626 9.58366C0.916626 4.79719 4.79682 0.916992 9.58329 0.916992C14.3698 0.916992 18.25 4.79719 18.25 9.58366C18.25 14.3701 14.3698 18.2503 9.58329 18.2503C4.79682 18.2503 0.916626 14.3701 0.916626 9.58366Z" fill="#ABABAB"/>
<path fill-rule="evenodd" clip-rule="evenodd" d="M16.1363 16.1367C16.4292 15.8438 16.9041 15.8438 17.197 16.1367L18.8636 17.8033C19.1565 18.0962 19.1565 18.5711 18.8636 18.864C18.5707 19.1569 18.0959 19.1569 17.803 18.864L16.1363 17.1973C15.8434 16.9044 15.8434 16.4296 16.1363 16.1367Z" fill="#ABABAB"/>
</svg>
