<svg width="7" height="12" viewBox="0 0 7 12" fill="none" xmlns="http://www.w3.org/2000/svg">
<path fill-rule="evenodd" clip-rule="evenodd" d="M3.50008 12C3.32088 12 3.14169 11.9347 3.00519 11.8047L0.205269 9.13812C-0.0684231 8.87746 -0.0684231 8.45615 0.205269 8.19549C0.478962 7.93484 0.92135 7.93484 1.19504 8.19549L3.50848 10.3987L5.81352 8.27882C6.09281 8.0235 6.5345 8.03083 6.80329 8.29549C7.07208 8.56014 7.06438 8.98279 6.78649 9.23812L3.98657 11.8127C3.85007 11.938 3.67508 12 3.50008 12" fill="#207FA7"/>
<path fill-rule="evenodd" clip-rule="evenodd" d="M3.50008 -3.28013e-08C3.32088 -3.28013e-08 3.14169 0.0653304 3.00519 0.195325L0.205269 2.86188C-0.0684231 3.12254 -0.0684231 3.54385 0.205269 3.80451C0.478962 4.06516 0.92135 4.06516 1.19504 3.80451L3.50848 1.60127L5.81352 3.72118C6.09281 3.9765 6.5345 3.96917 6.80329 3.70451C7.07208 3.43986 7.06438 3.01721 6.78649 2.76188L3.98657 0.187325C3.85007 0.0619972 3.67508 -3.28013e-08 3.50008 -3.28013e-08" fill="#ABABAB"/>
</svg>
