<svg width="24" height="24" viewBox="0 0 24 24" fill="none" xmlns="http://www.w3.org/2000/svg">
<g clip-path="url(#clip0_226_1425)">
<path d="M21.0001 18.14V18.65C21.0016 19.3848 20.751 20.0979 20.29 20.67C20.1999 20.7777 20.0864 20.8636 19.9582 20.9208C19.83 20.978 19.6904 21.005 19.55 21.0001H16.8701C17.2827 20.2857 17.5 19.4751 17.5001 18.65V18.14C17.5045 16.747 16.9954 15.4015 16.0701 14.3602C16.1361 14.3363 16.1997 14.3061 16.2601 14.2701C16.7385 14.0057 17.2989 13.9308 17.8301 14.0602C18.7376 14.2897 19.5423 14.8159 20.1166 15.5551C20.691 16.2942 21.0019 17.2039 21.0001 18.14ZM14.0001 4.00013C13.6872 3.99765 13.3752 4.0313 13.0701 4.10023C13.6786 4.66029 14.1643 5.34044 14.4965 6.09778C14.8288 6.85513 15.0003 7.67311 15.0003 8.50013C15.0003 9.32715 14.8288 10.1451 14.4965 10.9025C14.1643 11.6598 13.6786 12.34 13.0701 12.9C13.3752 12.969 13.6872 13.0026 14.0001 13.0001C15.1935 13.0001 16.3381 12.5259 17.1821 11.682C18.026 10.8381 18.5001 9.6936 18.5001 8.50013C18.5001 7.30665 18.026 6.16216 17.1821 5.31824C16.3381 4.47433 15.1935 4.00013 14.0001 4.00013ZM9.00006 4.00013C8.11004 4.00013 7.24002 4.26396 6.5 4.75843C5.75997 5.2529 5.18318 5.95569 4.84259 6.77796C4.50199 7.60023 4.41291 8.50514 4.58654 9.37806C4.76018 10.251 5.18871 11.0527 5.81805 11.682C6.44739 12.3113 7.24921 12.7401 8.12213 12.9137C8.99504 13.0873 9.89983 12.9982 10.7221 12.6576C11.5444 12.317 12.2472 11.7401 12.7417 11.0001C13.2362 10.2601 13.5001 9.39014 13.5001 8.50013C13.4982 7.30722 13.0235 6.16371 12.18 5.3202C11.3365 4.47668 10.193 4.00198 9.00006 4.00013ZM12.8301 14.0602C12.6562 14.0205 12.4784 14.0003 12.3 14.0001C11.9356 13.997 11.5769 14.0901 11.2601 14.2701C10.5689 14.6426 9.7964 14.8385 9.01129 14.8402C8.22617 14.842 7.45284 14.6496 6.76007 14.2802C6.43228 14.0992 6.06448 14.0029 5.69006 14.0001C5.53544 14.0014 5.38131 14.0182 5.23004 14.0502C4.30777 14.2648 3.48586 14.7865 2.89898 15.5297C2.31211 16.2728 1.99513 17.1931 2.00006 18.14V18.65C1.99849 19.3848 2.24913 20.0979 2.71008 20.67C2.8002 20.7777 2.91369 20.8636 3.04193 20.9208C3.17016 20.978 3.30975 21.005 3.45007 21.0001H14.55C14.6904 21.005 14.83 20.978 14.9582 20.9208C15.0864 20.8636 15.1999 20.7777 15.29 20.67C15.751 20.0979 16.0016 19.3848 16.0001 18.65V18.14C16.0019 17.2039 15.691 16.2942 15.1166 15.5551C14.5423 14.8159 13.7376 14.2897 12.8301 14.0602Z" fill="#207FA7"/>
</g>
<defs>
<clipPath id="clip0_226_1425">
<rect width="24" height="24" fill="white"/>
</clipPath>
</defs>
</svg>
