<svg xmlns="http://www.w3.org/2000/svg" width="20" height="20" viewBox="0 0 20 20" fill="none">
<g clip-path="url(#clip0_341_2751)">
<path d="M18.3337 4.99984C18.3337 5.22085 18.2458 5.43275 18.0896 5.58903C17.9333 5.74531 17.7213 5.83317 17.5003 5.83317H2.50033C2.27931 5.83317 2.06736 5.74531 1.91108 5.58903C1.7548 5.43275 1.66699 5.22085 1.66699 4.99984C1.66699 4.77883 1.7548 4.56693 1.91108 4.41065C2.06736 4.25437 2.27931 4.16651 2.50033 4.16651H5.46618C5.64115 4.16655 5.81165 4.11155 5.95359 4.00924C6.09554 3.90693 6.2017 3.76244 6.25699 3.59644L6.5203 2.80644C6.63098 2.47416 6.84354 2.18527 7.12776 1.98063C7.41198 1.77599 7.75343 1.66607 8.10366 1.66651H11.9028C12.253 1.66601 12.5943 1.77575 12.8785 1.98023C13.1627 2.18471 13.3753 2.4735 13.4861 2.80563L13.7495 3.59725C13.8049 3.7631 13.9111 3.9075 14.0531 4.00965C14.195 4.11179 14.3655 4.16661 14.5403 4.16651H17.5003C17.7213 4.16651 17.9333 4.25437 18.0896 4.41065C18.2458 4.56693 18.3337 4.77883 18.3337 4.99984ZM16.0836 7.52486L15.5753 15.1915C15.5224 15.9298 15.1924 16.6208 14.6516 17.1261C14.1107 17.6314 13.3989 17.9138 12.6587 17.9165H7.34199C6.60308 17.9141 5.89228 17.633 5.35158 17.1294C4.81088 16.6257 4.48009 15.9367 4.42532 15.1998L3.917 7.52486C3.91391 7.46887 3.92186 7.41277 3.94045 7.35987C3.95904 7.30696 3.98791 7.25819 4.02534 7.21643C4.06536 7.17492 4.1132 7.14187 4.16613 7.11898C4.21905 7.09609 4.27601 7.08389 4.33367 7.08317H15.667C15.7246 7.08394 15.7816 7.0961 15.8345 7.11898C15.8874 7.14186 15.9353 7.17495 15.9753 7.21643C16.0128 7.25816 16.0417 7.30695 16.0603 7.35987C16.0788 7.41278 16.0868 7.46887 16.0836 7.52486ZM9.16699 9.99984C9.16699 9.77883 9.07918 9.56693 8.9229 9.41065C8.76662 9.25437 8.55467 9.16651 8.33366 9.16651C8.11265 9.16651 7.9007 9.25437 7.74442 9.41065C7.58813 9.56693 7.50033 9.77883 7.50033 9.99984V14.1665C7.50033 14.3875 7.58813 14.5994 7.74442 14.7557C7.9007 14.912 8.11265 14.9998 8.33366 14.9998C8.55467 14.9998 8.76662 14.912 8.9229 14.7557C9.07918 14.5994 9.16699 14.3875 9.16699 14.1665V9.99984ZM12.5003 9.99984C12.5003 9.77883 12.4125 9.56693 12.2562 9.41065C12.1 9.25437 11.888 9.16651 11.667 9.16651C11.446 9.16651 11.234 9.25437 11.0777 9.41065C10.9215 9.56693 10.8337 9.77883 10.8337 9.99984V14.1665C10.8337 14.3875 10.9215 14.5994 11.0777 14.7557C11.234 14.912 11.446 14.9998 11.667 14.9998C11.888 14.9998 12.1 14.912 12.2562 14.7557C12.4125 14.5994 12.5003 14.3875 12.5003 14.1665V9.99984Z" fill="white"/>
</g>
<defs>
<clipPath id="clip0_341_2751">
<rect width="20" height="20" fill="white"/>
</clipPath>
</defs>
</svg>