<svg width="582" height="84" viewBox="0 0 582 84" fill="none" xmlns="http://www.w3.org/2000/svg">
<path d="M43 44.4536C38.148 44.459 33.3755 43.2192 29.1383 40.8525L6.28781 28.0447L11.0365 19.552L33.887 32.3597C36.676 33.9101 39.8135 34.7237 43.0036 34.7237C46.1937 34.7237 49.3312 33.9101 52.1202 32.3597L74.9706 19.552L79.7194 28.0447L56.8618 40.8525C52.6245 43.2191 47.8521 44.459 43 44.4536V44.4536Z" fill="url(#paint0_linear_1_5)"/>
<path d="M47.8588 78.6149H38.1412V56.8579C38.1406 53.5354 37.2559 50.2731 35.5781 47.4064C33.9003 44.5398 31.49 42.1724 28.5952 40.5478L8.27417 29.1678L13.0243 20.6794L33.3382 32.0665C37.7392 34.5359 41.404 38.1341 43.9559 42.4911C46.5079 46.8482 47.855 51.807 47.8588 56.8579V78.6149Z" fill="url(#paint1_linear_1_5)"/>
<path d="M47.8588 78.6149H38.1413V56.8579C38.1441 51.8064 39.4907 46.8468 42.0424 42.4889C44.5942 38.1311 48.2591 34.5322 52.6604 32.0622L72.9685 20.6794L77.7173 29.1721L57.4034 40.5592C54.5086 42.1839 52.0983 44.5513 50.4205 47.4179C48.7427 50.2845 47.858 53.5469 47.8573 56.8694L47.8588 78.6149Z" fill="url(#paint2_linear_1_5)"/>
<path d="M86 40.4305C86 64.1733 66.7036 83.4879 43 83.4879C19.2964 83.4879 0 64.1732 0 40.4362C0 26.0432 6.9809 13.0151 18.3861 5.11467C21.1654 3.17905 24.1627 1.57801 27.3162 0.34466C27.9105 0.111211 28.545 -0.00269201 29.1833 0.00946383C29.8216 0.0216197 30.4512 0.159596 31.0362 0.415504C31.6212 0.671413 32.1501 1.04024 32.5927 1.5009C33.0352 1.96156 33.3828 2.50502 33.6154 3.10022C33.7427 3.41983 33.8352 3.75225 33.8913 4.09171C34.0705 5.19084 33.8676 6.31826 33.3165 7.28565C32.7653 8.25303 31.8993 9.00178 30.8631 9.40682C27.7447 10.6254 24.8254 12.303 22.2017 14.3843C14.4091 20.585 9.71608 30.0464 9.71608 40.4319C9.71608 58.8009 24.6453 73.7462 43 73.7462C61.3547 73.7462 76.2753 58.8009 76.2753 40.4319C76.2753 30.0464 71.5824 20.585 63.7983 14.3929C61.1742 12.3042 58.2516 10.622 55.1283 9.40253C54.0911 8.99828 53.2246 8.24868 52.6747 7.27987C52.1247 6.31105 51.9249 5.18215 52.1087 4.08312C52.1585 3.74324 52.2482 3.41043 52.376 3.09164C52.6086 2.49643 52.9562 1.95297 53.3987 1.49231C53.8413 1.03165 54.3702 0.662829 54.9552 0.40692C55.5402 0.151012 56.1699 0.0130357 56.8082 0.00087988C57.4465 -0.011276 58.0809 0.102626 58.6752 0.336075C61.8183 1.56542 64.8068 3.15913 67.5796 5.08463C79.012 12.985 86 26.0217 86 40.4305Z" fill="url(#paint3_linear_1_5)"/>
<path d="M42.9972 30.4125C46.5251 30.4125 49.385 27.5492 49.385 24.0172C49.385 20.4851 46.5251 17.6219 42.9972 17.6219C39.4692 17.6219 36.6093 20.4851 36.6093 24.0172C36.6093 27.5492 39.4692 30.4125 42.9972 30.4125Z" fill="url(#paint4_linear_1_5)"/>
<path d="M60.2972 58.1027C63.8251 58.1027 66.685 55.2394 66.685 51.7074C66.685 48.1754 63.8251 45.3121 60.2972 45.3121C56.7693 45.3121 53.9093 48.1754 53.9093 51.7074C53.9093 55.2394 56.7693 58.1027 60.2972 58.1027Z" fill="url(#paint5_linear_1_5)"/>
<path d="M25.3856 58.1027C28.9135 58.1027 31.7734 55.2394 31.7734 51.7074C31.7734 48.1754 28.9135 45.3121 25.3856 45.3121C21.8577 45.3121 18.9977 48.1754 18.9977 51.7074C18.9977 55.2394 21.8577 58.1027 25.3856 58.1027Z" fill="url(#paint6_linear_1_5)"/>
<path d="M142.808 40.896H132.152C132.28 42.3467 132.717 43.424 133.464 44.128C134.211 44.832 135.277 45.184 136.664 45.184C138.392 45.184 139.971 44.6293 141.4 43.52L142.552 46.272C141.827 46.8693 140.909 47.3493 139.8 47.712C138.712 48.0747 137.613 48.256 136.504 48.256C133.944 48.256 131.917 47.5307 130.424 46.08C128.952 44.6293 128.216 42.6453 128.216 40.128C128.216 38.528 128.536 37.1093 129.176 35.872C129.816 34.6347 130.712 33.6747 131.864 32.992C133.037 32.3093 134.36 31.968 135.832 31.968C137.987 31.968 139.683 32.6613 140.92 34.048C142.179 35.4347 142.808 37.344 142.808 39.776V40.896ZM135.928 34.784C134.861 34.784 133.997 35.1253 133.336 35.808C132.696 36.4907 132.301 37.472 132.152 38.752H139.384C139.341 37.4507 139.021 36.4693 138.424 35.808C137.827 35.1253 136.995 34.784 135.928 34.784ZM156.672 48.288C154.453 48.288 152.512 47.8187 150.848 46.88C149.205 45.92 147.936 44.5653 147.04 42.816C146.165 41.0667 145.728 39.0293 145.728 36.704C145.728 34.3787 146.165 32.352 147.04 30.624C147.936 28.8747 149.205 27.5307 150.848 26.592C152.512 25.632 154.453 25.152 156.672 25.152C158.187 25.152 159.616 25.3867 160.96 25.856C162.304 26.3253 163.435 26.9867 164.352 27.84L162.976 30.848C161.952 30.0373 160.939 29.4507 159.936 29.088C158.933 28.704 157.867 28.512 156.736 28.512C154.56 28.512 152.875 29.216 151.68 30.624C150.507 32.032 149.92 34.0587 149.92 36.704C149.92 39.3707 150.507 41.408 151.68 42.816C152.875 44.224 154.56 44.928 156.736 44.928C157.867 44.928 158.933 44.7467 159.936 44.384C160.939 44 161.952 43.4027 162.976 42.592L164.352 45.6C163.435 46.4533 162.304 47.1147 160.96 47.584C159.616 48.0533 158.187 48.288 156.672 48.288ZM184.961 48L182.689 42.72H171.713L169.441 48H165.281L175.489 25.44H178.849L189.057 48H184.961ZM173.057 39.52H181.313L177.185 29.92L173.057 39.52ZM218.935 25.44H222.167V48H218.519V33.088L212.567 44.352H209.815L203.831 33.248L203.863 48H200.215V25.44H203.479L211.223 40.192L218.935 25.44ZM233.425 31.968C235.622 31.968 237.254 32.5013 238.321 33.568C239.388 34.6347 239.921 36.2773 239.921 38.496V48H236.113V45.6C235.75 46.432 235.174 47.0827 234.385 47.552C233.617 48.0213 232.721 48.256 231.697 48.256C230.652 48.256 229.702 48.0427 228.849 47.616C227.996 47.1893 227.324 46.6027 226.833 45.856C226.342 45.1093 226.097 44.2773 226.097 43.36C226.097 42.208 226.385 41.3013 226.961 40.64C227.558 39.9787 228.518 39.4987 229.841 39.2C231.164 38.9013 232.988 38.752 235.313 38.752H236.113V38.016C236.113 36.9493 235.878 36.1813 235.409 35.712C234.961 35.2427 234.204 35.008 233.137 35.008C232.305 35.008 231.43 35.1573 230.513 35.456C229.617 35.7333 228.732 36.128 227.857 36.64L226.737 33.888C227.612 33.3333 228.668 32.8747 229.905 32.512C231.142 32.1493 232.316 31.968 233.425 31.968ZM232.497 45.376C233.564 45.376 234.428 45.024 235.089 44.32C235.772 43.5947 236.113 42.6667 236.113 41.536V40.864H235.537C234.108 40.864 232.998 40.928 232.209 41.056C231.42 41.184 230.854 41.408 230.513 41.728C230.172 42.048 230.001 42.4853 230.001 43.04C230.001 43.7227 230.236 44.288 230.705 44.736C231.174 45.1627 231.772 45.376 232.497 45.376ZM253.074 31.968C254.952 31.968 256.349 32.5013 257.266 33.568C258.184 34.6347 258.642 36.2453 258.642 38.4V48H254.642V38.624C254.642 37.408 254.408 36.5227 253.938 35.968C253.49 35.4133 252.776 35.136 251.794 35.136C250.642 35.136 249.714 35.4987 249.01 36.224C248.328 36.9493 247.986 37.92 247.986 39.136V48H243.986V32.352H247.89V34.688C248.424 33.8133 249.138 33.1413 250.034 32.672C250.93 32.2027 251.944 31.968 253.074 31.968ZM269.425 31.968C271.622 31.968 273.254 32.5013 274.321 33.568C275.388 34.6347 275.921 36.2773 275.921 38.496V48H272.113V45.6C271.75 46.432 271.174 47.0827 270.385 47.552C269.617 48.0213 268.721 48.256 267.697 48.256C266.652 48.256 265.702 48.0427 264.849 47.616C263.996 47.1893 263.324 46.6027 262.833 45.856C262.342 45.1093 262.097 44.2773 262.097 43.36C262.097 42.208 262.385 41.3013 262.961 40.64C263.558 39.9787 264.518 39.4987 265.841 39.2C267.164 38.9013 268.988 38.752 271.313 38.752H272.113V38.016C272.113 36.9493 271.878 36.1813 271.409 35.712C270.961 35.2427 270.204 35.008 269.137 35.008C268.305 35.008 267.43 35.1573 266.513 35.456C265.617 35.7333 264.732 36.128 263.857 36.64L262.737 33.888C263.612 33.3333 264.668 32.8747 265.905 32.512C267.142 32.1493 268.316 31.968 269.425 31.968ZM268.497 45.376C269.564 45.376 270.428 45.024 271.089 44.32C271.772 43.5947 272.113 42.6667 272.113 41.536V40.864H271.537C270.108 40.864 268.998 40.928 268.209 41.056C267.42 41.184 266.854 41.408 266.513 41.728C266.172 42.048 266.001 42.4853 266.001 43.04C266.001 43.7227 266.236 44.288 266.705 44.736C267.174 45.1627 267.772 45.376 268.497 45.376ZM295.218 32.352V46.56C295.218 49.0133 294.536 50.8693 293.17 52.128C291.826 53.3867 289.832 54.016 287.186 54.016C285.821 54.016 284.509 53.8347 283.25 53.472C281.992 53.1307 280.893 52.64 279.954 52L281.074 49.184C283.016 50.3573 285.021 50.944 287.09 50.944C289.864 50.944 291.25 49.5787 291.25 46.848V44.8C290.781 45.6747 290.098 46.3573 289.202 46.848C288.306 47.3173 287.282 47.552 286.13 47.552C284.765 47.552 283.549 47.232 282.482 46.592C281.437 45.9307 280.616 45.0133 280.018 43.84C279.421 42.6667 279.122 41.312 279.122 39.776C279.122 38.24 279.41 36.8853 279.986 35.712C280.584 34.5173 281.416 33.6 282.482 32.96C283.549 32.2987 284.765 31.968 286.13 31.968C287.282 31.968 288.306 32.2133 289.202 32.704C290.098 33.1733 290.781 33.8453 291.25 34.72V32.352H295.218ZM287.186 44.448C288.466 44.448 289.458 44.032 290.162 43.2C290.888 42.368 291.25 41.2267 291.25 39.776C291.25 38.304 290.888 37.152 290.162 36.32C289.458 35.488 288.466 35.072 287.186 35.072C285.928 35.072 284.936 35.488 284.21 36.32C283.485 37.152 283.122 38.304 283.122 39.776C283.122 41.2053 283.485 42.3467 284.21 43.2C284.936 44.032 285.928 44.448 287.186 44.448ZM313.089 40.896H302.433C302.561 42.3467 302.999 43.424 303.745 44.128C304.492 44.832 305.559 45.184 306.945 45.184C308.673 45.184 310.252 44.6293 311.681 43.52L312.833 46.272C312.108 46.8693 311.191 47.3493 310.081 47.712C308.993 48.0747 307.895 48.256 306.785 48.256C304.225 48.256 302.199 47.5307 300.705 46.08C299.233 44.6293 298.497 42.6453 298.497 40.128C298.497 38.528 298.817 37.1093 299.457 35.872C300.097 34.6347 300.993 33.6747 302.145 32.992C303.319 32.3093 304.641 31.968 306.113 31.968C308.268 31.968 309.964 32.6613 311.201 34.048C312.46 35.4347 313.089 37.344 313.089 39.776V40.896ZM306.209 34.784C305.143 34.784 304.279 35.1253 303.617 35.808C302.977 36.4907 302.583 37.472 302.433 38.752H309.665C309.623 37.4507 309.303 36.4693 308.705 35.808C308.108 35.1253 307.276 34.784 306.209 34.784ZM334.953 31.968C336.724 31.968 338.047 32.5013 338.921 33.568C339.796 34.6133 340.233 36.224 340.233 38.4V48H336.233V38.56C336.233 37.3653 336.031 36.5013 335.625 35.968C335.22 35.4133 334.569 35.136 333.673 35.136C332.607 35.136 331.775 35.4987 331.177 36.224C330.58 36.9493 330.281 37.9627 330.281 39.264V48H326.281V38.56C326.281 37.3653 326.079 36.5013 325.673 35.968C325.289 35.4133 324.639 35.136 323.721 35.136C322.676 35.136 321.855 35.4987 321.257 36.224C320.66 36.9493 320.361 37.9627 320.361 39.264V48H316.361V32.352H320.265V34.56C320.735 33.7067 321.385 33.0667 322.217 32.64C323.049 32.192 323.999 31.968 325.065 31.968C327.433 31.968 329.001 32.9493 329.769 34.912C330.26 33.9947 330.964 33.28 331.881 32.768C332.799 32.2347 333.823 31.968 334.953 31.968ZM358.027 40.896H347.371C347.499 42.3467 347.936 43.424 348.683 44.128C349.429 44.832 350.496 45.184 351.883 45.184C353.611 45.184 355.189 44.6293 356.619 43.52L357.771 46.272C357.045 46.8693 356.128 47.3493 355.019 47.712C353.931 48.0747 352.832 48.256 351.723 48.256C349.163 48.256 347.136 47.5307 345.643 46.08C344.171 44.6293 343.435 42.6453 343.435 40.128C343.435 38.528 343.755 37.1093 344.395 35.872C345.035 34.6347 345.931 33.6747 347.083 32.992C348.256 32.3093 349.579 31.968 351.051 31.968C353.205 31.968 354.901 32.6613 356.139 34.048C357.397 35.4347 358.027 37.344 358.027 39.776V40.896ZM351.147 34.784C350.08 34.784 349.216 35.1253 348.555 35.808C347.915 36.4907 347.52 37.472 347.371 38.752H354.603C354.56 37.4507 354.24 36.4693 353.643 35.808C353.045 35.1253 352.213 34.784 351.147 34.784ZM370.387 31.968C372.264 31.968 373.661 32.5013 374.579 33.568C375.496 34.6347 375.955 36.2453 375.955 38.4V48H371.955V38.624C371.955 37.408 371.72 36.5227 371.251 35.968C370.803 35.4133 370.088 35.136 369.107 35.136C367.955 35.136 367.027 35.4987 366.323 36.224C365.64 36.9493 365.299 37.92 365.299 39.136V48H361.299V32.352H365.203V34.688C365.736 33.8133 366.451 33.1413 367.347 32.672C368.243 32.2027 369.256 31.968 370.387 31.968ZM388.018 45.248C388.487 45.248 388.978 45.216 389.49 45.152L389.298 48.128C388.658 48.192 388.071 48.224 387.538 48.224C385.34 48.224 383.719 47.7227 382.674 46.72C381.628 45.696 381.106 44.1813 381.106 42.176V35.36H378.098V32.352H381.106V27.68H385.106V32.352H389.234V35.36H385.106V42.112C385.106 44.2027 386.076 45.248 388.018 45.248ZM429.254 25.44H433.19L425.222 48H421.862L416.198 31.776L410.502 48H407.142L399.206 25.44H403.366L408.966 42.24L414.854 25.44H417.766L423.494 42.336L429.254 25.44ZM447.933 40.896H437.277C437.405 42.3467 437.842 43.424 438.589 44.128C439.336 44.832 440.402 45.184 441.789 45.184C443.517 45.184 445.096 44.6293 446.525 43.52L447.677 46.272C446.952 46.8693 446.034 47.3493 444.925 47.712C443.837 48.0747 442.738 48.256 441.629 48.256C439.069 48.256 437.042 47.5307 435.549 46.08C434.077 44.6293 433.341 42.6453 433.341 40.128C433.341 38.528 433.661 37.1093 434.301 35.872C434.941 34.6347 435.837 33.6747 436.989 32.992C438.162 32.3093 439.485 31.968 440.957 31.968C443.112 31.968 444.808 32.6613 446.045 34.048C447.304 35.4347 447.933 37.344 447.933 39.776V40.896ZM441.053 34.784C439.986 34.784 439.122 35.1253 438.461 35.808C437.821 36.4907 437.426 37.472 437.277 38.752H444.509C444.466 37.4507 444.146 36.4693 443.549 35.808C442.952 35.1253 442.12 34.784 441.053 34.784ZM460.197 31.968C461.562 31.968 462.768 32.2987 463.813 32.96C464.858 33.6213 465.669 34.56 466.245 35.776C466.842 36.992 467.141 38.4107 467.141 40.032C467.141 41.6533 466.842 43.0933 466.245 44.352C465.669 45.5893 464.848 46.5493 463.781 47.232C462.736 47.9147 461.541 48.256 460.197 48.256C459.066 48.256 458.053 48.0107 457.157 47.52C456.282 47.0293 455.61 46.3467 455.141 45.472V48H451.205V25.44H455.205V34.624C455.674 33.7707 456.346 33.12 457.221 32.672C458.096 32.2027 459.088 31.968 460.197 31.968ZM459.141 45.152C460.4 45.152 461.381 44.704 462.085 43.808C462.789 42.912 463.141 41.6533 463.141 40.032C463.141 38.432 462.789 37.2053 462.085 36.352C461.402 35.4987 460.421 35.072 459.141 35.072C457.861 35.072 456.869 35.5093 456.165 36.384C455.482 37.2373 455.141 38.4747 455.141 40.096C455.141 41.7173 455.482 42.9653 456.165 43.84C456.869 44.7147 457.861 45.152 459.141 45.152ZM479.463 25.44H489.319C491.73 25.44 493.607 26.048 494.951 27.264C496.295 28.4587 496.967 30.144 496.967 32.32C496.967 34.496 496.295 36.192 494.951 37.408C493.607 38.624 491.73 39.232 489.319 39.232H483.591V48H479.463V25.44ZM488.807 36.064C491.645 36.064 493.063 34.8267 493.063 32.352C493.063 31.0933 492.711 30.1653 492.007 29.568C491.303 28.9493 490.237 28.64 488.807 28.64H483.591V36.064H488.807ZM506.81 48.256C505.21 48.256 503.802 47.9253 502.586 47.264C501.391 46.6027 500.463 45.6533 499.802 44.416C499.14 43.1787 498.81 41.7387 498.81 40.096C498.81 38.4533 499.14 37.024 499.802 35.808C500.463 34.5707 501.391 33.6213 502.586 32.96C503.802 32.2987 505.21 31.968 506.81 31.968C508.41 31.968 509.807 32.2987 511.002 32.96C512.218 33.6213 513.146 34.5707 513.786 35.808C514.447 37.024 514.778 38.4533 514.778 40.096C514.778 41.7387 514.447 43.1787 513.786 44.416C513.146 45.6533 512.218 46.6027 511.002 47.264C509.807 47.9253 508.41 48.256 506.81 48.256ZM506.778 45.152C508.079 45.152 509.071 44.7253 509.754 43.872C510.436 43.0187 510.778 41.76 510.778 40.096C510.778 38.4533 510.436 37.2053 509.754 36.352C509.071 35.4773 508.09 35.04 506.81 35.04C505.53 35.04 504.538 35.4773 503.834 36.352C503.151 37.2053 502.81 38.4533 502.81 40.096C502.81 41.76 503.151 43.0187 503.834 43.872C504.516 44.7253 505.498 45.152 506.778 45.152ZM528.384 35.296L526.048 35.52C523.403 35.7973 522.08 37.1413 522.08 39.552V48H518.08V32.352H521.888V35.104C522.699 33.2267 524.373 32.2027 526.912 32.032L528.128 31.936L528.384 35.296ZM539.768 45.248C540.237 45.248 540.728 45.216 541.24 45.152L541.048 48.128C540.408 48.192 539.821 48.224 539.288 48.224C537.09 48.224 535.469 47.7227 534.424 46.72C533.378 45.696 532.856 44.1813 532.856 42.176V35.36H529.848V32.352H532.856V27.68H536.856V32.352H540.984V35.36H536.856V42.112C536.856 44.2027 537.826 45.248 539.768 45.248ZM550.3 31.968C552.497 31.968 554.129 32.5013 555.196 33.568C556.263 34.6347 556.796 36.2773 556.796 38.496V48H552.988V45.6C552.625 46.432 552.049 47.0827 551.26 47.552C550.492 48.0213 549.596 48.256 548.572 48.256C547.527 48.256 546.577 48.0427 545.724 47.616C544.871 47.1893 544.199 46.6027 543.708 45.856C543.217 45.1093 542.972 44.2773 542.972 43.36C542.972 42.208 543.26 41.3013 543.836 40.64C544.433 39.9787 545.393 39.4987 546.716 39.2C548.039 38.9013 549.863 38.752 552.188 38.752H552.988V38.016C552.988 36.9493 552.753 36.1813 552.284 35.712C551.836 35.2427 551.079 35.008 550.012 35.008C549.18 35.008 548.305 35.1573 547.388 35.456C546.492 35.7333 545.607 36.128 544.732 36.64L543.612 33.888C544.487 33.3333 545.543 32.8747 546.78 32.512C548.017 32.1493 549.191 31.968 550.3 31.968ZM549.372 45.376C550.439 45.376 551.303 45.024 551.964 44.32C552.647 43.5947 552.988 42.6667 552.988 41.536V40.864H552.412C550.983 40.864 549.873 40.928 549.084 41.056C548.295 41.184 547.729 41.408 547.388 41.728C547.047 42.048 546.876 42.4853 546.876 43.04C546.876 43.7227 547.111 44.288 547.58 44.736C548.049 45.1627 548.647 45.376 549.372 45.376ZM560.861 48V25.44H564.861V48H560.861Z" fill="#0B2C3A"/>
<defs>
<linearGradient id="paint0_linear_1_5" x1="42.0054" y1="25.9931" x2="52.4234" y2="42.4425" gradientUnits="userSpaceOnUse">
<stop stop-color="#245C83"/>
<stop offset="0.09" stop-color="#306588"/>
<stop offset="0.24" stop-color="#4F7D95"/>
<stop offset="0.45" stop-color="#81A3AA"/>
<stop offset="0.64" stop-color="#B5CBC0"/>
<stop offset="0.88" stop-color="#B5CBC0"/>
<stop offset="1" stop-color="#6894AD"/>
</linearGradient>
<linearGradient id="paint1_linear_1_5" x1="106.438" y1="114.407" x2="-118.149" y2="-73.8229" gradientUnits="userSpaceOnUse">
<stop stop-color="#245C83"/>
<stop offset="0.06" stop-color="#306588"/>
<stop offset="0.16" stop-color="#4F7D95"/>
<stop offset="0.29" stop-color="#81A3AA"/>
<stop offset="0.41" stop-color="#B5CBC0"/>
<stop offset="0.77" stop-color="#B5CBC0"/>
<stop offset="1" stop-color="#6894AD"/>
</linearGradient>
<linearGradient id="paint2_linear_1_5" x1="20.674" y1="103.808" x2="86.6658" y2="-10.3605" gradientUnits="userSpaceOnUse">
<stop stop-color="#245C83"/>
<stop offset="0.06" stop-color="#306588"/>
<stop offset="0.16" stop-color="#4F7D95"/>
<stop offset="0.29" stop-color="#81A3AA"/>
<stop offset="0.41" stop-color="#B5CBC0"/>
<stop offset="0.77" stop-color="#B5CBC0"/>
<stop offset="1" stop-color="#6894AD"/>
</linearGradient>
<linearGradient id="paint3_linear_1_5" x1="13.5388" y1="83.2891" x2="77.052" y2="-9.0159" gradientUnits="userSpaceOnUse">
<stop stop-color="#244183"/>
<stop offset="0.07" stop-color="#304C88"/>
<stop offset="0.21" stop-color="#4F6A95"/>
<stop offset="0.39" stop-color="#819AAA"/>
<stop offset="0.55" stop-color="#B5CBC0"/>
<stop offset="0.8" stop-color="#B5CBC0"/>
</linearGradient>
<linearGradient id="paint4_linear_1_5" x1="1.17898" y1="2.79819" x2="147.297" y2="76.7716" gradientUnits="userSpaceOnUse">
<stop stop-color="#245C83"/>
<stop offset="0.06" stop-color="#306588"/>
<stop offset="0.16" stop-color="#4F7D95"/>
<stop offset="0.29" stop-color="#81A3AA"/>
<stop offset="0.41" stop-color="#B5CBC0"/>
<stop offset="0.77" stop-color="#B5CBC0"/>
<stop offset="1" stop-color="#6894AD"/>
</linearGradient>
<linearGradient id="paint5_linear_1_5" x1="18.4804" y1="30.487" x2="164.599" y2="104.46" gradientUnits="userSpaceOnUse">
<stop stop-color="#245C83"/>
<stop offset="0.06" stop-color="#306588"/>
<stop offset="0.16" stop-color="#4F7D95"/>
<stop offset="0.29" stop-color="#81A3AA"/>
<stop offset="0.41" stop-color="#B5CBC0"/>
<stop offset="0.77" stop-color="#B5CBC0"/>
<stop offset="1" stop-color="#6894AD"/>
</linearGradient>
<linearGradient id="paint6_linear_1_5" x1="-13.5731" y1="31.9378" x2="132.545" y2="105.911" gradientUnits="userSpaceOnUse">
<stop stop-color="#245C83"/>
<stop offset="0.06" stop-color="#306588"/>
<stop offset="0.16" stop-color="#4F7D95"/>
<stop offset="0.29" stop-color="#81A3AA"/>
<stop offset="0.41" stop-color="#B5CBC0"/>
<stop offset="0.77" stop-color="#B5CBC0"/>
<stop offset="1" stop-color="#6894AD"/>
</linearGradient>
</defs>
</svg>
