<svg width="24" height="24" viewBox="0 0 24 24" fill="none" xmlns="http://www.w3.org/2000/svg">
<path fill-rule="evenodd" clip-rule="evenodd" d="M10.0487 18.627L5.2207 12.627C4.9217 12.256 4.9267 11.726 5.2317 11.36L10.2317 5.36C10.4297 5.123 10.7137 5 11.0007 5C11.2257 5 11.4527 5.076 11.6397 5.232C12.0647 5.585 12.1217 6.216 11.7677 6.64L7.2917 12.011L11.6077 17.373C11.9537 17.803 11.8857 18.433 11.4547 18.779C11.0247 19.126 10.3957 19.057 10.0487 18.627ZM18.4548 18.779C18.0248 19.125 17.3958 19.057 17.0488 18.627L12.2208 12.627C11.9228 12.256 11.9268 11.726 12.2318 11.36L17.2318 5.36C17.4298 5.123 17.7138 5 18.0008 5C18.2258 5 18.4528 5.076 18.6398 5.232C19.0648 5.585 19.1218 6.216 18.7678 6.64L14.2928 12.011L18.6078 17.373C18.9538 17.803 18.8848 18.433 18.4548 18.779Z" fill="#333333"/>
</svg>
