<svg width="95" height="24" viewBox="0 0 95 24" fill="none" xmlns="http://www.w3.org/2000/svg">
<path d="M14.808 15.896H4.152C4.28 17.3467 4.71733 18.424 5.464 19.128C6.21067 19.832 7.27733 20.184 8.664 20.184C10.392 20.184 11.9707 19.6293 13.4 18.52L14.552 21.272C13.8267 21.8693 12.9093 22.3493 11.8 22.712C10.712 23.0747 9.61333 23.256 8.504 23.256C5.944 23.256 3.91733 22.5307 2.424 21.08C0.952 19.6293 0.216 17.6453 0.216 15.128C0.216 13.528 0.536 12.1093 1.176 10.872C1.816 9.63467 2.712 8.67467 3.864 7.992C5.03733 7.30933 6.36 6.968 7.832 6.968C9.98667 6.968 11.6827 7.66133 12.92 9.048C14.1787 10.4347 14.808 12.344 14.808 14.776V15.896ZM7.928 9.784C6.86133 9.784 5.99733 10.1253 5.336 10.808C4.696 11.4907 4.30133 12.472 4.152 13.752H11.384C11.3413 12.4507 11.0213 11.4693 10.424 10.808C9.82667 10.1253 8.99467 9.784 7.928 9.784ZM28.672 23.288C26.4533 23.288 24.512 22.8187 22.848 21.88C21.2053 20.92 19.936 19.5653 19.04 17.816C18.1653 16.0667 17.728 14.0293 17.728 11.704C17.728 9.37867 18.1653 7.352 19.04 5.624C19.936 3.87467 21.2053 2.53067 22.848 1.592C24.512 0.631999 26.4533 0.151999 28.672 0.151999C30.1867 0.151999 31.616 0.386665 32.96 0.855999C34.304 1.32533 35.4347 1.98667 36.352 2.84L34.976 5.848C33.952 5.03733 32.9387 4.45067 31.936 4.088C30.9333 3.704 29.8667 3.512 28.736 3.512C26.56 3.512 24.8747 4.216 23.68 5.624C22.5067 7.032 21.92 9.05867 21.92 11.704C21.92 14.3707 22.5067 16.408 23.68 17.816C24.8747 19.224 26.56 19.928 28.736 19.928C29.8667 19.928 30.9333 19.7467 31.936 19.384C32.9387 19 33.952 18.4027 34.976 17.592L36.352 20.6C35.4347 21.4533 34.304 22.1147 32.96 22.584C31.616 23.0533 30.1867 23.288 28.672 23.288ZM56.9613 23L54.6893 17.72H43.7133L41.4413 23H37.2812L47.4893 0.439999H50.8493L61.0573 23H56.9613ZM45.0573 14.52H53.3133L49.1853 4.92L45.0573 14.52ZM90.9348 0.439999H94.1668V23H90.5188V8.088L84.5668 19.352H81.8148L75.8308 8.248L75.8628 23H72.2148V0.439999H75.4788L83.2228 15.192L90.9348 0.439999Z" fill="#0B2C3A"/>
</svg>
