<svg width="37" height="37" viewBox="0 0 37 37" fill="none" xmlns="http://www.w3.org/2000/svg">
<g clip-path="url(#clip0_2_6)">
<path d="M18.5 37C28.7173 37 37 28.7173 37 18.5C37 8.28273 28.7173 0 18.5 0C8.28273 0 0 8.28273 0 18.5C0 28.7173 8.28273 37 18.5 37Z" fill="#F8F8F8"/>
<path fill-rule="evenodd" clip-rule="evenodd" d="M19 9C24.5228 9 29 13.4771 29 19C29 24.5228 24.5228 29 19 29C13.4771 29 9 24.5228 9 19C9 13.4771 13.4771 9 19 9ZM15.3128 21.7811C14.2692 20.9462 12.8529 20.623 11.2055 20.8094C11.9117 23.8637 14.3669 26.2485 17.4593 26.8518C17.2659 24.2271 16.4026 22.6529 15.3128 21.7811ZM22.6872 21.7811C21.5974 22.6529 20.7341 24.2271 20.5407 26.8518C23.6331 26.2485 26.0883 23.8637 26.7945 20.8094C25.1471 20.623 23.7308 20.9462 22.6872 21.7811ZM19 17C18.0499 17 17.2679 17.3697 16.694 17.7776L16.1964 18.125C15.6723 18.4803 15.0695 18.8445 14.3946 19.0856C15.1719 19.3216 15.9035 19.6924 16.5622 20.2194C17.6863 21.1186 18.5146 22.4058 19 24.0779C19.4854 22.4058 20.3137 21.1186 21.4378 20.2194C22.0965 19.6924 22.8281 19.3216 23.6054 19.0856C22.9305 18.8445 22.3277 18.4803 21.8036 18.125L21.306 17.7776C20.7321 17.3697 19.9501 17 19 17ZM19 11C15.09 11 11.8351 13.8051 11.138 17.5126L11.0953 17.7611L13.3053 17.3191C13.8869 17.2028 14.4405 16.8956 15.0584 16.479L15.5354 16.1474C16.3325 15.5809 17.5126 15 19 15C20.3882 15 21.5088 15.506 22.3001 16.0341L22.9416 16.479C23.4823 16.8435 23.9737 17.1243 24.4777 17.2667L24.6947 17.3191L26.9047 17.7611C26.3092 13.9311 22.9969 11 19 11Z" fill="#198EFD"/>
</g>
<defs>
<clipPath id="clip0_2_6">
<rect width="37" height="37" fill="white"/>
</clipPath>
</defs>
</svg>
