<svg width="37" height="37" viewBox="0 0 37 37" fill="none" xmlns="http://www.w3.org/2000/svg">
<g clip-path="url(#clip0_2_11)">
<path d="M18.5 37C28.7173 37 37 28.7173 37 18.5C37 8.28273 28.7173 0 18.5 0C8.28273 0 0 8.28273 0 18.5C0 28.7173 8.28273 37 18.5 37Z" fill="#F8F8F8"/>
<g opacity="0.7" clip-path="url(#clip1_2_11)">
<path d="M26.9366 14.0835C26.9366 21.6756 25.8406 25.3767 19.3436 27.2318C19.2625 27.2561 19.176 27.2561 19.0948 27.2318C12.5969 25.3749 11.5 21.7118 11.5 14.2005C11.5 14.1017 11.5323 14.0056 11.592 13.9268C11.6517 13.8479 11.7354 13.7907 11.8305 13.7638C14.4287 13.0857 16.8464 11.8459 18.9132 10.1317C18.9536 10.0869 19.0035 10.0519 19.0594 10.0292C19.1152 10.0066 19.1754 9.99689 19.2355 10.0009C19.3558 10.0019 19.4707 10.0507 19.5552 10.1363C20.4005 10.9935 23.9692 12.7696 26.6261 13.6558C26.716 13.6858 26.7943 13.7432 26.85 13.8199C26.9057 13.8966 26.936 13.9887 26.9366 14.0835Z" fill="#A57B2A"/>
</g>
</g>
<defs>
<clipPath id="clip0_2_11">
<rect width="37" height="37" fill="white"/>
</clipPath>
<clipPath id="clip1_2_11">
<rect width="18" height="18" fill="white" transform="translate(10 10)"/>
</clipPath>
</defs>
</svg>
