<svg width="349" height="196" viewBox="0 0 349 196" fill="none" xmlns="http://www.w3.org/2000/svg">
<g clip-path="url(#clip0_10594_2640)">
<path d="M180.287 50.4874C180.287 50.4874 213.575 51.8034 218.857 51.8034C224.139 51.8034 244.429 50.3996 267.999 54.0757L282.267 56.0058C282.267 56.0058 290.203 57.0586 293.184 62.8402C293.184 62.8402 298.818 71.9469 297.504 99.4688C297.98 107.515 297.685 115.588 296.623 123.578C295.282 132.641 293.148 136.089 293.148 136.089C293.024 136.333 292.886 136.571 292.734 136.799L292.478 137.203C289.118 142.002 282.232 142.923 282.232 142.923L272.294 144.265L267.964 144.853C244.358 148.529 224.112 147.125 218.822 147.125C213.531 147.125 180.252 148.441 180.252 148.441C180.252 148.441 103.87 149.573 78.4482 148.441C60.6976 147.652 59.6747 145.274 56.6149 141.081C52.7526 135.817 49.6752 126.166 47.7969 116.928C46.5499 111.186 45.8473 105.341 45.6982 99.4688C45.6982 88.7128 50.0191 66.876 56.6237 57.8482C59.6836 53.6546 60.7065 51.277 78.457 50.4874C103.915 49.382 180.287 50.4874 180.287 50.4874Z" fill="url(#paint0_radial_10594_2640)"/>
<path d="M213.584 65.3848C224.685 65.0339 240.355 57.3222 240.355 57.3222L181.971 55.8746H180.384L127.476 54.5586L161.469 63.6653C166.108 64.6128 173.074 65.1392 180.402 65.42L181.989 65.4726C197.27 65.92 213.584 65.3848 213.584 65.3848Z" fill="#125C66"/>
<path d="M213.584 133.511C224.685 133.853 240.355 141.565 240.355 141.565L181.971 143.012H180.384L127.476 144.319L161.469 135.213C166.108 134.265 173.074 133.739 180.402 133.458L181.989 133.405C197.27 132.967 213.584 133.511 213.584 133.511Z" fill="#125C66"/>
<path d="M213.584 133.113C224.685 133.455 240.355 141.167 240.355 141.167L181.971 142.614L180.384 142.658L127.476 143.965L161.469 134.859C166.108 133.911 173.074 133.385 180.402 133.104C180.931 133.104 181.46 133.104 181.989 133.051C197.27 132.577 213.584 133.113 213.584 133.113Z" fill="#1A1A1A"/>
<g style="mix-blend-mode:screen" opacity="0.6">
<path d="M223.495 134.789C228.659 136.251 233.703 138.104 238.583 140.334L221.979 140.746L223.495 134.789Z" fill="#151418"/>
</g>
<g style="mix-blend-mode:screen" opacity="0.6">
<path d="M223.495 134.789C228.659 136.251 233.703 138.104 238.583 140.334L221.979 140.746L223.495 134.789Z" fill="#151418"/>
</g>
<g style="mix-blend-mode:screen" opacity="0.6">
<path d="M213.584 133.115C216.465 133.254 219.323 133.695 222.111 134.431L220.268 140.791L131.065 143.002L161.452 134.861C176.072 131.851 213.584 133.115 213.584 133.115Z" fill="#151418"/>
</g>
<g style="mix-blend-mode:screen" opacity="0.6">
<path d="M213.584 133.115C216.465 133.254 219.323 133.695 222.111 134.431L220.268 140.791L131.065 143.002L161.452 134.861C176.072 131.851 213.584 133.115 213.584 133.115Z" fill="#151418"/>
</g>
<g style="mix-blend-mode:screen" opacity="0.6">
<path d="M223.495 134.789C228.659 136.251 233.703 138.104 238.583 140.334L221.979 140.746L223.495 134.789Z" fill="#151418"/>
</g>
<g style="mix-blend-mode:screen" opacity="0.6">
<path d="M213.584 133.115C216.465 133.254 219.323 133.695 222.111 134.431L220.268 140.791L131.065 143.002L161.452 134.861C176.072 131.851 213.584 133.115 213.584 133.115Z" fill="#151418"/>
</g>
<path d="M219.589 147.566C218.795 147.566 219.059 146.574 219.059 146.574H217.472C217.472 149.136 219.059 148.811 219.059 148.811H225.232C225.232 148.811 226.819 149.136 226.819 146.574H225.258C225.258 146.574 225.523 147.566 224.729 147.566H219.58H219.589Z" fill="url(#paint1_radial_10594_2640)"/>
<path d="M167.395 147.898C166.601 147.898 166.866 146.906 166.866 146.906H165.296C165.296 149.477 166.875 149.152 166.875 149.152H173.092C173.092 149.152 174.67 149.477 174.67 146.906H173.092C173.092 146.906 173.347 147.898 172.562 147.898H167.404H167.395Z" fill="url(#paint2_radial_10594_2640)"/>
<path d="M137.273 141.168C136.868 141.939 136.665 142.799 136.682 143.668C136.702 143.884 136.738 144.098 136.788 144.309C137.44 147.257 140.615 151.775 141.109 153.082C141.602 154.389 141.109 154.916 141.109 154.916H137.961C135.227 152.714 133.093 149.327 131.788 146.783C130.73 144.774 130.148 143.274 130.148 143.274C132.714 141.563 137.273 141.168 137.273 141.168Z" fill="url(#paint3_radial_10594_2640)"/>
<path d="M137.273 141.168C136.868 141.939 136.665 142.799 136.682 143.668C136.702 143.884 136.738 144.098 136.788 144.309C135.022 144.911 133.342 145.736 131.788 146.765C130.73 144.756 130.148 143.256 130.148 143.256C132.714 141.563 137.273 141.168 137.273 141.168Z" fill="#1A1A1A"/>
<path d="M232.789 67.7445C232.789 67.7445 236.087 80.1851 236.316 99.4688C236.052 118.77 232.789 131.184 232.789 131.184L266.209 135.913C272.946 120.27 272.153 99.4688 272.153 99.4688C272.153 99.4688 272.946 78.6585 266.209 63.0156L232.789 67.7445Z" fill="#125C66"/>
<path d="M231.987 67.7445C231.987 67.7445 235.294 80.1851 235.514 99.4688C235.249 118.77 231.987 131.184 231.987 131.184L265.407 135.913C272.144 120.27 271.35 99.4688 271.35 99.4688C271.35 99.4688 272.144 78.6585 265.407 63.0156L231.987 67.7445Z" fill="#1A1A1A"/>
<path d="M132.098 143.719L69.0322 143.828L69.0329 144.223L132.099 144.113L132.098 143.719Z" fill="#1A1A1A"/>
<g style="mix-blend-mode:screen" opacity="0.6">
<path d="M269.895 99.3912C269.746 85.3539 265.098 65.4297 265.098 65.4297L237.454 69.4216C236.941 69.4036 236.435 69.5463 236.008 69.8297C235.581 70.113 235.254 70.5227 235.073 71.0008C237.093 82.4061 237.401 96.303 237.445 99.4351C237.489 102.567 237.093 116.499 235.073 127.861C235.254 128.339 235.581 128.748 236.008 129.032C236.435 129.315 236.941 129.458 237.454 129.44L265.098 133.432C265.098 133.432 269.746 113.472 269.895 99.4789V99.3912Z" fill="#151418"/>
</g>
<g style="mix-blend-mode:screen" opacity="0.6">
<path d="M265.098 65.4727C265.098 65.4727 269.746 85.4232 269.895 99.4166V99.5043C269.746 113.542 265.098 133.466 265.098 133.466L257.788 132.404L237.445 129.474C236.934 129.49 236.43 129.346 236.004 129.063C235.579 128.78 235.253 128.371 235.073 127.895C237.093 116.489 237.401 102.593 237.445 99.4693C237.489 96.346 237.093 82.3963 235.073 71.0261C235.255 70.5511 235.581 70.1444 236.006 69.8628C236.432 69.5813 236.935 69.439 237.445 69.4557L257.727 66.5342L265.098 65.4727Z" fill="#151418"/>
</g>
<path d="M45.7334 99.4688H114.664L118.12 139.826L47.8321 116.936C46.5845 111.192 45.8819 105.344 45.7334 99.4688Z" fill="url(#paint4_linear_10594_2640)"/>
<path d="M45.7334 99.4705H114.664L118.12 59.1133L47.8321 82.0467C46.5866 87.7766 45.8839 93.6101 45.7334 99.4705Z" fill="url(#paint5_linear_10594_2640)"/>
<path d="M151.188 65.9022C147.66 79.4395 147.757 99.469 147.757 99.469C147.757 99.469 147.625 119.481 151.188 133.018C151.188 133.018 128.737 140.116 117.371 139.853C117.371 139.853 115.096 137.922 112.583 133.036C109.479 126.991 106.013 116.445 106.013 99.469C106.013 79.9922 110.572 68.9817 113.949 63.4984C114.857 61.8584 115.994 60.3548 117.327 59.0327C128.693 58.8046 151.188 65.9022 151.188 65.9022Z" fill="#125C66"/>
<path style="mix-blend-mode:screen" opacity="0.6" d="M114.664 63.5234C105.643 96.669 110.537 122.656 113.332 133.034C110.228 126.99 106.763 116.444 106.763 99.4678C106.763 79.991 111.322 68.9804 114.664 63.5234Z" fill="url(#paint6_linear_10594_2640)"/>
<path d="M292.778 136.799L292.522 137.203C282.214 137.457 265.319 135.869 265.125 135.843V135.457C265.354 135.475 282.576 137.115 292.778 136.799Z" fill="#1A1A1A"/>
<path d="M181.971 133.07V142.616L180.384 142.66V133.123C180.913 133.097 181.442 133.088 181.971 133.07Z" fill="#1A1A1A"/>
<path d="M213.584 65.8214C224.685 65.4705 240.355 57.7587 240.355 57.7587L181.971 56.3112H180.384L127.476 55.0039L161.469 64.1106C166.108 65.0581 173.074 65.5845 180.402 65.8653L181.989 65.9179C197.27 66.3566 213.584 65.8214 213.584 65.8214Z" fill="#1A1A1A"/>
<g style="mix-blend-mode:screen" opacity="0.6">
<path d="M223.495 64.1397C228.66 62.678 233.703 60.8243 238.583 58.5949L221.97 58.1562L223.495 64.1397Z" fill="#151418"/>
</g>
<g style="mix-blend-mode:screen" opacity="0.6">
<path d="M223.495 64.1397C228.66 62.678 233.703 60.8243 238.583 58.5949L221.97 58.1562L223.495 64.1397Z" fill="#151418"/>
</g>
<g style="mix-blend-mode:screen" opacity="0.6">
<path d="M213.584 65.8241C216.464 65.6778 219.322 65.2338 222.111 64.4993L220.268 58.1562L131.065 55.9453L161.452 64.087C176.072 67.0524 213.584 65.8241 213.584 65.8241Z" fill="#151418"/>
</g>
<g style="mix-blend-mode:screen" opacity="0.6">
<path d="M213.584 65.8241C216.464 65.6778 219.322 65.2338 222.111 64.4993L220.268 58.1562L131.065 55.9453L161.452 64.087C176.072 67.0524 213.584 65.8241 213.584 65.8241Z" fill="#151418"/>
</g>
<g style="mix-blend-mode:screen" opacity="0.6">
<path d="M223.495 64.1397C228.66 62.678 233.703 60.8243 238.583 58.5949L221.97 58.1562L223.495 64.1397Z" fill="#151418"/>
</g>
<g style="mix-blend-mode:screen" opacity="0.6">
<path d="M213.584 65.8241C216.464 65.6778 219.322 65.2338 222.111 64.4993L220.268 58.1562L131.065 55.9453L161.452 64.087C176.072 67.0524 213.584 65.8241 213.584 65.8241Z" fill="#151418"/>
</g>
<path d="M219.589 51.3733C218.795 51.3733 219.059 52.3559 219.059 52.3559H217.472C217.472 49.7941 219.059 50.1187 219.059 50.1187H225.232C225.232 50.1187 226.819 49.7941 226.819 52.3559H225.258C225.258 52.3559 225.523 51.3733 224.729 51.3733H219.58H219.589Z" fill="url(#paint7_radial_10594_2640)"/>
<path d="M167.395 51.0325C166.601 51.0325 166.866 52.0239 166.866 52.0239H165.296C165.296 49.4621 166.875 49.7867 166.875 49.7867H173.092C173.092 49.7867 174.67 49.4621 174.67 52.0239H173.092C173.092 52.0239 173.347 51.0325 172.562 51.0325H167.404H167.395Z" fill="url(#paint8_radial_10594_2640)"/>
<path d="M137.273 57.7605C136.868 56.9895 136.665 56.1297 136.682 55.2601C136.702 55.0444 136.738 54.8304 136.788 54.6196C137.44 51.6718 140.615 47.1535 141.109 45.8463C141.602 44.5391 141.109 44.0039 141.109 44.0039H137.961C135.401 46.3018 133.306 49.0653 131.788 52.1456C131.182 53.2869 130.634 54.4582 130.148 55.6549C132.714 57.3657 137.273 57.7605 137.273 57.7605Z" fill="url(#paint9_radial_10594_2640)"/>
<path d="M137.273 57.7605C136.868 56.9895 136.665 56.1297 136.682 55.2601C136.702 55.0444 136.738 54.8304 136.788 54.6196C135.02 54.0208 133.336 53.1982 131.779 52.1719C131.173 53.3132 130.626 54.4845 130.139 55.6812C132.714 57.3657 137.273 57.7605 137.273 57.7605Z" fill="#1A1A1A"/>
<path d="M69.0209 54.7263L69.02 55.1211L132.086 55.2635L132.087 54.8687L69.0209 54.7263Z" fill="#1A1A1A"/>
<path d="M292.778 62.1374C292.699 61.997 292.611 61.8566 292.522 61.725C282.214 61.4794 265.319 63.0673 265.125 63.0849V63.4709C265.354 63.4621 282.576 61.8478 292.778 62.1374Z" fill="#1A1A1A"/>
<path d="M181.971 65.8579V56.3125H180.384V65.8491L181.971 65.8579Z" fill="#1A1A1A"/>
<path d="M151.937 65.9022C148.41 79.4395 148.507 99.469 148.507 99.469C148.507 99.469 148.375 119.481 151.937 133.018C151.937 133.018 129.487 140.116 118.12 139.853C118.12 139.853 115.845 137.922 113.332 133.036C110.228 126.991 106.763 116.445 106.763 99.469C106.763 79.9922 111.322 68.9817 114.699 63.4984C115.62 61.8556 116.772 60.3519 118.12 59.0327C129.487 58.8046 151.937 65.9022 151.937 65.9022Z" fill="#1A1A1A"/>
<g style="mix-blend-mode:screen" opacity="0.6">
<path d="M115.748 99.4615C115.351 117.692 118.12 137.187 122.75 137.099C127.379 137.011 144.794 132.861 144.794 132.861C148.322 131.274 148.569 129.352 148.322 127.834C147.555 123.509 146.267 115.552 146.267 99.4615C146.267 83.5467 147.555 75.4226 148.322 71.0973C148.586 69.5883 148.383 67.6582 144.794 66.0702C144.794 66.0702 127.361 61.9643 122.75 61.8327C118.138 61.7011 115.351 81.2393 115.748 99.4615Z" fill="#151418"/>
</g>
<g style="mix-blend-mode:screen" opacity="0.6">
<path d="M115.748 99.4615C115.351 117.692 118.12 137.187 122.75 137.099C127.379 137.011 144.794 132.861 144.794 132.861C148.322 131.274 148.569 129.352 148.322 127.834C147.555 123.509 146.267 115.552 146.267 99.4615C146.267 83.5467 147.555 75.4226 148.322 71.0973C148.586 69.5883 148.383 67.6582 144.794 66.0702C144.794 66.0702 127.361 61.9643 122.75 61.8327C118.138 61.7011 115.351 81.2393 115.748 99.4615Z" fill="#151418"/>
</g>
<g style="mix-blend-mode:screen" opacity="0.6">
<path d="M122.75 61.8331C127.37 61.9647 144.795 66.0706 144.795 66.0706C148.322 67.6586 148.56 69.5799 148.322 71.0977C147.564 75.423 146.276 83.5471 146.276 99.4706C146.276 103.691 146.364 107.367 146.505 110.551C136.237 114.072 126.432 118.808 117.3 124.659C116.048 116.324 115.534 107.895 115.766 99.4706C115.351 81.2397 118.12 61.6664 122.75 61.8331Z" fill="#151418"/>
</g>
<path style="mix-blend-mode:screen" opacity="0.6" d="M122.75 61.8331C127.37 61.9647 144.795 66.0706 144.795 66.0706C148.322 67.6586 148.56 69.5799 148.322 71.0977C147.564 75.423 146.276 83.5471 146.276 99.4706C146.276 103.691 146.364 107.367 146.505 110.551C136.237 114.072 126.432 118.808 117.3 124.659C116.048 116.324 115.534 107.895 115.766 99.4706C115.351 81.2397 118.12 61.6664 122.75 61.8331Z" fill="url(#paint10_linear_10594_2640)"/>
<path d="M257.691 66.5352C265.372 97.2418 261.686 119.719 257.788 132.405L237.445 129.475C236.934 129.491 236.43 129.347 236.004 129.064C235.579 128.781 235.253 128.372 235.073 127.896C237.093 116.49 237.401 102.594 237.445 99.4702C237.489 96.3469 237.093 82.3973 235.073 71.0271C235.255 70.5521 235.581 70.1454 236.006 69.8638C236.432 69.5823 236.935 69.4399 237.445 69.4567L257.691 66.5352Z" fill="url(#paint11_linear_10594_2640)"/>
<path d="M55.5657 128.825L55.2042 128.983C55.1072 128.755 45.4163 105.9 54.7016 70.5L55.0808 70.5965C50.2485 89.0205 50.6718 103.935 51.8181 113.112C53.0967 123.078 55.5393 128.772 55.5657 128.825Z" fill="#1A1A1A"/>
</g>
<line x1="13.27" y1="13.8545" x2="49.27" y2="49.8545" stroke="#125C66" stroke-width="0.5"/>
<line x1="14.1763" y1="183.823" x2="50.1763" y2="147.823" stroke="#125C66" stroke-width="0.5"/>
<line x1="333.144" y1="16.208" x2="299.144" y2="50.208" stroke="#125C66" stroke-width="0.5"/>
<line x1="335.79" y1="186.017" x2="298.79" y2="149.017" stroke="#125C66" stroke-width="0.5"/>
<circle cx="339.449" cy="9.44901" r="9.44901" fill="#125C66"/>
<path d="M341.274 11.168V12H337.482V11.24L339.402 9.176C339.626 8.93067 339.789 8.70667 339.89 8.504C339.997 8.296 340.05 8.09067 340.05 7.888C340.05 7.632 339.975 7.44 339.826 7.312C339.682 7.17867 339.469 7.112 339.186 7.112C338.679 7.112 338.17 7.30667 337.658 7.696L337.314 6.944C337.538 6.74667 337.823 6.58933 338.17 6.472C338.522 6.34933 338.874 6.288 339.226 6.288C339.791 6.288 340.239 6.42667 340.57 6.704C340.901 6.98133 341.066 7.35467 341.066 7.824C341.066 8.14933 340.997 8.456 340.858 8.744C340.719 9.02667 340.485 9.344 340.154 9.696L338.77 11.168H341.274Z" fill="white"/>
<circle cx="9.44901" cy="9.44901" r="9.44901" fill="#125C66"/>
<path d="M10.0659 11.168H11.2899V12H7.80995V11.168H9.03395V7.536L8.06595 8.12L7.65795 7.368L9.32995 6.36H10.0659V11.168Z" fill="white"/>
<circle cx="9.44901" cy="186.547" r="9.44901" fill="#125C66"/>
<path d="M10.1699 186.202C10.5006 186.287 10.7539 186.45 10.9299 186.69C11.1113 186.924 11.2019 187.218 11.2019 187.57C11.2019 188.06 11.0206 188.45 10.6579 188.738C10.3006 189.02 9.81262 189.162 9.19395 189.162C8.81528 189.162 8.44995 189.103 8.09795 188.986C7.75128 188.868 7.46328 188.708 7.23395 188.506L7.57795 187.754C8.06862 188.143 8.59395 188.338 9.15395 188.338C9.51128 188.338 9.77795 188.268 9.95395 188.13C10.1299 187.986 10.2179 187.77 10.2179 187.482C10.2179 187.199 10.1273 186.991 9.94595 186.858C9.76995 186.719 9.49528 186.65 9.12195 186.65H8.37795V185.834H8.98595C9.71662 185.834 10.0819 185.559 10.0819 185.01C10.0819 184.754 10.0019 184.556 9.84195 184.418C9.68728 184.279 9.46595 184.21 9.17795 184.21C8.92728 184.21 8.67128 184.26 8.40995 184.362C8.15395 184.458 7.90328 184.602 7.65795 184.794L7.31395 184.042C7.53795 183.839 7.82328 183.679 8.16995 183.562C8.52195 183.444 8.87928 183.386 9.24195 183.386C9.79662 183.386 10.2393 183.522 10.5699 183.794C10.9006 184.06 11.0659 184.423 11.0659 184.882C11.0606 185.196 10.9779 185.471 10.8179 185.706C10.6633 185.935 10.4473 186.1 10.1699 186.202Z" fill="white"/>
<circle cx="339.449" cy="186.547" r="9.44901" fill="#125C66"/>
<path d="M341.482 187.194V187.994H340.69V189.098H339.682V187.994H337.234V187.234L339.858 183.458H340.69V187.194H341.482ZM338.194 187.194H339.682V185.042L338.194 187.194Z" fill="white"/>
<defs>
<radialGradient id="paint0_radial_10594_2640" cx="0" cy="0" r="1" gradientUnits="userSpaceOnUse" gradientTransform="translate(142.431 93.8539) rotate(-90) scale(222.921 224.056)">
<stop offset="0.1" stop-color="#C8C8CA"/>
<stop offset="0.83" stop-color="#949496"/>
</radialGradient>
<radialGradient id="paint1_radial_10594_2640" cx="0" cy="0" r="1" gradientUnits="userSpaceOnUse" gradientTransform="translate(222.163 147.697) rotate(-90) scale(3.39526 3.41257)">
<stop offset="0.1" stop-color="#C8C8CA"/>
<stop offset="0.83" stop-color="#949496"/>
</radialGradient>
<radialGradient id="paint2_radial_10594_2640" cx="0" cy="0" r="1" gradientUnits="userSpaceOnUse" gradientTransform="translate(169.979 148.038) rotate(-90) scale(3.39527 3.41256)">
<stop offset="0.1" stop-color="#C8C8CA"/>
<stop offset="0.83" stop-color="#949496"/>
</radialGradient>
<radialGradient id="paint3_radial_10594_2640" cx="0" cy="0" r="1" gradientUnits="userSpaceOnUse" gradientTransform="translate(133.326 152.824) rotate(-119.204) scale(11.9373 2.75292)">
<stop offset="0.1" stop-color="#C8C8CA"/>
<stop offset="0.83" stop-color="#949496"/>
</radialGradient>
<linearGradient id="paint4_linear_10594_2640" x1="81.9312" y1="134.948" x2="81.9312" y2="94.5557" gradientUnits="userSpaceOnUse">
<stop stop-color="#A3A5A7"/>
<stop offset="1" stop-color="white" stop-opacity="0"/>
</linearGradient>
<linearGradient id="paint5_linear_10594_2640" x1="81.9312" y1="63.9825" x2="81.9312" y2="104.375" gradientUnits="userSpaceOnUse">
<stop stop-color="#A3A5A7"/>
<stop offset="1" stop-color="white" stop-opacity="0"/>
</linearGradient>
<linearGradient id="paint6_linear_10594_2640" x1="110.713" y1="133.034" x2="110.713" y2="63.5234" gradientUnits="userSpaceOnUse">
<stop stop-color="white" stop-opacity="0"/>
<stop offset="0.61" stop-color="#737275" stop-opacity="0.6"/>
<stop offset="0.93" stop-color="#151418"/>
</linearGradient>
<radialGradient id="paint7_radial_10594_2640" cx="0" cy="0" r="1" gradientUnits="userSpaceOnUse" gradientTransform="translate(222.163 51.2329) rotate(90) scale(3.39526 3.41257)">
<stop offset="0.1" stop-color="#C8C8CA"/>
<stop offset="0.83" stop-color="#949496"/>
</radialGradient>
<radialGradient id="paint8_radial_10594_2640" cx="0" cy="0" r="1" gradientUnits="userSpaceOnUse" gradientTransform="translate(169.979 50.9009) rotate(90) scale(3.39526 3.41256)">
<stop offset="0.1" stop-color="#C8C8CA"/>
<stop offset="0.83" stop-color="#949496"/>
</radialGradient>
<radialGradient id="paint9_radial_10594_2640" cx="0" cy="0" r="1" gradientUnits="userSpaceOnUse" gradientTransform="translate(111.663 23.6313) rotate(119.514) scale(11.9197 2.73182)">
<stop offset="0.1" stop-color="#C8C8CA"/>
<stop offset="0.83" stop-color="#949496"/>
</radialGradient>
<linearGradient id="paint10_linear_10594_2640" x1="122.529" y1="93.2416" x2="185.869" y2="93.2416" gradientUnits="userSpaceOnUse">
<stop stop-color="white" stop-opacity="0"/>
<stop offset="0.61" stop-color="#737275" stop-opacity="0.6"/>
<stop offset="0.93" stop-color="#151418"/>
</linearGradient>
<linearGradient id="paint11_linear_10594_2640" x1="240.726" y1="99.4702" x2="293.272" y2="99.4702" gradientUnits="userSpaceOnUse">
<stop stop-color="white" stop-opacity="0"/>
<stop offset="0.61" stop-color="#737275" stop-opacity="0.6"/>
<stop offset="0.93" stop-color="#151418"/>
</linearGradient>
<clipPath id="clip0_10594_2640">
<rect width="251.974" height="110.868" fill="white" transform="translate(45.7334 44.0312)"/>
</clipPath>
</defs>
</svg>
