<?xml version="1.0" encoding="utf-8"?>
<!-- Generator: Adobe Illustrator 19.0.0, SVG Export Plug-In . SVG Version: 6.00 Build 0)  -->
<svg version="1.1" id="Layer_1" xmlns="http://www.w3.org/2000/svg" xmlns:xlink="http://www.w3.org/1999/xlink" x="0px" y="0px"
	 viewBox="0 0 714.8 146.3" style="enable-background:new 0 0 714.8 146.3;" xml:space="preserve">
<style type="text/css">
	.st0{fill:url(#XMLID_60_);}
	.st1{fill:url(#XMLID_61_);}
	.st2{fill:url(#XMLID_63_);}
	.st3{fill:url(#XMLID_64_);}
	.st4{fill:url(#XMLID_65_);}
	.st5{fill:url(#XMLID_68_);}
	.st6{fill:url(#XMLID_69_);}
	.st7{fill:#FFFFFF;}
</style>
<g id="XMLID_212_">
	<g id="XMLID_248_">
		<linearGradient id="XMLID_60_" gradientUnits="userSpaceOnUse" x1="79.2374" y1="90.0567" x2="76.5067" y2="60.7782">
			<stop  offset="0.1521" style="stop-color:#ED802E"/>
			<stop  offset="0.1712" style="stop-color:#EB8335"/>
			<stop  offset="0.3754" style="stop-color:#D7A27A"/>
			<stop  offset="0.546" style="stop-color:#C8B9AD"/>
			<stop  offset="0.6743" style="stop-color:#BEC7CC"/>
			<stop  offset="0.7458" style="stop-color:#BBCCD8"/>
		</linearGradient>
		<path id="XMLID_249_" class="st0" d="M75.4,77.9c-8.4,0-16.8-2.1-24.3-6.3L11,49.1l8.3-14.9l40.1,22.4c9.9,5.5,22.1,5.5,32,0
			l40.1-22.4l8.3,14.9L99.7,71.6C92.2,75.8,83.8,77.9,75.4,77.9z"/>
	</g>
	<g id="XMLID_246_">
		<linearGradient id="XMLID_61_" gradientUnits="userSpaceOnUse" x1="186.7053" y1="200.4489" x2="-206.8674" y2="-129.7977">
			<stop  offset="0.208" style="stop-color:#6ACBDF"/>
			<stop  offset="0.2354" style="stop-color:#76CDDC"/>
			<stop  offset="0.2845" style="stop-color:#94D2D6"/>
			<stop  offset="0.349" style="stop-color:#C6DBCB"/>
			<stop  offset="0.3731" style="stop-color:#DADEC6"/>
			<stop  offset="0.3961" style="stop-color:#CEDCC9"/>
			<stop  offset="0.4913" style="stop-color:#A3D5D2"/>
			<stop  offset="0.5769" style="stop-color:#84CFD9"/>
			<stop  offset="0.6491" style="stop-color:#71CCDD"/>
			<stop  offset="0.6993" style="stop-color:#6ACBDF"/>
		</linearGradient>
		<path id="XMLID_247_" class="st1" d="M83.9,137.7H66.9V99.6c0-11.8-6.4-22.8-16.7-28.6L14.5,51.1l8.3-14.9l35.6,19.9
			C74.2,65,83.9,81.6,83.9,99.6V137.7z"/>
	</g>
	<g id="XMLID_244_">
		<linearGradient id="XMLID_63_" gradientUnits="userSpaceOnUse" x1="36.2651" y1="181.8797" x2="151.8211" y2="-18.2692">
			<stop  offset="0" style="stop-color:#F16A21"/>
			<stop  offset="0.4725" style="stop-color:#DADEC6"/>
			<stop  offset="0.8244" style="stop-color:#6ACBDF"/>
			<stop  offset="1" style="stop-color:#FFFFFF"/>
		</linearGradient>
		<path id="XMLID_245_" class="st2" d="M83.9,137.7H66.9V99.6c0-18,9.8-34.7,25.5-43.4L128,36.2l8.3,14.9l-35.6,19.9
			c-10.3,5.8-16.7,16.7-16.7,28.6V137.7z"/>
	</g>
	<g id="XMLID_242_">
		<linearGradient id="XMLID_64_" gradientUnits="userSpaceOnUse" x1="26.8129" y1="154.9339" x2="134.2113" y2="-31.0856">
			<stop  offset="0" style="stop-color:#ED802E"/>
			<stop  offset="5.431658e-002" style="stop-color:#EC873A"/>
			<stop  offset="0.1518" style="stop-color:#E89B59"/>
			<stop  offset="0.2813" style="stop-color:#E1BA8B"/>
			<stop  offset="0.4134" style="stop-color:#DADEC6"/>
			<stop  offset="0.7675" style="stop-color:#A1D4D1"/>
			<stop  offset="1" style="stop-color:#6ACBDF"/>
		</linearGradient>
		<path id="XMLID_243_" class="st3" d="M150.9,70.8c0,41.6-33.8,75.4-75.4,75.4C33.8,146.3,0,112.4,0,70.8C0,45.6,12.2,22.8,32.3,9
			c4.8-3.3,10-6.2,15.7-8.4C52.3-1.1,57.2,1,59,5.4c0.2,0.6,0.4,1.2,0.5,1.7c0.6,3.9-1.5,7.8-5.3,9.3c-5.6,2.2-10.7,5.2-15.2,8.7
			C25.3,36.1,17,52.6,17,70.8c0,32.2,26.2,58.4,58.4,58.4c32.2,0,58.4-26.2,58.4-58.4c0-18.2-8.2-34.8-21.9-45.6
			c-4.5-3.6-9.6-6.6-15.2-8.7c-3.8-1.5-6-5.4-5.3-9.3c0.1-0.6,0.2-1.2,0.5-1.7c1.7-4.4,6.7-6.6,11.1-4.8c5.6,2.2,10.8,5,15.6,8.3
			C138.6,22.7,150.9,45.6,150.9,70.8z"/>
	</g>
	<linearGradient id="XMLID_65_" gradientUnits="userSpaceOnUse" x1="2.0685" y1="4.8996" x2="258.255" y2="134.7476">
		<stop  offset="0" style="stop-color:#ED802E"/>
		<stop  offset="5.431658e-002" style="stop-color:#EC873A"/>
		<stop  offset="0.1518" style="stop-color:#E89B59"/>
		<stop  offset="0.2813" style="stop-color:#E1BA8B"/>
		<stop  offset="0.4134" style="stop-color:#DADEC6"/>
		<stop  offset="0.7675" style="stop-color:#A1D4D1"/>
		<stop  offset="1" style="stop-color:#6ACBDF"/>
	</linearGradient>
	<circle id="XMLID_241_" class="st4" cx="75.4" cy="42.1" r="11.2"/>
	<linearGradient id="XMLID_68_" gradientUnits="userSpaceOnUse" x1="32.4165" y1="53.4129" x2="288.603" y2="183.2608">
		<stop  offset="0" style="stop-color:#ED802E"/>
		<stop  offset="5.431658e-002" style="stop-color:#EC873A"/>
		<stop  offset="0.1518" style="stop-color:#E89B59"/>
		<stop  offset="0.2813" style="stop-color:#E1BA8B"/>
		<stop  offset="0.4134" style="stop-color:#DADEC6"/>
		<stop  offset="0.7675" style="stop-color:#A1D4D1"/>
		<stop  offset="1" style="stop-color:#6ACBDF"/>
	</linearGradient>
	<circle id="XMLID_214_" class="st5" cx="105.8" cy="90.6" r="11.2"/>
	<linearGradient id="XMLID_69_" gradientUnits="userSpaceOnUse" x1="-23.8086" y1="55.9546" x2="232.3778" y2="185.8025">
		<stop  offset="0" style="stop-color:#ED802E"/>
		<stop  offset="5.431658e-002" style="stop-color:#EC873A"/>
		<stop  offset="0.1518" style="stop-color:#E89B59"/>
		<stop  offset="0.2813" style="stop-color:#E1BA8B"/>
		<stop  offset="0.4134" style="stop-color:#DADEC6"/>
		<stop  offset="0.7675" style="stop-color:#A1D4D1"/>
		<stop  offset="1" style="stop-color:#6ACBDF"/>
	</linearGradient>
	<circle id="XMLID_213_" class="st6" cx="44.5" cy="90.6" r="11.2"/>
</g>
<g id="XMLID_1_">
	<g id="XMLID_24_">
		<polygon id="XMLID_62_" class="st7" points="272.2,41.4 265.7,41.4 246.9,89.3 254.8,89.3 269,50.1 283,89.3 290.8,89.3 		"/>
		<polygon id="XMLID_25_" class="st7" points="246.9,89.3 290.8,89.3 286.1,82.9 253.9,82.9 		"/>
	</g>
	<path id="XMLID_66_" class="st7" d="M178.7,73.7c0.1,3.7,1,6.4,2.9,8.1c1.8,1.7,4.5,2.6,8.1,2.6c3.1,0,6.1-0.5,8.9-1.6
		c0.4,0.7,0.6,1.5,0.9,2.4c0.2,0.9,0.4,1.9,0.4,2.8c-1.4,0.6-3,1.1-4.8,1.4c-1.7,0.3-3.7,0.5-5.8,0.5c-3.1,0-5.7-0.4-7.9-1.3
		c-2.2-0.9-4-2.1-5.4-3.6c-1.4-1.6-2.5-3.4-3.1-5.5c-0.7-2.1-1-4.5-1-7c0-2.5,0.3-4.8,1-7c0.6-2.2,1.6-4.1,2.9-5.7
		c1.3-1.6,3-2.9,5-3.8c2-0.9,4.4-1.4,7.1-1.4c2.3,0,4.4,0.4,6.1,1.2c1.8,0.8,3.2,1.9,4.4,3.3c1.2,1.4,2.1,3,2.7,4.9
		c0.6,1.9,0.9,4,0.9,6.2c0,0.6,0,1.3-0.1,1.9c0,0.7-0.1,1.3-0.1,1.7H178.7z M195.4,68.8c0-1.2-0.2-2.4-0.5-3.5
		c-0.3-1.1-0.8-2.1-1.4-2.9c-0.6-0.8-1.4-1.5-2.4-2c-1-0.5-2.2-0.8-3.5-0.8c-2.7,0-4.7,0.8-6.2,2.4c-1.4,1.6-2.3,3.9-2.6,6.8H195.4z
		"/>
	<path id="XMLID_210_" class="st7" d="M241.2,82.1c1,1.9,1.6,3.7,1.8,5.5c-1.8,0.8-3.7,1.4-5.7,1.7c-1.9,0.4-4,0.5-6.3,0.5
		c-3.4,0-6.5-0.6-9.3-1.7c-2.7-1.1-5.1-2.7-7-4.8c-1.9-2.1-3.3-4.6-4.3-7.6c-1-3-1.5-6.3-1.5-10.1c0-3.8,0.5-7.2,1.5-10.2
		c1-3.1,2.5-5.7,4.3-7.8c1.9-2.2,4.2-3.8,6.9-5c2.7-1.2,5.8-1.7,9.2-1.7c2.5,0,4.7,0.2,6.5,0.5c1.8,0.4,3.4,0.8,4.8,1.3
		c-0.1,1-0.3,1.9-0.6,2.8c-0.3,0.9-0.6,1.8-1,2.7c-0.7-0.2-1.3-0.4-1.9-0.6c-0.6-0.2-1.3-0.3-2-0.5c-0.7-0.1-1.5-0.2-2.3-0.3
		c-0.9-0.1-1.8-0.1-2.9-0.1c-4.8,0-8.5,1.6-11.2,4.9c-2.7,3.3-4,7.9-4,14c0,3.1,0.4,5.8,1.1,8.1c0.7,2.3,1.8,4.2,3.2,5.7
		c1.4,1.5,3,2.6,4.9,3.4c1.9,0.7,4.1,1.1,6.4,1.1c1.8,0,3.5-0.2,5-0.5C238.5,83.1,239.9,82.7,241.2,82.1z"/>
	<g id="XMLID_3_">
		<path id="XMLID_7_" class="st7" d="M307.3,42.2c1.7-0.3,3.4-0.4,5-0.4c1.7,0,3.4,0.1,5,0.4L328,69l11-26.8
			c1.3-0.3,2.8-0.4,4.5-0.4c1.6,0,3.2,0.1,4.7,0.4l2.2,46.7c-1.6,0.3-3.2,0.4-4.7,0.4s-2.9-0.1-4.3-0.4l-1.2-31.7l-9.5,22
			c-0.6,0.1-1.2,0.2-1.9,0.2c-0.7,0.1-1.3,0.1-2,0.1c-0.6,0-1.1,0-1.7-0.1c-0.6,0-1.1-0.1-1.8-0.3l-8.8-22.4l-0.9,32.2
			c-1.4,0.3-2.7,0.4-4,0.4c-1.4,0-2.8-0.1-4.3-0.4L307.3,42.2z"/>
		<path id="XMLID_9_" class="st7" d="M375.8,66.8c0-1-0.2-1.9-0.5-2.5c-0.3-0.7-0.8-1.2-1.4-1.5c-0.6-0.4-1.4-0.6-2.2-0.7
			c-0.9-0.1-1.9-0.2-3-0.2c-2.3,0-4.8,0.5-7.5,1.4c-0.6-1.1-1.1-2.2-1.4-3.2c-0.3-1-0.5-2.2-0.5-3.6c1.9-0.7,3.8-1.1,5.7-1.4
			c1.9-0.3,3.7-0.5,5.3-0.5c4.5,0,8,1.1,10.6,3.2c2.5,2.2,3.8,5.6,3.8,10.4v19.5c-1.5,0.5-3.4,0.9-5.5,1.4c-2.2,0.4-4.6,0.6-7.3,0.6
			c-2.2,0-4.2-0.2-6.1-0.6c-1.8-0.4-3.4-1-4.7-2c-1.3-0.9-2.3-2.1-3.1-3.5c-0.7-1.4-1.1-3.2-1.1-5.3c0-2.1,0.4-3.8,1.3-5.2
			c0.9-1.4,2-2.5,3.4-3.4s3-1.4,4.7-1.8c1.7-0.4,3.5-0.5,5.2-0.5c1.3,0,2.6,0.1,4.2,0.2V66.8z M375.8,73.5c-0.5-0.1-1.1-0.2-1.7-0.2
			c-0.6-0.1-1.1-0.1-1.6-0.1c-2.1,0-3.8,0.4-5,1.1c-1.2,0.8-1.9,2-1.9,3.7c0,1.1,0.2,2,0.7,2.6c0.5,0.6,1,1.1,1.7,1.3
			c0.7,0.3,1.4,0.5,2.1,0.5c0.8,0.1,1.4,0.1,2,0.1c0.6,0,1.3-0.1,1.9-0.2c0.7-0.1,1.2-0.2,1.7-0.3V73.5z"/>
		<path id="XMLID_12_" class="st7" d="M392.9,55.3c0.6-0.1,1.2-0.2,1.8-0.3c0.6-0.1,1.3-0.1,2-0.1c0.7,0,1.4,0,2,0.1
			c0.6,0.1,1.1,0.2,1.8,0.3c0.1,0.2,0.2,0.5,0.4,0.9c0.1,0.4,0.2,0.8,0.3,1.3c0.1,0.5,0.2,0.9,0.2,1.3c0.1,0.4,0.1,0.8,0.2,1.1
			c0.4-0.7,1-1.3,1.6-2c0.6-0.7,1.3-1.2,2.1-1.8c0.8-0.5,1.7-0.9,2.7-1.3c1-0.3,2.1-0.5,3.3-0.5c3.8,0,6.7,1,8.6,3.1
			c1.9,2.1,2.9,5.3,2.9,9.8v21.4c-1.6,0.3-3.1,0.4-4.6,0.4c-1.5,0-3.1-0.1-4.6-0.4v-19c0-2.3-0.4-4.1-1.1-5.4
			c-0.7-1.3-2-1.9-3.7-1.9c-0.7,0-1.5,0.1-2.3,0.3c-0.8,0.2-1.5,0.6-2.1,1.3c-0.6,0.6-1.1,1.5-1.5,2.6c-0.4,1.1-0.6,2.6-0.6,4.4
			v17.6c-1.6,0.3-3.1,0.4-4.6,0.4c-1.5,0-3.1-0.1-4.6-0.4V55.3z"/>
		<path id="XMLID_14_" class="st7" d="M447.8,66.8c0-1-0.2-1.9-0.5-2.5c-0.3-0.7-0.8-1.2-1.4-1.5c-0.6-0.4-1.4-0.6-2.2-0.7
			c-0.9-0.1-1.9-0.2-3-0.2c-2.3,0-4.8,0.5-7.5,1.4c-0.6-1.1-1.1-2.2-1.4-3.2c-0.3-1-0.5-2.2-0.5-3.6c1.9-0.7,3.8-1.1,5.7-1.4
			c1.9-0.3,3.7-0.5,5.3-0.5c4.5,0,8,1.1,10.6,3.2c2.5,2.2,3.8,5.6,3.8,10.4v19.5c-1.5,0.5-3.4,0.9-5.5,1.4c-2.2,0.4-4.6,0.6-7.3,0.6
			c-2.2,0-4.2-0.2-6.1-0.6c-1.8-0.4-3.4-1-4.7-2c-1.3-0.9-2.3-2.1-3.1-3.5c-0.7-1.4-1.1-3.2-1.1-5.3c0-2.1,0.4-3.8,1.3-5.2
			c0.9-1.4,2-2.5,3.4-3.4s3-1.4,4.7-1.8c1.7-0.4,3.5-0.5,5.2-0.5c1.3,0,2.6,0.1,4.2,0.2V66.8z M447.8,73.5c-0.5-0.1-1.1-0.2-1.7-0.2
			c-0.6-0.1-1.1-0.1-1.6-0.1c-2.1,0-3.8,0.4-5,1.1c-1.2,0.8-1.9,2-1.9,3.7c0,1.1,0.2,2,0.7,2.6c0.5,0.6,1,1.1,1.7,1.3
			c0.7,0.3,1.4,0.5,2.1,0.5c0.8,0.1,1.4,0.1,2,0.1c0.6,0,1.3-0.1,1.9-0.2c0.7-0.1,1.2-0.2,1.7-0.3V73.5z"/>
		<path id="XMLID_17_" class="st7" d="M483.8,83.3c3.9,0.1,6.8,1,8.7,2.6c1.9,1.7,2.8,4,2.8,7.1c0,1.8-0.5,3.5-1.4,5
			c-1,1.5-2.3,2.8-3.9,3.8c-1.6,1-3.6,1.8-5.8,2.4c-2.3,0.6-4.7,0.8-7.3,0.8s-4.8-0.2-6.6-0.6s-3.3-1-4.4-1.7
			c-1.1-0.7-2-1.6-2.5-2.7c-0.5-1.1-0.7-2.3-0.7-3.6c0-1.9,0.5-3.5,1.4-4.8c0.9-1.3,2.2-2.4,3.7-3.3c-1-0.6-1.8-1.4-2.4-2.2
			c-0.6-0.9-0.9-2-0.9-3.4c0-1.6,0.3-3,1-4c0.7-1,1.7-2,3.1-3c-1.5-1.1-2.7-2.4-3.5-4c-0.8-1.6-1.2-3.3-1.2-5.2c0-1.7,0.3-3.3,1-4.7
			c0.6-1.5,1.6-2.7,2.8-3.8c1.2-1.1,2.7-1.9,4.5-2.5c1.8-0.6,3.8-0.9,6-0.9c2.2,0,4.2,0.3,6,1c1.8,0.7,3.3,1.5,4.5,2.6
			c0.8-1.1,1.8-1.9,3.1-2.4c1.2-0.5,2.9-0.8,4.9-0.8c0.1,0.6,0.2,1.1,0.2,1.7c0.1,0.5,0.1,1.1,0.1,1.7c0,0.7,0,1.4-0.1,2.1
			c0,0.7-0.1,1.4-0.3,2.1h-5.3c0.2,0.4,0.4,1,0.6,1.6c0.2,0.6,0.3,1.4,0.3,2.4c0,1.7-0.3,3.3-0.9,4.7c-0.6,1.4-1.5,2.7-2.8,3.7
			c-1.2,1-2.7,1.9-4.5,2.5c-1.8,0.6-3.7,0.9-5.9,0.9c-1.9,0-3.5-0.2-5-0.6c-0.7,0.5-1.2,1-1.4,1.5c-0.2,0.5-0.3,1.1-0.3,1.5
			c0,0.7,0.2,1.3,0.7,1.7c0.5,0.4,1.4,0.7,2.8,0.7L483.8,83.3z M475.5,90.1c-1,0-1.7,0.1-2.4,0.3c-0.6,0.3-1.1,0.6-1.5,1
			c-0.4,0.4-0.6,0.9-0.8,1.4c-0.2,0.5-0.2,1-0.2,1.5c0,1.6,0.6,2.8,1.9,3.3c1.2,0.6,2.9,0.9,5,0.9c2.7,0,4.9-0.4,6.6-1.3
			c1.7-0.9,2.5-2,2.5-3.5c0-0.4-0.1-0.8-0.2-1.2c-0.1-0.4-0.3-0.8-0.6-1.1c-0.3-0.3-0.7-0.6-1.3-0.8c-0.5-0.2-1.3-0.3-2.2-0.3
			L475.5,90.1z M478.1,72.3c1.8,0,3.1-0.5,3.9-1.6c0.8-1,1.2-2.5,1.2-4.3s-0.4-3.3-1.2-4.3c-0.8-1.1-2.1-1.6-3.9-1.6
			c-1.9,0-3.2,0.5-4,1.6c-0.8,1.1-1.2,2.5-1.2,4.3s0.4,3.2,1.2,4.3C474.9,71.8,476.3,72.3,478.1,72.3z"/>
		<path id="XMLID_21_" class="st7" d="M508.4,74.9c0.2,2.6,1.1,4.5,2.7,5.7c1.6,1.2,3.8,1.8,6.5,1.8c1.5,0,3-0.1,4.5-0.4
			c1.5-0.3,3-0.7,4.4-1.2c0.5,0.9,0.9,1.9,1.2,3.1c0.3,1.2,0.5,2.5,0.6,3.9c-3.4,1.3-7.2,1.9-11.4,1.9c-3.1,0-5.8-0.4-8-1.3
			c-2.2-0.9-4-2.1-5.5-3.6c-1.4-1.5-2.4-3.4-3.1-5.5c-0.7-2.1-1-4.4-1-6.9c0-2.5,0.3-4.8,1-7c0.7-2.2,1.7-4,3.1-5.7
			c1.4-1.6,3.1-2.9,5.1-3.8c2-0.9,4.4-1.4,7-1.4c2.3,0,4.4,0.4,6.2,1.2c1.8,0.8,3.4,2,4.6,3.4s2.2,3.1,2.9,5.1c0.7,2,1,4.1,1,6.3
			c0,0.8,0,1.6-0.1,2.4c-0.1,0.8-0.1,1.4-0.2,1.9H508.4z M521.6,68.5c-0.1-2.1-0.7-3.8-1.7-5c-1.1-1.3-2.5-1.9-4.4-1.9
			c-2.2,0-3.8,0.6-4.9,1.8s-1.8,2.9-2,5.1H521.6z"/>
		<path id="XMLID_26_" class="st7" d="M537.6,55.3c0.7-0.1,1.3-0.2,1.9-0.3c0.6-0.1,1.2-0.1,1.9-0.1c0.6,0,1.3,0,1.9,0.1
			c0.6,0.1,1.2,0.2,1.8,0.3c0.1,0.2,0.2,0.5,0.4,0.9c0.1,0.4,0.2,0.8,0.3,1.3s0.2,0.9,0.2,1.4c0.1,0.5,0.1,0.8,0.2,1.1
			c1-1.3,2.1-2.5,3.5-3.6c1.4-1.1,3.1-1.6,5.2-1.6c0.4,0,0.9,0,1.5,0.1c0.6,0,1,0.1,1.2,0.2c0.1,0.4,0.2,0.9,0.2,1.5
			c0,0.6,0.1,1.1,0.1,1.8c0,0.7,0,1.5-0.1,2.4c-0.1,0.9-0.2,1.7-0.4,2.5c-0.5-0.1-1-0.1-1.6-0.1s-0.9,0-1.1,0
			c-0.7,0-1.6,0.1-2.5,0.2c-0.9,0.2-1.8,0.5-2.6,1.2c-0.8,0.7-1.5,1.6-2,2.9s-0.8,3.1-0.8,5.5v16c-0.8,0.1-1.6,0.2-2.3,0.3
			c-0.8,0-1.5,0.1-2.3,0.1s-1.5,0-2.2-0.1c-0.8,0-1.5-0.1-2.4-0.3V55.3z"/>
		<path id="XMLID_28_" class="st7" d="M563.7,55.3c0.6-0.1,1.2-0.2,1.8-0.3c0.6-0.1,1.3-0.1,2-0.1c0.7,0,1.4,0,2,0.1
			c0.6,0.1,1.1,0.2,1.8,0.3c0.1,0.2,0.2,0.5,0.4,0.9c0.1,0.4,0.2,0.8,0.3,1.3c0.1,0.5,0.2,0.9,0.2,1.3c0.1,0.4,0.1,0.8,0.2,1.1
			c0.3-0.7,0.8-1.3,1.4-2c0.6-0.7,1.2-1.2,2-1.8c0.8-0.5,1.7-0.9,2.6-1.3c1-0.3,2.1-0.5,3.3-0.5c5.2,0,8.6,2,10.1,6
			c0.9-1.6,2.1-3,3.7-4.2c1.6-1.2,3.6-1.8,6-1.8c3.8,0,6.6,1,8.4,3.2c1.8,2.1,2.7,5.4,2.7,9.8v21.4c-1.6,0.3-3.1,0.4-4.6,0.4
			c-1.5,0-3.1-0.1-4.6-0.4v-19c0-2.3-0.3-4.1-0.9-5.4c-0.6-1.3-1.8-1.9-3.5-1.9c-0.7,0-1.5,0.1-2.2,0.3s-1.4,0.6-1.9,1.2
			c-0.6,0.6-1.1,1.4-1.4,2.5c-0.4,1.1-0.6,2.4-0.6,4.1v18.1c-1.6,0.3-3.1,0.4-4.6,0.4c-1.5,0-3.1-0.1-4.6-0.4v-19
			c0-2.3-0.3-4.1-0.9-5.4c-0.6-1.3-1.8-1.9-3.5-1.9c-0.7,0-1.5,0.1-2.2,0.3c-0.7,0.2-1.4,0.6-2,1.3c-0.6,0.6-1,1.5-1.4,2.6
			c-0.3,1.1-0.5,2.6-0.5,4.4v17.6c-1.6,0.3-3.1,0.4-4.6,0.4c-1.5,0-3.1-0.1-4.6-0.4V55.3z"/>
		<path id="XMLID_30_" class="st7" d="M628.1,74.9c0.2,2.6,1.1,4.5,2.7,5.7c1.6,1.2,3.8,1.8,6.5,1.8c1.5,0,3-0.1,4.5-0.4
			c1.5-0.3,3-0.7,4.4-1.2c0.5,0.9,0.9,1.9,1.2,3.1c0.3,1.2,0.5,2.5,0.6,3.9c-3.4,1.3-7.2,1.9-11.4,1.9c-3.1,0-5.8-0.4-8-1.3
			c-2.2-0.9-4-2.1-5.5-3.6c-1.4-1.5-2.4-3.4-3.1-5.5c-0.7-2.1-1-4.4-1-6.9c0-2.5,0.3-4.8,1-7c0.7-2.2,1.7-4,3.1-5.7
			c1.4-1.6,3.1-2.9,5.1-3.8c2-0.9,4.4-1.4,7-1.4c2.3,0,4.4,0.4,6.2,1.2c1.8,0.8,3.4,2,4.6,3.4s2.2,3.1,2.9,5.1c0.7,2,1,4.1,1,6.3
			c0,0.8,0,1.6-0.1,2.4c-0.1,0.8-0.1,1.4-0.2,1.9H628.1z M641.3,68.5c-0.1-2.1-0.7-3.8-1.7-5c-1.1-1.3-2.5-1.9-4.4-1.9
			c-2.2,0-3.8,0.6-4.9,1.8s-1.8,2.9-2,5.1H641.3z"/>
		<path id="XMLID_53_" class="st7" d="M657.3,55.3c0.6-0.1,1.2-0.2,1.8-0.3c0.6-0.1,1.3-0.1,2-0.1c0.7,0,1.4,0,2,0.1
			c0.6,0.1,1.1,0.2,1.8,0.3c0.1,0.2,0.2,0.5,0.4,0.9c0.1,0.4,0.2,0.8,0.3,1.3c0.1,0.5,0.2,0.9,0.2,1.3c0.1,0.4,0.1,0.8,0.2,1.1
			c0.4-0.7,1-1.3,1.6-2c0.6-0.7,1.3-1.2,2.1-1.8c0.8-0.5,1.7-0.9,2.7-1.3c1-0.3,2.1-0.5,3.3-0.5c3.8,0,6.7,1,8.6,3.1
			c1.9,2.1,2.9,5.3,2.9,9.8v21.4c-1.6,0.3-3.1,0.4-4.6,0.4c-1.5,0-3.1-0.1-4.6-0.4v-19c0-2.3-0.4-4.1-1.1-5.4
			c-0.7-1.3-2-1.9-3.7-1.9c-0.7,0-1.5,0.1-2.3,0.3c-0.8,0.2-1.5,0.6-2.1,1.3c-0.6,0.6-1.1,1.5-1.5,2.6c-0.4,1.1-0.6,2.6-0.6,4.4
			v17.6c-1.6,0.3-3.1,0.4-4.6,0.4c-1.5,0-3.1-0.1-4.6-0.4V55.3z"/>
		<path id="XMLID_55_" class="st7" d="M696.3,62.3h-4.2l-0.3-1.3l12.1-15.5h1.5v9.8h7.9c0.1,0.7,0.2,1.2,0.3,1.8
			c0,0.5,0.1,1.1,0.1,1.6c0,0.6,0,1.2-0.1,1.8c0,0.6-0.1,1.2-0.3,1.9h-7.9v13.2c0,1.3,0.1,2.4,0.3,3.2c0.2,0.8,0.5,1.5,0.9,2
			s0.9,0.8,1.5,1c0.6,0.2,1.3,0.3,2.1,0.3c0.7,0,1.3-0.1,1.9-0.2c0.6-0.1,1.2-0.2,1.7-0.3c0.3,0.8,0.5,1.7,0.7,2.6
			c0.1,0.9,0.2,1.7,0.2,2.4c0,0.5,0,0.9,0,1.2c0,0.3-0.1,0.6-0.1,0.9c-2,0.5-4,0.7-6.2,0.7c-3.9,0-7-0.9-9-2.8
			c-2.1-1.8-3.1-4.8-3.1-9V62.3z"/>
	</g>
</g>
</svg>
