<?xml version="1.0" encoding="utf-8"?>
<!-- Generator: Adobe Illustrator 19.0.0, SVG Export Plug-In . SVG Version: 6.00 Build 0)  -->
<svg version="1.1" id="Layer_1" xmlns="http://www.w3.org/2000/svg" xmlns:xlink="http://www.w3.org/1999/xlink" x="0px" y="0px"
	 viewBox="0 0 366.1 146.3" style="enable-background:new 0 0 366.1 146.3;" xml:space="preserve">
<style type="text/css">
	.st0{fill:url(#XMLID_99_);}
	.st1{fill:url(#XMLID_100_);}
	.st2{fill:url(#XMLID_101_);}
	.st3{fill:url(#XMLID_102_);}
	.st4{fill:url(#XMLID_103_);}
	.st5{fill:url(#XMLID_104_);}
	.st6{fill:url(#XMLID_105_);}
	.st7{fill:#FFFFFF;}
	.st8{fill:url(#XMLID_106_);}
	.st9{fill:url(#XMLID_107_);}
	.st10{fill:url(#XMLID_108_);}
	.st11{fill:url(#XMLID_109_);}
	.st12{fill:url(#XMLID_110_);}
	.st13{fill:url(#XMLID_111_);}
	.st14{fill:url(#XMLID_112_);}
</style>
<g id="XMLID_212_">
	<g id="XMLID_248_">
		<linearGradient id="XMLID_99_" gradientUnits="userSpaceOnUse" x1="79.2374" y1="410.6808" x2="76.5067" y2="381.4024">
			<stop  offset="0.1521" style="stop-color:#ED802E"/>
			<stop  offset="0.1712" style="stop-color:#EB8335"/>
			<stop  offset="0.3754" style="stop-color:#D7A27A"/>
			<stop  offset="0.546" style="stop-color:#C8B9AD"/>
			<stop  offset="0.6743" style="stop-color:#BEC7CC"/>
			<stop  offset="0.7458" style="stop-color:#BBCCD8"/>
		</linearGradient>
		<path id="XMLID_249_" class="st0" d="M75.4,398.5c-8.4,0-16.8-2.1-24.3-6.3L11,369.8l8.3-14.9l40.1,22.4c9.9,5.5,22.1,5.5,32,0
			l40.1-22.4l8.3,14.9l-40.1,22.4C92.2,396.4,83.8,398.5,75.4,398.5z"/>
	</g>
	<g id="XMLID_246_">
		<linearGradient id="XMLID_100_" gradientUnits="userSpaceOnUse" x1="186.7053" y1="521.0731" x2="-206.8674" y2="190.8264">
			<stop  offset="0.208" style="stop-color:#6ACBDF"/>
			<stop  offset="0.2354" style="stop-color:#76CDDC"/>
			<stop  offset="0.2845" style="stop-color:#94D2D6"/>
			<stop  offset="0.349" style="stop-color:#C6DBCB"/>
			<stop  offset="0.3731" style="stop-color:#DADEC6"/>
			<stop  offset="0.3961" style="stop-color:#CEDCC9"/>
			<stop  offset="0.4913" style="stop-color:#A3D5D2"/>
			<stop  offset="0.5769" style="stop-color:#84CFD9"/>
			<stop  offset="0.6491" style="stop-color:#71CCDD"/>
			<stop  offset="0.6993" style="stop-color:#6ACBDF"/>
		</linearGradient>
		<path id="XMLID_247_" class="st1" d="M83.9,458.4H66.9v-38.1c0-11.8-6.4-22.8-16.7-28.6l-35.6-19.9l8.3-14.9l35.6,19.9
			c15.7,8.8,25.5,25.4,25.5,43.4V458.4z"/>
	</g>
	<g id="XMLID_244_">
		<linearGradient id="XMLID_101_" gradientUnits="userSpaceOnUse" x1="36.2651" y1="502.5038" x2="151.8211" y2="302.3549">
			<stop  offset="0" style="stop-color:#F16A21"/>
			<stop  offset="0.4725" style="stop-color:#DADEC6"/>
			<stop  offset="0.8244" style="stop-color:#6ACBDF"/>
			<stop  offset="1" style="stop-color:#FFFFFF"/>
		</linearGradient>
		<path id="XMLID_245_" class="st2" d="M83.9,458.4H66.9v-38.1c0-18,9.8-34.7,25.5-43.4l35.6-19.9l8.3,14.9l-35.6,19.9
			c-10.3,5.8-16.7,16.7-16.7,28.6V458.4z"/>
	</g>
	<g id="XMLID_242_">
		<linearGradient id="XMLID_102_" gradientUnits="userSpaceOnUse" x1="26.8129" y1="475.558" x2="134.2113" y2="289.5385">
			<stop  offset="0" style="stop-color:#ED802E"/>
			<stop  offset="5.431658e-002" style="stop-color:#EC873A"/>
			<stop  offset="0.1518" style="stop-color:#E89B59"/>
			<stop  offset="0.2813" style="stop-color:#E1BA8B"/>
			<stop  offset="0.4134" style="stop-color:#DADEC6"/>
			<stop  offset="0.7675" style="stop-color:#A1D4D1"/>
			<stop  offset="1" style="stop-color:#6ACBDF"/>
		</linearGradient>
		<path id="XMLID_243_" class="st3" d="M150.9,391.5c0,41.6-33.8,75.4-75.4,75.4C33.8,466.9,0,433.1,0,391.5
			c0-25.2,12.2-48,32.3-61.9c4.8-3.3,10-6.2,15.7-8.4c4.4-1.7,9.3,0.4,11.1,4.8c0.2,0.6,0.4,1.2,0.5,1.7c0.6,3.9-1.5,7.8-5.3,9.3
			c-5.6,2.2-10.7,5.2-15.2,8.7C25.3,356.7,17,373.3,17,391.5c0,32.2,26.2,58.4,58.4,58.4c32.2,0,58.4-26.2,58.4-58.4
			c0-18.2-8.2-34.8-21.9-45.6c-4.5-3.6-9.6-6.6-15.2-8.7c-3.8-1.5-6-5.4-5.3-9.3c0.1-0.6,0.2-1.2,0.5-1.7c1.7-4.4,6.7-6.6,11.1-4.8
			c5.6,2.2,10.8,5,15.6,8.3C138.6,343.4,150.9,366.2,150.9,391.5z"/>
	</g>
	<linearGradient id="XMLID_103_" gradientUnits="userSpaceOnUse" x1="2.0685" y1="325.5238" x2="258.255" y2="455.3717">
		<stop  offset="0" style="stop-color:#ED802E"/>
		<stop  offset="5.431658e-002" style="stop-color:#EC873A"/>
		<stop  offset="0.1518" style="stop-color:#E89B59"/>
		<stop  offset="0.2813" style="stop-color:#E1BA8B"/>
		<stop  offset="0.4134" style="stop-color:#DADEC6"/>
		<stop  offset="0.7675" style="stop-color:#A1D4D1"/>
		<stop  offset="1" style="stop-color:#6ACBDF"/>
	</linearGradient>
	<circle id="XMLID_241_" class="st4" cx="75.4" cy="362.7" r="11.2"/>
	<linearGradient id="XMLID_104_" gradientUnits="userSpaceOnUse" x1="32.4165" y1="374.037" x2="288.603" y2="503.885">
		<stop  offset="0" style="stop-color:#ED802E"/>
		<stop  offset="5.431658e-002" style="stop-color:#EC873A"/>
		<stop  offset="0.1518" style="stop-color:#E89B59"/>
		<stop  offset="0.2813" style="stop-color:#E1BA8B"/>
		<stop  offset="0.4134" style="stop-color:#DADEC6"/>
		<stop  offset="0.7675" style="stop-color:#A1D4D1"/>
		<stop  offset="1" style="stop-color:#6ACBDF"/>
	</linearGradient>
	<circle id="XMLID_214_" class="st5" cx="105.8" cy="411.2" r="11.2"/>
	<linearGradient id="XMLID_105_" gradientUnits="userSpaceOnUse" x1="-23.8086" y1="376.5787" x2="232.3778" y2="506.4267">
		<stop  offset="0" style="stop-color:#ED802E"/>
		<stop  offset="5.431658e-002" style="stop-color:#EC873A"/>
		<stop  offset="0.1518" style="stop-color:#E89B59"/>
		<stop  offset="0.2813" style="stop-color:#E1BA8B"/>
		<stop  offset="0.4134" style="stop-color:#DADEC6"/>
		<stop  offset="0.7675" style="stop-color:#A1D4D1"/>
		<stop  offset="1" style="stop-color:#6ACBDF"/>
	</linearGradient>
	<circle id="XMLID_213_" class="st6" cx="44.5" cy="411.2" r="11.2"/>
</g>
<g id="XMLID_1_">
	<g id="XMLID_24_">
		<polygon id="XMLID_62_" class="st7" points="272.2,362 265.7,362 246.9,409.9 254.8,409.9 269,370.7 283,409.9 290.8,409.9 		"/>
		<polygon id="XMLID_25_" class="st7" points="246.9,409.9 290.8,409.9 286.1,403.5 253.9,403.5 		"/>
	</g>
	<path id="XMLID_66_" class="st7" d="M178.7,394.3c0.1,3.7,1,6.4,2.9,8.1c1.8,1.7,4.5,2.6,8.1,2.6c3.1,0,6.1-0.5,8.9-1.6
		c0.4,0.7,0.6,1.5,0.9,2.4c0.2,0.9,0.4,1.9,0.4,2.8c-1.4,0.6-3,1.1-4.8,1.4c-1.7,0.3-3.7,0.5-5.8,0.5c-3.1,0-5.7-0.4-7.9-1.3
		c-2.2-0.9-4-2.1-5.4-3.6c-1.4-1.6-2.5-3.4-3.1-5.5c-0.7-2.1-1-4.5-1-7c0-2.5,0.3-4.8,1-7c0.6-2.2,1.6-4.1,2.9-5.7
		c1.3-1.6,3-2.9,5-3.8c2-0.9,4.4-1.4,7.1-1.4c2.3,0,4.4,0.4,6.1,1.2c1.8,0.8,3.2,1.9,4.4,3.3c1.2,1.4,2.1,3,2.7,4.9
		c0.6,1.9,0.9,4,0.9,6.2c0,0.6,0,1.3-0.1,1.9c0,0.7-0.1,1.3-0.1,1.7H178.7z M195.4,389.5c0-1.2-0.2-2.4-0.5-3.5
		c-0.3-1.1-0.8-2.1-1.4-2.9c-0.6-0.8-1.4-1.5-2.4-2c-1-0.5-2.2-0.8-3.5-0.8c-2.7,0-4.7,0.8-6.2,2.4c-1.4,1.6-2.3,3.9-2.6,6.8H195.4z
		"/>
	<path id="XMLID_210_" class="st7" d="M241.2,402.7c1,1.9,1.6,3.7,1.8,5.5c-1.8,0.8-3.7,1.4-5.7,1.7c-1.9,0.4-4,0.5-6.3,0.5
		c-3.4,0-6.5-0.6-9.3-1.7c-2.7-1.1-5.1-2.7-7-4.8c-1.9-2.1-3.3-4.6-4.3-7.6c-1-3-1.5-6.3-1.5-10.1c0-3.8,0.5-7.2,1.5-10.2
		c1-3.1,2.5-5.7,4.3-7.8c1.9-2.2,4.2-3.8,6.9-5c2.7-1.2,5.8-1.7,9.2-1.7c2.5,0,4.7,0.2,6.5,0.5c1.8,0.4,3.4,0.8,4.8,1.3
		c-0.1,1-0.3,1.9-0.6,2.8c-0.3,0.9-0.6,1.8-1,2.7c-0.7-0.2-1.3-0.4-1.9-0.6c-0.6-0.2-1.3-0.3-2-0.5c-0.7-0.1-1.5-0.2-2.3-0.3
		c-0.9-0.1-1.8-0.1-2.9-0.1c-4.8,0-8.5,1.6-11.2,4.9c-2.7,3.3-4,7.9-4,14c0,3.1,0.4,5.8,1.1,8.1c0.7,2.3,1.8,4.2,3.2,5.7
		c1.4,1.5,3,2.6,4.9,3.4c1.9,0.7,4.1,1.1,6.4,1.1c1.8,0,3.5-0.2,5-0.5C238.5,403.7,239.9,403.3,241.2,402.7z"/>
	<g id="XMLID_3_">
		<path id="XMLID_7_" class="st7" d="M307.3,362.8c1.7-0.3,3.4-0.4,5-0.4c1.7,0,3.4,0.1,5,0.4l10.7,26.8l11-26.8
			c1.3-0.3,2.8-0.4,4.5-0.4c1.6,0,3.2,0.1,4.7,0.4l2.2,46.7c-1.6,0.3-3.2,0.4-4.7,0.4s-2.9-0.1-4.3-0.4l-1.2-31.7l-9.5,22
			c-0.6,0.1-1.2,0.2-1.9,0.2c-0.7,0.1-1.3,0.1-2,0.1c-0.6,0-1.1,0-1.7-0.1c-0.6,0-1.1-0.1-1.8-0.3l-8.8-22.4l-0.9,32.2
			c-1.4,0.3-2.7,0.4-4,0.4c-1.4,0-2.8-0.1-4.3-0.4L307.3,362.8z"/>
		<path id="XMLID_9_" class="st7" d="M375.8,387.4c0-1-0.2-1.9-0.5-2.5c-0.3-0.7-0.8-1.2-1.4-1.5c-0.6-0.4-1.4-0.6-2.2-0.7
			c-0.9-0.1-1.9-0.2-3-0.2c-2.3,0-4.8,0.5-7.5,1.4c-0.6-1.1-1.1-2.2-1.4-3.2c-0.3-1-0.5-2.2-0.5-3.6c1.9-0.7,3.8-1.1,5.7-1.4
			c1.9-0.3,3.7-0.5,5.3-0.5c4.5,0,8,1.1,10.6,3.2c2.5,2.2,3.8,5.6,3.8,10.4v19.5c-1.5,0.5-3.4,0.9-5.5,1.4c-2.2,0.4-4.6,0.6-7.3,0.6
			c-2.2,0-4.2-0.2-6.1-0.6c-1.8-0.4-3.4-1-4.7-2s-2.3-2.1-3.1-3.5c-0.7-1.4-1.1-3.2-1.1-5.3c0-2.1,0.4-3.8,1.3-5.2
			c0.9-1.4,2-2.5,3.4-3.4s3-1.4,4.7-1.8c1.7-0.4,3.5-0.5,5.2-0.5c1.3,0,2.6,0.1,4.2,0.2V387.4z M375.8,394.1
			c-0.5-0.1-1.1-0.2-1.7-0.2c-0.6-0.1-1.1-0.1-1.6-0.1c-2.1,0-3.8,0.4-5,1.1c-1.2,0.8-1.9,2-1.9,3.7c0,1.1,0.2,2,0.7,2.6
			c0.5,0.6,1,1.1,1.7,1.3s1.4,0.5,2.1,0.5c0.8,0.1,1.4,0.1,2,0.1c0.6,0,1.3-0.1,1.9-0.2c0.7-0.1,1.2-0.2,1.7-0.3V394.1z"/>
		<path id="XMLID_12_" class="st7" d="M392.9,375.9c0.6-0.1,1.2-0.2,1.8-0.3c0.6-0.1,1.3-0.1,2-0.1c0.7,0,1.4,0,2,0.1
			c0.6,0.1,1.1,0.2,1.8,0.3c0.1,0.2,0.2,0.5,0.4,0.9c0.1,0.4,0.2,0.8,0.3,1.3c0.1,0.5,0.2,0.9,0.2,1.3c0.1,0.4,0.1,0.8,0.2,1.1
			c0.4-0.7,1-1.3,1.6-2c0.6-0.7,1.3-1.2,2.1-1.8c0.8-0.5,1.7-0.9,2.7-1.3c1-0.3,2.1-0.5,3.3-0.5c3.8,0,6.7,1,8.6,3.1
			c1.9,2.1,2.9,5.3,2.9,9.8v21.4c-1.6,0.3-3.1,0.4-4.6,0.4c-1.5,0-3.1-0.1-4.6-0.4v-19c0-2.3-0.4-4.1-1.1-5.4
			c-0.7-1.3-2-1.9-3.7-1.9c-0.7,0-1.5,0.1-2.3,0.3c-0.8,0.2-1.5,0.6-2.1,1.3c-0.6,0.6-1.1,1.5-1.5,2.6c-0.4,1.1-0.6,2.6-0.6,4.4
			v17.6c-1.6,0.3-3.1,0.4-4.6,0.4c-1.5,0-3.1-0.1-4.6-0.4V375.9z"/>
		<path id="XMLID_14_" class="st7" d="M447.8,387.4c0-1-0.2-1.9-0.5-2.5c-0.3-0.7-0.8-1.2-1.4-1.5c-0.6-0.4-1.4-0.6-2.2-0.7
			c-0.9-0.1-1.9-0.2-3-0.2c-2.3,0-4.8,0.5-7.5,1.4c-0.6-1.1-1.1-2.2-1.4-3.2c-0.3-1-0.5-2.2-0.5-3.6c1.9-0.7,3.8-1.1,5.7-1.4
			c1.9-0.3,3.7-0.5,5.3-0.5c4.5,0,8,1.1,10.6,3.2c2.5,2.2,3.8,5.6,3.8,10.4v19.5c-1.5,0.5-3.4,0.9-5.5,1.4c-2.2,0.4-4.6,0.6-7.3,0.6
			c-2.2,0-4.2-0.2-6.1-0.6c-1.8-0.4-3.4-1-4.7-2s-2.3-2.1-3.1-3.5c-0.7-1.4-1.1-3.2-1.1-5.3c0-2.1,0.4-3.8,1.3-5.2
			c0.9-1.4,2-2.5,3.4-3.4s3-1.4,4.7-1.8c1.7-0.4,3.5-0.5,5.2-0.5c1.3,0,2.6,0.1,4.2,0.2V387.4z M447.8,394.1
			c-0.5-0.1-1.1-0.2-1.7-0.2c-0.6-0.1-1.1-0.1-1.6-0.1c-2.1,0-3.8,0.4-5,1.1c-1.2,0.8-1.9,2-1.9,3.7c0,1.1,0.2,2,0.7,2.6
			c0.5,0.6,1,1.1,1.7,1.3s1.4,0.5,2.1,0.5c0.8,0.1,1.4,0.1,2,0.1c0.6,0,1.3-0.1,1.9-0.2c0.7-0.1,1.2-0.2,1.7-0.3V394.1z"/>
		<path id="XMLID_17_" class="st7" d="M483.8,403.9c3.9,0.1,6.8,1,8.7,2.6c1.9,1.7,2.8,4,2.8,7.1c0,1.8-0.5,3.5-1.4,5
			c-1,1.5-2.3,2.8-3.9,3.8c-1.6,1-3.6,1.8-5.8,2.4c-2.3,0.6-4.7,0.8-7.3,0.8s-4.8-0.2-6.6-0.6s-3.3-1-4.4-1.7
			c-1.1-0.7-2-1.6-2.5-2.7c-0.5-1.1-0.7-2.3-0.7-3.6c0-1.9,0.5-3.5,1.4-4.8c0.9-1.3,2.2-2.4,3.7-3.3c-1-0.6-1.8-1.4-2.4-2.2
			c-0.6-0.9-0.9-2-0.9-3.4c0-1.6,0.3-3,1-4c0.7-1,1.7-2,3.1-3c-1.5-1.1-2.7-2.4-3.5-4c-0.8-1.6-1.2-3.3-1.2-5.2c0-1.7,0.3-3.3,1-4.7
			c0.6-1.5,1.6-2.7,2.8-3.8c1.2-1.1,2.7-1.9,4.5-2.5c1.8-0.6,3.8-0.9,6-0.9c2.2,0,4.2,0.3,6,1c1.8,0.7,3.3,1.5,4.5,2.6
			c0.8-1.1,1.8-1.9,3.1-2.4c1.2-0.5,2.9-0.8,4.9-0.8c0.1,0.6,0.2,1.1,0.2,1.7c0.1,0.5,0.1,1.1,0.1,1.7c0,0.7,0,1.4-0.1,2.1
			c0,0.7-0.1,1.4-0.3,2.1h-5.3c0.2,0.4,0.4,1,0.6,1.6c0.2,0.6,0.3,1.4,0.3,2.4c0,1.7-0.3,3.3-0.9,4.7c-0.6,1.4-1.5,2.7-2.8,3.7
			c-1.2,1-2.7,1.9-4.5,2.5c-1.8,0.6-3.7,0.9-5.9,0.9c-1.9,0-3.5-0.2-5-0.6c-0.7,0.5-1.2,1-1.4,1.5c-0.2,0.5-0.3,1.1-0.3,1.5
			c0,0.7,0.2,1.3,0.7,1.7c0.5,0.4,1.4,0.7,2.8,0.7L483.8,403.9z M475.5,410.7c-1,0-1.7,0.1-2.4,0.3c-0.6,0.3-1.1,0.6-1.5,1
			c-0.4,0.4-0.6,0.9-0.8,1.4c-0.2,0.5-0.2,1-0.2,1.5c0,1.6,0.6,2.8,1.9,3.3c1.2,0.6,2.9,0.9,5,0.9c2.7,0,4.9-0.4,6.6-1.3
			c1.7-0.9,2.5-2,2.5-3.5c0-0.4-0.1-0.8-0.2-1.2c-0.1-0.4-0.3-0.8-0.6-1.1c-0.3-0.3-0.7-0.6-1.3-0.8s-1.3-0.3-2.2-0.3L475.5,410.7z
			 M478.1,393c1.8,0,3.1-0.5,3.9-1.6c0.8-1,1.2-2.5,1.2-4.3s-0.4-3.3-1.2-4.3c-0.8-1.1-2.1-1.6-3.9-1.6c-1.9,0-3.2,0.5-4,1.6
			c-0.8,1.1-1.2,2.5-1.2,4.3s0.4,3.2,1.2,4.3C474.9,392.4,476.3,393,478.1,393z"/>
		<path id="XMLID_21_" class="st7" d="M508.4,395.6c0.2,2.6,1.1,4.5,2.7,5.7c1.6,1.2,3.8,1.8,6.5,1.8c1.5,0,3-0.1,4.5-0.4
			c1.5-0.3,3-0.7,4.4-1.2c0.5,0.9,0.9,1.9,1.2,3.1c0.3,1.2,0.5,2.5,0.6,3.9c-3.4,1.3-7.2,1.9-11.4,1.9c-3.1,0-5.8-0.4-8-1.3
			c-2.2-0.9-4-2.1-5.5-3.6c-1.4-1.5-2.4-3.4-3.1-5.5c-0.7-2.1-1-4.4-1-6.9c0-2.5,0.3-4.8,1-7c0.7-2.2,1.7-4,3.1-5.7
			c1.4-1.6,3.1-2.9,5.1-3.8c2-0.9,4.4-1.4,7-1.4c2.3,0,4.4,0.4,6.2,1.2c1.8,0.8,3.4,2,4.6,3.4s2.2,3.1,2.9,5.1c0.7,2,1,4.1,1,6.3
			c0,0.8,0,1.6-0.1,2.4c-0.1,0.8-0.1,1.4-0.2,1.9H508.4z M521.6,389.1c-0.1-2.1-0.7-3.8-1.7-5c-1.1-1.3-2.5-1.9-4.4-1.9
			c-2.2,0-3.8,0.6-4.9,1.8s-1.8,2.9-2,5.1H521.6z"/>
		<path id="XMLID_26_" class="st7" d="M537.6,375.9c0.7-0.1,1.3-0.2,1.9-0.3c0.6-0.1,1.2-0.1,1.9-0.1c0.6,0,1.3,0,1.9,0.1
			c0.6,0.1,1.2,0.2,1.8,0.3c0.1,0.2,0.2,0.5,0.4,0.9s0.2,0.8,0.3,1.3c0.1,0.5,0.2,0.9,0.2,1.4c0.1,0.5,0.1,0.8,0.2,1.1
			c1-1.3,2.1-2.5,3.5-3.6c1.4-1.1,3.1-1.6,5.2-1.6c0.4,0,0.9,0,1.5,0.1c0.6,0,1,0.1,1.2,0.2c0.1,0.4,0.2,0.9,0.2,1.5
			c0,0.6,0.1,1.1,0.1,1.8c0,0.7,0,1.5-0.1,2.4c-0.1,0.9-0.2,1.7-0.4,2.5c-0.5-0.1-1-0.1-1.6-0.1s-0.9,0-1.1,0
			c-0.7,0-1.6,0.1-2.5,0.2c-0.9,0.2-1.8,0.5-2.6,1.2c-0.8,0.7-1.5,1.6-2,2.9c-0.5,1.3-0.8,3.1-0.8,5.5v16c-0.8,0.1-1.6,0.2-2.3,0.3
			c-0.8,0-1.5,0.1-2.3,0.1s-1.5,0-2.2-0.1c-0.8,0-1.5-0.1-2.4-0.3V375.9z"/>
		<path id="XMLID_28_" class="st7" d="M563.7,375.9c0.6-0.1,1.2-0.2,1.8-0.3c0.6-0.1,1.3-0.1,2-0.1c0.7,0,1.4,0,2,0.1
			c0.6,0.1,1.1,0.2,1.8,0.3c0.1,0.2,0.2,0.5,0.4,0.9c0.1,0.4,0.2,0.8,0.3,1.3c0.1,0.5,0.2,0.9,0.2,1.3c0.1,0.4,0.1,0.8,0.2,1.1
			c0.3-0.7,0.8-1.3,1.4-2c0.6-0.7,1.2-1.2,2-1.8c0.8-0.5,1.7-0.9,2.6-1.3c1-0.3,2.1-0.5,3.3-0.5c5.2,0,8.6,2,10.1,6
			c0.9-1.6,2.1-3,3.7-4.2c1.6-1.2,3.6-1.8,6-1.8c3.8,0,6.6,1,8.4,3.2c1.8,2.1,2.7,5.4,2.7,9.8v21.4c-1.6,0.3-3.1,0.4-4.6,0.4
			c-1.5,0-3.1-0.1-4.6-0.4v-19c0-2.3-0.3-4.1-0.9-5.4c-0.6-1.3-1.8-1.9-3.5-1.9c-0.7,0-1.5,0.1-2.2,0.3s-1.4,0.6-1.9,1.2
			c-0.6,0.6-1.1,1.4-1.4,2.5c-0.4,1.1-0.6,2.4-0.6,4.1v18.1c-1.6,0.3-3.1,0.4-4.6,0.4c-1.5,0-3.1-0.1-4.6-0.4v-19
			c0-2.3-0.3-4.1-0.9-5.4c-0.6-1.3-1.8-1.9-3.5-1.9c-0.7,0-1.5,0.1-2.2,0.3c-0.7,0.2-1.4,0.6-2,1.3c-0.6,0.6-1,1.5-1.4,2.6
			c-0.3,1.1-0.5,2.6-0.5,4.4v17.6c-1.6,0.3-3.1,0.4-4.6,0.4c-1.5,0-3.1-0.1-4.6-0.4V375.9z"/>
		<path id="XMLID_30_" class="st7" d="M628.1,395.6c0.2,2.6,1.1,4.5,2.7,5.7c1.6,1.2,3.8,1.8,6.5,1.8c1.5,0,3-0.1,4.5-0.4
			c1.5-0.3,3-0.7,4.4-1.2c0.5,0.9,0.9,1.9,1.2,3.1c0.3,1.2,0.5,2.5,0.6,3.9c-3.4,1.3-7.2,1.9-11.4,1.9c-3.1,0-5.8-0.4-8-1.3
			c-2.2-0.9-4-2.1-5.5-3.6c-1.4-1.5-2.4-3.4-3.1-5.5c-0.7-2.1-1-4.4-1-6.9c0-2.5,0.3-4.8,1-7c0.7-2.2,1.7-4,3.1-5.7
			c1.4-1.6,3.1-2.9,5.1-3.8s4.4-1.4,7-1.4c2.3,0,4.4,0.4,6.2,1.2c1.8,0.8,3.4,2,4.6,3.4s2.2,3.1,2.9,5.1c0.7,2,1,4.1,1,6.3
			c0,0.8,0,1.6-0.1,2.4c-0.1,0.8-0.1,1.4-0.2,1.9H628.1z M641.3,389.1c-0.1-2.1-0.7-3.8-1.7-5c-1.1-1.3-2.5-1.9-4.4-1.9
			c-2.2,0-3.8,0.6-4.9,1.8s-1.8,2.9-2,5.1H641.3z"/>
		<path id="XMLID_53_" class="st7" d="M657.3,375.9c0.6-0.1,1.2-0.2,1.8-0.3c0.6-0.1,1.3-0.1,2-0.1c0.7,0,1.4,0,2,0.1
			c0.6,0.1,1.1,0.2,1.8,0.3c0.1,0.2,0.2,0.5,0.4,0.9c0.1,0.4,0.2,0.8,0.3,1.3c0.1,0.5,0.2,0.9,0.2,1.3c0.1,0.4,0.1,0.8,0.2,1.1
			c0.4-0.7,1-1.3,1.6-2c0.6-0.7,1.3-1.2,2.1-1.8c0.8-0.5,1.7-0.9,2.7-1.3c1-0.3,2.1-0.5,3.3-0.5c3.8,0,6.7,1,8.6,3.1
			c1.9,2.1,2.9,5.3,2.9,9.8v21.4c-1.6,0.3-3.1,0.4-4.6,0.4c-1.5,0-3.1-0.1-4.6-0.4v-19c0-2.3-0.4-4.1-1.1-5.4
			c-0.7-1.3-2-1.9-3.7-1.9c-0.7,0-1.5,0.1-2.3,0.3c-0.8,0.2-1.5,0.6-2.1,1.3c-0.6,0.6-1.1,1.5-1.5,2.6c-0.4,1.1-0.6,2.6-0.6,4.4
			v17.6c-1.6,0.3-3.1,0.4-4.6,0.4c-1.5,0-3.1-0.1-4.6-0.4V375.9z"/>
		<path id="XMLID_55_" class="st7" d="M696.3,383h-4.2l-0.3-1.3l12.1-15.5h1.5v9.8h7.9c0.1,0.7,0.2,1.2,0.3,1.8
			c0,0.5,0.1,1.1,0.1,1.6c0,0.6,0,1.2-0.1,1.8c0,0.6-0.1,1.2-0.3,1.9h-7.9v13.2c0,1.3,0.1,2.4,0.3,3.2c0.2,0.8,0.5,1.5,0.9,2
			c0.4,0.5,0.9,0.8,1.5,1c0.6,0.2,1.3,0.3,2.1,0.3c0.7,0,1.3-0.1,1.9-0.2c0.6-0.1,1.2-0.2,1.7-0.3c0.3,0.8,0.5,1.7,0.7,2.6
			c0.1,0.9,0.2,1.7,0.2,2.4c0,0.5,0,0.9,0,1.2c0,0.3-0.1,0.6-0.1,0.9c-2,0.5-4,0.7-6.2,0.7c-3.9,0-7-0.9-9-2.8
			c-2.1-1.8-3.1-4.8-3.1-9V383z"/>
	</g>
</g>
<g id="XMLID_73_">
	<g id="XMLID_83_">
		<linearGradient id="XMLID_106_" gradientUnits="userSpaceOnUse" x1="80.4678" y1="90.0567" x2="77.7372" y2="60.7782">
			<stop  offset="0.1521" style="stop-color:#ED802E"/>
			<stop  offset="0.1712" style="stop-color:#EB8335"/>
			<stop  offset="0.3754" style="stop-color:#D7A27A"/>
			<stop  offset="0.546" style="stop-color:#C8B9AD"/>
			<stop  offset="0.6743" style="stop-color:#BEC7CC"/>
			<stop  offset="0.7458" style="stop-color:#BBCCD8"/>
		</linearGradient>
		<path id="XMLID_84_" class="st8" d="M76.7,77.9c-8.4,0-16.8-2.1-24.3-6.3L12.2,49.1l8.3-14.9l40.1,22.4c9.9,5.5,22.1,5.5,32,0
			l40.1-22.4l8.3,14.9L101,71.6C93.5,75.8,85.1,77.9,76.7,77.9z"/>
	</g>
	<g id="XMLID_81_">
		<linearGradient id="XMLID_107_" gradientUnits="userSpaceOnUse" x1="187.9357" y1="200.4489" x2="-205.6369" y2="-129.7977">
			<stop  offset="0.208" style="stop-color:#6ACBDF"/>
			<stop  offset="0.2354" style="stop-color:#76CDDC"/>
			<stop  offset="0.2845" style="stop-color:#94D2D6"/>
			<stop  offset="0.349" style="stop-color:#C6DBCB"/>
			<stop  offset="0.3731" style="stop-color:#DADEC6"/>
			<stop  offset="0.3961" style="stop-color:#CEDCC9"/>
			<stop  offset="0.4913" style="stop-color:#A3D5D2"/>
			<stop  offset="0.5769" style="stop-color:#84CFD9"/>
			<stop  offset="0.6491" style="stop-color:#71CCDD"/>
			<stop  offset="0.6993" style="stop-color:#6ACBDF"/>
		</linearGradient>
		<path id="XMLID_82_" class="st9" d="M85.2,137.7H68.1V99.6c0-11.8-6.4-22.8-16.7-28.6L15.7,51.1l8.3-14.9l35.6,19.9
			C75.4,65,85.2,81.6,85.2,99.6V137.7z"/>
	</g>
	<g id="XMLID_79_">
		<linearGradient id="XMLID_108_" gradientUnits="userSpaceOnUse" x1="37.4955" y1="181.8797" x2="153.0516" y2="-18.2692">
			<stop  offset="0" style="stop-color:#F16A21"/>
			<stop  offset="0.4725" style="stop-color:#DADEC6"/>
			<stop  offset="0.8244" style="stop-color:#6ACBDF"/>
			<stop  offset="1" style="stop-color:#FFFFFF"/>
		</linearGradient>
		<path id="XMLID_80_" class="st10" d="M85.2,137.7H68.1V99.6c0-18,9.8-34.7,25.5-43.4l35.6-19.9l8.3,14.9l-35.6,19.9
			c-10.3,5.8-16.7,16.7-16.7,28.6V137.7z"/>
	</g>
	<g id="XMLID_77_">
		<linearGradient id="XMLID_109_" gradientUnits="userSpaceOnUse" x1="28.0434" y1="154.9339" x2="135.4418" y2="-31.0856">
			<stop  offset="0" style="stop-color:#ED802E"/>
			<stop  offset="5.431658e-002" style="stop-color:#EC873A"/>
			<stop  offset="0.1518" style="stop-color:#E89B59"/>
			<stop  offset="0.2813" style="stop-color:#E1BA8B"/>
			<stop  offset="0.4134" style="stop-color:#DADEC6"/>
			<stop  offset="0.7675" style="stop-color:#A1D4D1"/>
			<stop  offset="1" style="stop-color:#6ACBDF"/>
		</linearGradient>
		<path id="XMLID_78_" class="st11" d="M152.1,70.8c0,41.6-33.8,75.4-75.4,75.4c-41.6,0-75.4-33.8-75.4-75.4
			c0-25.2,12.2-48,32.3-61.9c4.8-3.3,10-6.2,15.7-8.4c4.4-1.7,9.3,0.4,11.1,4.8c0.2,0.6,0.4,1.2,0.5,1.7c0.6,3.9-1.5,7.8-5.3,9.3
			c-5.6,2.2-10.7,5.2-15.2,8.7C26.5,36.1,18.3,52.6,18.3,70.8c0,32.2,26.2,58.4,58.4,58.4c32.2,0,58.4-26.2,58.4-58.4
			c0-18.2-8.2-34.8-21.9-45.6c-4.5-3.6-9.6-6.6-15.2-8.7c-3.8-1.5-6-5.4-5.3-9.3c0.1-0.6,0.2-1.2,0.5-1.7c1.7-4.4,6.7-6.6,11.1-4.8
			c5.6,2.2,10.8,5,15.6,8.3C139.8,22.7,152.1,45.6,152.1,70.8z"/>
	</g>
	<linearGradient id="XMLID_110_" gradientUnits="userSpaceOnUse" x1="3.299" y1="4.8996" x2="259.4855" y2="134.7476">
		<stop  offset="0" style="stop-color:#ED802E"/>
		<stop  offset="5.431658e-002" style="stop-color:#EC873A"/>
		<stop  offset="0.1518" style="stop-color:#E89B59"/>
		<stop  offset="0.2813" style="stop-color:#E1BA8B"/>
		<stop  offset="0.4134" style="stop-color:#DADEC6"/>
		<stop  offset="0.7675" style="stop-color:#A1D4D1"/>
		<stop  offset="1" style="stop-color:#6ACBDF"/>
	</linearGradient>
	<circle id="XMLID_76_" class="st12" cx="76.7" cy="42.1" r="11.2"/>
	<linearGradient id="XMLID_111_" gradientUnits="userSpaceOnUse" x1="33.647" y1="53.4129" x2="289.8335" y2="183.2608">
		<stop  offset="0" style="stop-color:#ED802E"/>
		<stop  offset="5.431658e-002" style="stop-color:#EC873A"/>
		<stop  offset="0.1518" style="stop-color:#E89B59"/>
		<stop  offset="0.2813" style="stop-color:#E1BA8B"/>
		<stop  offset="0.4134" style="stop-color:#DADEC6"/>
		<stop  offset="0.7675" style="stop-color:#A1D4D1"/>
		<stop  offset="1" style="stop-color:#6ACBDF"/>
	</linearGradient>
	<circle id="XMLID_75_" class="st13" cx="107" cy="90.6" r="11.2"/>
	<linearGradient id="XMLID_112_" gradientUnits="userSpaceOnUse" x1="-22.5782" y1="55.9546" x2="233.6083" y2="185.8025">
		<stop  offset="0" style="stop-color:#ED802E"/>
		<stop  offset="5.431658e-002" style="stop-color:#EC873A"/>
		<stop  offset="0.1518" style="stop-color:#E89B59"/>
		<stop  offset="0.2813" style="stop-color:#E1BA8B"/>
		<stop  offset="0.4134" style="stop-color:#DADEC6"/>
		<stop  offset="0.7675" style="stop-color:#A1D4D1"/>
		<stop  offset="1" style="stop-color:#6ACBDF"/>
	</linearGradient>
	<circle id="XMLID_74_" class="st14" cx="45.8" cy="90.6" r="11.2"/>
</g>
<g id="XMLID_70_">
	<polygon id="XMLID_72_" class="st7" points="277.6,57.8 270.5,57.8 250.2,109.7 258.8,109.7 274,67.2 289.3,109.7 297.8,109.7 	"/>
	<polygon id="XMLID_71_" class="st7" points="250.2,109.7 297.8,109.7 292.6,102.7 257.7,102.7 	"/>
</g>
<path id="XMLID_65_" class="st7" d="M178.9,92.8c0.1,4,1.1,6.9,3.1,8.8c2,1.9,4.9,2.8,8.7,2.8c3.4,0,6.6-0.6,9.6-1.8
	c0.4,0.7,0.7,1.6,0.9,2.6c0.2,1,0.4,2,0.4,3c-1.6,0.7-3.3,1.2-5.2,1.5c-1.9,0.3-4,0.5-6.2,0.5c-3.3,0-6.2-0.5-8.6-1.4
	c-2.4-0.9-4.3-2.2-5.9-3.9c-1.5-1.7-2.7-3.7-3.4-6c-0.7-2.3-1.1-4.8-1.1-7.6c0-2.7,0.3-5.2,1-7.6c0.7-2.4,1.7-4.4,3.2-6.1
	c1.4-1.7,3.2-3.1,5.4-4.1c2.2-1,4.7-1.5,7.7-1.5c2.5,0,4.7,0.4,6.6,1.3c1.9,0.9,3.5,2,4.8,3.5c1.3,1.5,2.3,3.3,2.9,5.4
	c0.7,2.1,1,4.3,1,6.7c0,0.7,0,1.4-0.1,2.1c0,0.7-0.1,1.4-0.1,1.9H178.9z M197,87.5c0-1.3-0.2-2.6-0.5-3.8c-0.4-1.2-0.9-2.3-1.6-3.2
	c-0.7-0.9-1.6-1.6-2.6-2.2c-1.1-0.5-2.3-0.8-3.8-0.8c-2.9,0-5.1,0.9-6.7,2.6c-1.5,1.8-2.5,4.2-2.8,7.4H197z"/>
<path id="XMLID_63_" class="st7" d="M244,101.9c1,2,1.7,4,2,5.9c-2,0.9-4,1.5-6.1,1.9c-2.1,0.4-4.4,0.6-6.8,0.6
	c-3.7,0-7.1-0.6-10-1.8c-3-1.2-5.5-3-7.5-5.2c-2-2.3-3.6-5-4.7-8.2c-1.1-3.2-1.6-6.9-1.6-10.9c0-4.1,0.5-7.8,1.6-11.1
	c1.1-3.3,2.7-6.1,4.7-8.5c2-2.3,4.5-4.1,7.5-5.4c3-1.3,6.3-1.9,9.9-1.9c2.7,0,5,0.2,7,0.6c2,0.4,3.7,0.8,5.2,1.4
	c-0.1,1.1-0.3,2.1-0.6,3c-0.3,0.9-0.7,1.9-1.1,3c-0.7-0.2-1.4-0.5-2.1-0.6c-0.7-0.2-1.4-0.4-2.1-0.5c-0.8-0.1-1.6-0.2-2.5-0.3
	c-0.9-0.1-2-0.1-3.2-0.1c-5.2,0-9.2,1.8-12.1,5.3c-2.9,3.5-4.3,8.6-4.3,15.2c0,3.4,0.4,6.3,1.2,8.8c0.8,2.5,2,4.5,3.4,6.1
	c1.5,1.6,3.2,2.8,5.3,3.6c2.1,0.8,4.4,1.2,7,1.2c2,0,3.8-0.2,5.4-0.5C241,103,242.5,102.5,244,101.9z"/>
<g id="XMLID_59_">
	<path id="XMLID_60_" class="st7" d="M318.5,57.6c1.9-0.3,3.7-0.4,5.5-0.4c1.9,0,3.7,0.1,5.5,0.4l11.8,29.5l12.2-29.5
		c1.5-0.3,3.1-0.4,4.9-0.4s3.6,0.1,5.2,0.4l2.4,51.4c-1.8,0.3-3.5,0.4-5.1,0.4s-3.2-0.1-4.8-0.4l-1.3-34.9l-10.4,24.2
		c-0.7,0.1-1.4,0.2-2.1,0.3c-0.7,0.1-1.4,0.1-2.1,0.1c-0.6,0-1.2,0-1.9-0.1c-0.6,0-1.3-0.1-1.9-0.3l-9.7-24.7l-1,35.4
		c-1.5,0.3-3,0.4-4.4,0.4c-1.5,0-3.1-0.1-4.7-0.4L318.5,57.6z"/>
</g>
</svg>
