<svg width="177" height="49" viewBox="0 0 177 49" fill="none" xmlns="http://www.w3.org/2000/svg">
<path d="M24.9097 25.7517C22.099 25.7548 19.3343 25.0366 16.8797 23.6656L3.64249 16.2461L6.39341 11.3263L19.6306 18.7458C21.2463 19.6439 23.0638 20.1152 24.9118 20.1152C26.7598 20.1152 28.5773 19.6439 30.193 18.7458L43.4302 11.3263L46.1811 16.2461L32.9398 23.6656C30.4852 25.0366 27.7205 25.7548 24.9097 25.7517Z" fill="url(#paint0_linear_1_6)"/>
<path d="M27.7244 45.5411H22.0951V32.9374C22.0947 31.0127 21.5822 29.1228 20.6102 27.4622C19.6383 25.8015 18.242 24.4301 16.5651 23.489L4.79319 16.8966L7.54493 11.9793L19.3127 18.5758C21.8621 20.0063 23.9851 22.0907 25.4635 24.6147C26.9418 27.1388 27.7222 30.0114 27.7244 32.9374V45.5411Z" fill="url(#paint1_linear_1_6)"/>
<path d="M27.7244 45.5411H22.0951V32.9374C22.0967 30.0111 22.8768 27.138 24.355 24.6135C25.8332 22.089 27.9563 20.0041 30.5059 18.5733L42.2704 11.9793L45.0213 16.8991L33.2535 23.4956C31.5766 24.4367 30.1803 25.8082 29.2084 27.4688C28.2365 29.1294 27.724 31.0193 27.7236 32.944L27.7244 45.5411Z" fill="url(#paint2_linear_1_6)"/>
<path d="M49.8195 23.4212C49.8195 37.1753 38.6411 48.3642 24.9097 48.3642C11.1783 48.3642 0 37.1753 0 23.4245C0 15.0867 4.04401 7.53959 10.651 2.96291C12.261 1.84161 13.9974 0.914135 15.8242 0.19966C16.1685 0.0644241 16.536 -0.00155947 16.9058 0.00548236C17.2755 0.0125242 17.6403 0.0924532 17.9792 0.2407C18.318 0.388947 18.6244 0.602605 18.8808 0.869463C19.1372 1.13632 19.3385 1.45115 19.4733 1.79595C19.547 1.9811 19.6006 2.17366 19.6331 2.37031C19.7369 3.00703 19.6194 3.66015 19.3001 4.22055C18.9808 4.78095 18.4791 5.21469 17.8789 5.44934C16.0724 6.15525 14.3813 7.12709 12.8613 8.33276C8.34712 11.9248 5.62849 17.4057 5.62849 23.4221C5.62849 34.0631 14.2769 42.7209 24.9097 42.7209C35.5425 42.7209 44.186 34.0631 44.186 23.4221C44.186 17.4057 41.4674 11.9248 36.9581 8.33774C35.438 7.12778 33.7449 6.15328 31.9356 5.44685C31.3348 5.21267 30.8328 4.77843 30.5142 4.2172C30.1956 3.65597 30.0799 3.002 30.1864 2.36534C30.2152 2.16844 30.2672 1.97565 30.3412 1.79097C30.476 1.44617 30.6773 1.13135 30.9337 0.864491C31.1901 0.597633 31.4964 0.383974 31.8353 0.235727C32.1742 0.0874805 32.539 0.00755154 32.9088 0.000509711C33.2785 -0.00653212 33.646 0.0594508 33.9903 0.194687C35.8111 0.906842 37.5423 1.83007 39.1486 2.9455C45.7713 7.52219 49.8195 15.0743 49.8195 23.4212Z" fill="url(#paint3_linear_1_6)"/>
<path d="M24.9081 17.6175C26.9518 17.6175 28.6085 15.9588 28.6085 13.9127C28.6085 11.8666 26.9518 10.208 24.9081 10.208C22.8644 10.208 21.2076 11.8666 21.2076 13.9127C21.2076 15.9588 22.8644 17.6175 24.9081 17.6175Z" fill="url(#paint4_linear_1_6)"/>
<path d="M34.9299 33.6587C36.9736 33.6587 38.6304 32 38.6304 29.9539C38.6304 27.9078 36.9736 26.2491 34.9299 26.2491C32.8862 26.2491 31.2295 27.9078 31.2295 29.9539C31.2295 32 32.8862 33.6587 34.9299 33.6587Z" fill="url(#paint5_linear_1_6)"/>
<path d="M14.7058 33.6587C16.7495 33.6587 18.4062 32 18.4062 29.9539C18.4062 27.9078 16.7495 26.2491 14.7058 26.2491C12.6621 26.2491 11.0053 27.9078 11.0053 29.9539C11.0053 32 12.6621 33.6587 14.7058 33.6587Z" fill="url(#paint6_linear_1_6)"/>
<path d="M83.808 26.896H73.152C73.28 28.3467 73.7173 29.424 74.464 30.128C75.2107 30.832 76.2773 31.184 77.664 31.184C79.392 31.184 80.9707 30.6293 82.4 29.52L83.552 32.272C82.8267 32.8693 81.9093 33.3493 80.8 33.712C79.712 34.0747 78.6133 34.256 77.504 34.256C74.944 34.256 72.9173 33.5307 71.424 32.08C69.952 30.6293 69.216 28.6453 69.216 26.128C69.216 24.528 69.536 23.1093 70.176 21.872C70.816 20.6347 71.712 19.6747 72.864 18.992C74.0373 18.3093 75.36 17.968 76.832 17.968C78.9867 17.968 80.6827 18.6613 81.92 20.048C83.1787 21.4347 83.808 23.344 83.808 25.776V26.896ZM76.928 20.784C75.8613 20.784 74.9973 21.1253 74.336 21.808C73.696 22.4907 73.3013 23.472 73.152 24.752H80.384C80.3413 23.4507 80.0213 22.4693 79.424 21.808C78.8267 21.1253 77.9947 20.784 76.928 20.784ZM97.672 34.288C95.4533 34.288 93.512 33.8187 91.848 32.88C90.2053 31.92 88.936 30.5653 88.04 28.816C87.1653 27.0667 86.728 25.0293 86.728 22.704C86.728 20.3787 87.1653 18.352 88.04 16.624C88.936 14.8747 90.2053 13.5307 91.848 12.592C93.512 11.632 95.4533 11.152 97.672 11.152C99.1867 11.152 100.616 11.3867 101.96 11.856C103.304 12.3253 104.435 12.9867 105.352 13.84L103.976 16.848C102.952 16.0373 101.939 15.4507 100.936 15.088C99.9333 14.704 98.8667 14.512 97.736 14.512C95.56 14.512 93.8747 15.216 92.68 16.624C91.5067 18.032 90.92 20.0587 90.92 22.704C90.92 25.3707 91.5067 27.408 92.68 28.816C93.8747 30.224 95.56 30.928 97.736 30.928C98.8667 30.928 99.9333 30.7467 100.936 30.384C101.939 30 102.952 29.4027 103.976 28.592L105.352 31.6C104.435 32.4533 103.304 33.1147 101.96 33.584C100.616 34.0533 99.1867 34.288 97.672 34.288ZM125.961 34L123.689 28.72H112.713L110.441 34H106.281L116.489 11.44H119.849L130.057 34H125.961ZM114.057 25.52H122.313L118.185 15.92L114.057 25.52ZM159.935 11.44H163.167V34H159.519V19.088L153.567 30.352H150.815L144.831 19.248L144.863 34H141.215V11.44H144.479L152.223 26.192L159.935 11.44Z" fill="#0B2C3A"/>
<defs>
<linearGradient id="paint0_linear_1_6" x1="24.3336" y1="15.0576" x2="30.3686" y2="24.5866" gradientUnits="userSpaceOnUse">
<stop stop-color="#245C83"/>
<stop offset="0.09" stop-color="#306588"/>
<stop offset="0.24" stop-color="#4F7D95"/>
<stop offset="0.45" stop-color="#81A3AA"/>
<stop offset="0.64" stop-color="#B5CBC0"/>
<stop offset="0.88" stop-color="#B5CBC0"/>
<stop offset="1" stop-color="#6894AD"/>
</linearGradient>
<linearGradient id="paint1_linear_1_6" x1="61.6592" y1="66.2754" x2="-68.4431" y2="-42.7655" gradientUnits="userSpaceOnUse">
<stop stop-color="#245C83"/>
<stop offset="0.06" stop-color="#306588"/>
<stop offset="0.16" stop-color="#4F7D95"/>
<stop offset="0.29" stop-color="#81A3AA"/>
<stop offset="0.41" stop-color="#B5CBC0"/>
<stop offset="0.77" stop-color="#B5CBC0"/>
<stop offset="1" stop-color="#6894AD"/>
</linearGradient>
<linearGradient id="paint2_linear_1_6" x1="11.9764" y1="60.1356" x2="50.2051" y2="-6.00198" gradientUnits="userSpaceOnUse">
<stop stop-color="#245C83"/>
<stop offset="0.06" stop-color="#306588"/>
<stop offset="0.16" stop-color="#4F7D95"/>
<stop offset="0.29" stop-color="#81A3AA"/>
<stop offset="0.41" stop-color="#B5CBC0"/>
<stop offset="0.77" stop-color="#B5CBC0"/>
<stop offset="1" stop-color="#6894AD"/>
</linearGradient>
<linearGradient id="paint3_linear_1_6" x1="7.84296" y1="48.249" x2="44.6359" y2="-5.22288" gradientUnits="userSpaceOnUse">
<stop stop-color="#244183"/>
<stop offset="0.07" stop-color="#304C88"/>
<stop offset="0.21" stop-color="#4F6A95"/>
<stop offset="0.39" stop-color="#819AAA"/>
<stop offset="0.55" stop-color="#B5CBC0"/>
<stop offset="0.8" stop-color="#B5CBC0"/>
</linearGradient>
<linearGradient id="paint4_linear_1_6" x1="0.682986" y1="1.62067" x2="85.3287" y2="44.4732" gradientUnits="userSpaceOnUse">
<stop stop-color="#245C83"/>
<stop offset="0.06" stop-color="#306588"/>
<stop offset="0.16" stop-color="#4F7D95"/>
<stop offset="0.29" stop-color="#81A3AA"/>
<stop offset="0.41" stop-color="#B5CBC0"/>
<stop offset="0.77" stop-color="#B5CBC0"/>
<stop offset="1" stop-color="#6894AD"/>
</linearGradient>
<linearGradient id="paint5_linear_1_6" x1="10.7056" y1="17.661" x2="95.3514" y2="60.5135" gradientUnits="userSpaceOnUse">
<stop stop-color="#245C83"/>
<stop offset="0.06" stop-color="#306588"/>
<stop offset="0.16" stop-color="#4F7D95"/>
<stop offset="0.29" stop-color="#81A3AA"/>
<stop offset="0.41" stop-color="#B5CBC0"/>
<stop offset="0.77" stop-color="#B5CBC0"/>
<stop offset="1" stop-color="#6894AD"/>
</linearGradient>
<linearGradient id="paint6_linear_1_6" x1="-7.86281" y1="18.5014" x2="76.7829" y2="61.3539" gradientUnits="userSpaceOnUse">
<stop stop-color="#245C83"/>
<stop offset="0.06" stop-color="#306588"/>
<stop offset="0.16" stop-color="#4F7D95"/>
<stop offset="0.29" stop-color="#81A3AA"/>
<stop offset="0.41" stop-color="#B5CBC0"/>
<stop offset="0.77" stop-color="#B5CBC0"/>
<stop offset="1" stop-color="#6894AD"/>
</linearGradient>
</defs>
</svg>
