<svg xmlns="http://www.w3.org/2000/svg" width="24" height="24"  xmlns:v="https://vecta.io/nano"><path d="M3.406 18.914c0-.027.313-2.332 1.332-3.078a4.87 4.87 0 0 1 .852-.469v2.871c-.484.18-1.102.676-1.102 1.73v3.68c0 .18.145.324.324.324h14.316c.18 0 .324-.145.324-.324v-3.68c0-1.051-.613-1.547-1.102-1.73v-2.855c.293.125.566.277.828.457 1.02.742 1.328 3.051 1.332 3.074l.629 4.758.648-.082-.629-4.758c-.016-.105-.348-2.609-1.594-3.52a6.8 6.8 0 0 0-1.332-.687c-.027-.023-.059-.039-.094-.051l-.27-.098-1.508-.527a.26.26 0 0 0-.078-.023l-1.637-.469v-.727c.992-.707 1.578-1.848 1.582-3.066V9.09a.95.95 0 0 0 .348.066c.551 0 .996-.445.996-.996v-.898a.99.99 0 0 0-.398-.793 9.46 9.46 0 0 0 .125-1.664c0-3.676-2.559-4.543-4.082-4.738A11.19 11.19 0 0 0 11.961 0a10 10 0 0 0-1.449.098c-1.446.226-3.867 1.14-3.867 4.711-.008.555.031 1.109.125 1.66a.98.98 0 0 0-.398.793v.898a1 1 0 0 0 1.352.941v.574c0 1.203.578 2.336 1.551 3.043v.754c-1.18.301-2.34.668-3.477 1.102h-.012a6.95 6.95 0 0 0-1.43.73c-1.246.91-1.578 3.41-1.594 3.516l-.625 4.758.648.086zM16.922 8.16a.35.35 0 0 1-.348.348.35.35 0 0 1-.348-.348v-.09c.313-.168.559-.445.695-.777zM10.621.73a9.49 9.49 0 0 1 1.34-.082 9.69 9.69 0 0 1 1.164.066c1.602.195 3.512 1.066 3.512 4.094.008.445-.016.887-.066 1.332-4.52-1.879-8.031-.59-9.195-.035a9.59 9.59 0 0 1-.074-1.297c0-2.934 1.805-3.832 3.32-4.078zM7.723 8.16a.35.35 0 0 1-.348.348.35.35 0 0 1-.348-.348v-.867c.133.332.379.605.695.777zm-.219-1.406c.879-.43 4.41-1.895 8.922.023-.18.57-.434.711-.621.766-.379.113-1.012-.043-1.676-.215a8.17 8.17 0 0 0-2.164-.379 8.12 8.12 0 0 0-2.164.379c-.668.184-1.297.34-1.676.215-.176-.055-.434-.203-.613-.789zm.867 2.91V8.227h.09a6.17 6.17 0 0 0 1.527-.289c.641-.207 1.313-.328 1.988-.359a7.61 7.61 0 0 1 1.984.359 6.17 6.17 0 0 0 1.527.289h.09v1.438a3.13 3.13 0 0 1-3.129 3.125H11.5a3.13 3.13 0 0 1-3.129-3.125zm5.625 3.441v.5l-2.027 2.594-2.047-2.594v-.512a3.77 3.77 0 0 0 1.574.344h.949a3.79 3.79 0 0 0 1.551-.332zM8.02 14.496l1.457-.414 2.5 3.16 2.469-3.16 1.48.422v3.781H8.02zM5.961 18.82c.16-.02.281-.156.277-.32v-3.402l1.133-.398v3.91c0 .176.145.324.324.324h8.555c.18 0 .324-.148.324-.324v-3.895l1.133.395v3.383c0 .16.121.301.281.32.031 0 .82.121.82 1.156v3.344H5.141v-3.348c0-.996.734-1.141.82-1.152zm-.047.735h1.781v.59H5.914zm10.336 0h1.781v.59H16.25zm0 0" fill="rgb(0%,0%,0%)" fill-rule="nonzero"/><defs /></svg>