<?xml version="1.0" encoding="UTF-8"?>
<svg xmlns="http://www.w3.org/2000/svg" xmlns:xlink="http://www.w3.org/1999/xlink" width="24px" height="24px" viewBox="0 0 24 24" version="1.1">


<title>Stockholm-icons / General / Technician</title>
    <desc>Created with Sketch.</desc>
    <defs></defs>
    <g id="Stockholm-icons-/-General-/-Technician" stroke="none" stroke-width="1" fill="none" fill-rule="evenodd">
        <rect id="Rectangle-10" x="0" y="0" width="24" height="24"></rect>
        <path  fill="rgb(0%,0%,0%)" fill-rule="nonzero" opacity="1" d="M 3.40625 18.914062 C 3.40625 18.886719 3.71875 16.582031 4.738281 15.835938 C 5.003906 15.652344 5.289062 15.496094 5.589844 15.367188 L 5.589844 18.238281 C 5.105469 18.417969 4.488281 18.914062 4.488281 19.96875 L 4.488281 23.648438 C 4.488281 23.828125 4.632812 23.972656 4.8125 23.972656 L 19.128906 23.972656 C 19.308594 23.972656 19.453125 23.828125 19.453125 23.648438 L 19.453125 19.96875 C 19.453125 18.917969 18.839844 18.421875 18.351562 18.238281 L 18.351562 15.382812 C 18.644531 15.507812 18.917969 15.660156 19.179688 15.839844 C 20.199219 16.582031 20.507812 18.890625 20.511719 18.914062 L 21.140625 23.671875 L 21.789062 23.589844 L 21.160156 18.832031 C 21.144531 18.726562 20.8125 16.222656 19.566406 15.3125 C 19.148438 15.035156 18.703125 14.804688 18.234375 14.625 C 18.207031 14.601562 18.175781 14.585938 18.140625 14.574219 L 17.871094 14.476562 C 17.457031 14.316406 17.019531 14.167969 16.601562 14.03125 L 16.363281 13.949219 C 16.339844 13.9375 16.3125 13.929688 16.285156 13.925781 C 15.589844 13.710938 14.976562 13.542969 14.648438 13.457031 L 14.648438 12.730469 C 15.640625 12.023438 16.226562 10.882812 16.230469 9.664062 L 16.230469 9.089844 C 16.339844 9.132812 16.457031 9.15625 16.578125 9.15625 C 17.128906 9.15625 17.574219 8.710938 17.574219 8.160156 L 17.574219 7.261719 C 17.574219 6.949219 17.425781 6.65625 17.175781 6.46875 C 17.265625 5.917969 17.308594 5.363281 17.300781 4.804688 C 17.300781 1.128906 14.742188 0.261719 13.21875 0.0664062 C 12.800781 0.0195312 12.378906 0 11.960938 0 C 11.476562 -0.00390625 10.992188 0.03125 10.511719 0.0976562 C 9.066406 0.324219 6.644531 1.238281 6.644531 4.808594 C 6.636719 5.363281 6.675781 5.917969 6.769531 6.46875 C 6.515625 6.65625 6.371094 6.949219 6.371094 7.261719 L 6.371094 8.160156 C 6.367188 8.710938 6.808594 9.164062 7.359375 9.167969 C 7.363281 9.167969 7.367188 9.167969 7.375 9.167969 C 7.492188 9.167969 7.609375 9.144531 7.722656 9.101562 L 7.722656 9.675781 C 7.722656 10.878906 8.300781 12.011719 9.273438 12.71875 L 9.273438 13.472656 C 8.09375 13.773438 6.933594 14.140625 5.796875 14.574219 L 5.785156 14.574219 C 5.28125 14.761719 4.800781 15.007812 4.355469 15.304688 C 3.109375 16.214844 2.777344 18.714844 2.761719 18.820312 L 2.136719 23.578125 L 2.785156 23.664062 Z M 16.921875 8.160156 C 16.921875 8.351562 16.765625 8.507812 16.574219 8.507812 C 16.382812 8.507812 16.226562 8.351562 16.226562 8.160156 L 16.226562 8.070312 C 16.539062 7.902344 16.785156 7.625 16.921875 7.292969 Z M 10.621094 0.730469 C 11.0625 0.671875 11.511719 0.644531 11.960938 0.648438 C 12.347656 0.648438 12.738281 0.667969 13.125 0.714844 C 14.726562 0.910156 16.636719 1.78125 16.636719 4.808594 C 16.644531 5.253906 16.621094 5.695312 16.570312 6.140625 C 12.050781 4.261719 8.539062 5.550781 7.375 6.105469 C 7.320312 5.675781 7.296875 5.242188 7.300781 4.808594 C 7.300781 1.875 9.105469 0.976562 10.621094 0.730469 Z M 7.722656 8.160156 C 7.722656 8.351562 7.566406 8.507812 7.375 8.507812 C 7.183594 8.507812 7.027344 8.351562 7.027344 8.160156 L 7.027344 7.292969 C 7.160156 7.625 7.40625 7.898438 7.722656 8.070312 Z M 7.503906 6.753906 C 8.382812 6.324219 11.914062 4.859375 16.425781 6.777344 C 16.246094 7.347656 15.992188 7.488281 15.804688 7.542969 C 15.425781 7.65625 14.792969 7.5 14.128906 7.328125 C 13.425781 7.105469 12.699219 6.976562 11.964844 6.949219 C 11.230469 6.976562 10.5 7.105469 9.800781 7.328125 C 9.132812 7.511719 8.503906 7.667969 8.125 7.542969 C 7.949219 7.488281 7.691406 7.339844 7.511719 6.753906 Z M 8.371094 9.664062 L 8.371094 8.226562 L 8.460938 8.226562 C 8.980469 8.195312 9.492188 8.097656 9.988281 7.9375 C 10.628906 7.730469 11.300781 7.609375 11.976562 7.578125 C 12.648438 7.609375 13.320312 7.730469 13.960938 7.9375 C 14.457031 8.097656 14.96875 8.195312 15.488281 8.226562 L 15.578125 8.226562 L 15.578125 9.664062 C 15.578125 11.390625 14.175781 12.789062 12.449219 12.789062 L 11.5 12.789062 C 9.773438 12.789062 8.375 11.390625 8.371094 9.664062 Z M 13.996094 13.105469 L 13.996094 13.605469 L 11.96875 16.199219 L 9.921875 13.605469 L 9.921875 13.09375 C 10.414062 13.320312 10.953125 13.4375 11.496094 13.4375 L 12.445312 13.4375 C 12.980469 13.4375 13.507812 13.324219 13.996094 13.105469 Z M 8.019531 14.496094 C 8.65625 14.300781 9.199219 14.15625 9.476562 14.082031 L 11.976562 17.242188 L 14.445312 14.082031 C 14.726562 14.160156 15.28125 14.300781 15.925781 14.503906 L 15.925781 18.285156 L 8.019531 18.285156 Z M 5.960938 18.820312 C 6.121094 18.800781 6.242188 18.664062 6.238281 18.5 L 6.238281 15.097656 C 6.605469 14.957031 6.992188 14.820312 7.371094 14.699219 L 7.371094 18.609375 C 7.371094 18.785156 7.515625 18.933594 7.695312 18.933594 L 16.25 18.933594 C 16.429688 18.933594 16.574219 18.785156 16.574219 18.609375 L 16.574219 14.714844 L 17.707031 15.109375 L 17.707031 18.492188 C 17.707031 18.652344 17.828125 18.792969 17.988281 18.8125 C 18.019531 18.8125 18.808594 18.933594 18.808594 19.96875 L 18.808594 23.3125 L 5.140625 23.3125 L 5.140625 19.964844 C 5.140625 18.96875 5.875 18.824219 5.960938 18.8125 Z M 5.960938 18.820312 "/>
        <path  fill="rgb(0%,0%,0%)" fill-rule="nonzero" opacity="1" d="M 5.914062 19.554688 L 7.695312 19.554688 L 7.695312 20.144531 L 5.914062 20.144531 Z M 5.914062 19.554688 "/>
        <path  fill="rgb(0%,0%,0%)" fill-rule="nonzero" opacity="1" d="M 16.25 19.554688 L 18.03125 19.554688 L 18.03125 20.144531 L 16.25 20.144531 Z M 16.25 19.554688 "/>
    </g>
</svg>
 