<svg width="30" height="30" viewBox="0 0 30 30" fill="none" xmlns="http://www.w3.org/2000/svg">
<path fill-rule="evenodd" clip-rule="evenodd" d="M15 2.5C21.9035 2.5 27.5 8.09644 27.5 15C27.5 21.9035 21.9035 27.5 15 27.5C8.09644 27.5 2.5 21.9035 2.5 15C2.5 8.09644 8.09644 2.5 15 2.5ZM10.391 18.4764C9.08647 17.4328 7.31608 17.0287 5.25685 17.2617C6.13959 21.0796 9.20862 24.0606 13.0741 24.8148C12.8324 21.5339 11.7532 19.5661 10.391 18.4764ZM19.609 18.4764C18.2467 19.5661 17.1676 21.5339 16.9259 24.8148C20.7914 24.0606 23.8604 21.0796 24.7431 17.2617C22.6839 17.0287 20.9135 17.4328 19.609 18.4764ZM15 12.5C13.8124 12.5 12.8349 12.9621 12.1175 13.472L11.4954 13.9063C10.8403 14.3504 10.0869 14.8057 9.24329 15.107C10.2148 15.402 11.1294 15.8655 11.9527 16.5243C13.3579 17.6483 14.3933 19.2572 15 21.3474C15.6067 19.2572 16.6421 17.6483 18.0473 16.5243C18.8706 15.8655 19.7851 15.402 20.7568 15.107C19.9131 14.8057 19.1596 14.3504 18.5045 13.9063L17.8825 13.472C17.1651 12.9621 16.1876 12.5 15 12.5ZM15 5C10.1125 5 6.04388 8.50636 5.17252 13.1408L5.11919 13.4514L7.88163 12.8989C8.60859 12.7535 9.30058 12.3695 10.073 11.8488L10.6692 11.4342C11.6656 10.7261 13.1407 10 15 10C16.7353 10 18.136 10.6325 19.1251 11.2926L19.927 11.8488C20.6029 12.3044 21.2171 12.6553 21.8472 12.8334L22.1184 12.8989L24.8809 13.4514C24.1365 8.66392 19.9961 5 15 5Z" fill="#4F4F4F"/>
</svg>
