
<svg width="30" height="30" viewBox="0 0 30 30" fill="none" xmlns="http://www.w3.org/2000/svg">
<path d="M23.86 6.19316C23.8509 6.1834 23.8481 6.17042 23.8386 6.16089C23.829 6.15135 23.8158 6.14845 23.806 6.13922C21.4679 3.80866 18.3013 2.5 15.0001 2.5C11.6988 2.5 8.53222 3.80866 6.19414 6.13922C6.1843 6.14845 6.17118 6.15127 6.16157 6.16089C6.15195 6.1705 6.14928 6.18339 6.14013 6.19316C4.39795 7.94369 3.21337 10.1711 2.7359 12.5942C2.25842 15.0173 2.50945 17.5276 3.4573 19.8082C4.40515 22.0888 6.00733 24.0375 8.06165 25.4084C10.116 26.7792 12.5303 27.5108 15.0001 27.5108C17.4698 27.5108 19.8842 26.7792 21.9385 25.4084C23.9928 24.0375 25.595 22.0888 26.5428 19.8082C27.4907 17.5276 27.7417 15.0173 27.2642 12.5942C26.7868 10.1711 25.6022 7.94369 23.86 6.19316ZM15 25C13.5028 24.9995 12.025 24.6622 10.6758 24.0131C9.32671 23.3639 8.14091 22.4196 7.20625 21.25H12.2253C12.5729 21.6429 13.0001 21.9576 13.4784 22.1731C13.9567 22.3886 14.4754 22.5 15 22.5C15.5246 22.5 16.0433 22.3886 16.5216 22.1731C17 21.9576 17.4271 21.6429 17.7747 21.25H22.7938C21.8592 22.4196 20.6733 23.3639 19.3242 24.0131C17.9751 24.6622 16.4972 24.9995 15 25ZM13.75 18.75C13.75 18.5028 13.8233 18.2611 13.9607 18.0555C14.098 17.85 14.2932 17.6898 14.5216 17.5951C14.7501 17.5005 15.0014 17.4758 15.2439 17.524C15.4863 17.5722 15.7091 17.6913 15.8839 17.8661C16.0587 18.0409 16.1778 18.2637 16.226 18.5061C16.2742 18.7486 16.2495 18.9999 16.1549 19.2284C16.0602 19.4568 15.9 19.652 15.6945 19.7893C15.4889 19.9267 15.2472 20 15 20C14.6686 19.9997 14.3508 19.8679 14.1165 19.6335C13.8821 19.3992 13.7503 19.0814 13.75 18.75ZM24.2628 18.7526L24.2499 18.75H18.75C18.7476 17.977 18.506 17.2237 18.0584 16.5935C17.6108 15.9633 16.9791 15.4871 16.25 15.2303V11.25C16.25 10.9185 16.1183 10.6005 15.8839 10.3661C15.6495 10.1317 15.3315 10 15 10C14.6685 10 14.3505 10.1317 14.1161 10.3661C13.8817 10.6005 13.75 10.9185 13.75 11.25V15.2303C13.0209 15.4871 12.3892 15.9633 11.9416 16.5935C11.494 17.2237 11.2524 17.977 11.25 18.75H5.75013L5.73723 18.7526C5.4121 17.9504 5.19344 17.109 5.08683 16.25H6.25C6.58152 16.25 6.89947 16.1183 7.13389 15.8839C7.36831 15.6495 7.5 15.3315 7.5 15C7.5 14.6685 7.36831 14.3505 7.13389 14.1161C6.89947 13.8817 6.58152 13.75 6.25 13.75H5.08683C5.31019 11.9732 6.00944 10.2898 7.11068 8.87764L7.92908 9.69605C8.04514 9.81211 8.18293 9.90417 8.33457 9.96698C8.48621 10.0298 8.64874 10.0621 8.81287 10.0621C8.97701 10.0621 9.13953 10.0298 9.29118 9.96698C9.44282 9.90417 9.5806 9.8121 9.69666 9.69604C9.81272 9.57998 9.90479 9.4422 9.9676 9.29056C10.0304 9.13891 10.0627 8.97639 10.0627 8.81225C10.0627 8.64812 10.0304 8.48559 9.96759 8.33395C9.90478 8.18231 9.81272 8.04452 9.69665 7.92846L8.87833 7.11014C10.2904 6.00926 11.9735 5.31021 13.75 5.08682V6.25C13.75 6.58152 13.8817 6.89946 14.1161 7.13388C14.3505 7.3683 14.6685 7.5 15 7.5C15.3315 7.5 15.6495 7.3683 15.8839 7.13388C16.1183 6.89946 16.25 6.58152 16.25 6.25V5.08682C18.0265 5.31021 19.7096 6.00926 21.1217 7.11014L20.3034 7.92846C20.069 8.16286 19.9373 8.48076 19.9373 8.81225C19.9373 9.14374 20.069 9.46165 20.3033 9.69604C20.5377 9.93044 20.8557 10.0621 21.1871 10.0621C21.5186 10.0621 21.8365 9.93044 22.0709 9.69605L22.8893 8.87764C23.9906 10.2898 24.6898 11.9732 24.9132 13.75H23.75C23.4185 13.75 23.1005 13.8817 22.8661 14.1161C22.6317 14.3505 22.5 14.6685 22.5 15C22.5 15.3315 22.6317 15.6495 22.8661 15.8839C23.1005 16.1183 23.4185 16.25 23.75 16.25H24.9132C24.8066 17.109 24.5879 17.9504 24.2628 18.7526Z" fill="#4F4F4F"/>
</svg>
