<svg width="24" height="26" viewBox="0 0 24 26" fill="none" xmlns="http://www.w3.org/2000/svg">
<path fill-rule="evenodd" clip-rule="evenodd" d="M3.71271 18L5.18771 16.5225C5.66021 16.05 5.92021 15.4225 5.92021 14.755V8.90879C5.92021 7.21254 6.65771 5.59129 7.94521 4.46379C9.24271 3.32629 10.8952 2.82629 12.6165 3.05254C15.5252 3.43879 17.719 6.06879 17.719 9.17129V14.755C17.719 15.4225 17.979 16.05 18.4502 16.5213L19.9265 18H3.71271ZM14.319 20.9263C14.319 22.05 13.174 23 11.819 23C10.464 23 9.31896 22.05 9.31896 20.9263V20.5H14.319V20.9263ZM22.4702 17.01L20.219 14.755V9.17129C20.219 4.82004 17.0915 1.12379 12.944 0.575036C10.5415 0.255036 8.11646 0.988786 6.29771 2.58379C4.46771 4.18629 3.42021 6.49129 3.42021 8.90879L3.41896 14.755L1.16771 17.01C0.581462 17.5975 0.407712 18.4713 0.725212 19.2375C1.04396 20.005 1.78521 20.5 2.61521 20.5H6.81896V20.9263C6.81896 23.4488 9.06146 25.5 11.819 25.5C14.5765 25.5 16.819 23.4488 16.819 20.9263V20.5H21.0227C21.8527 20.5 22.5927 20.005 22.9102 19.2388C23.229 18.4713 23.0565 17.5963 22.4702 17.01Z" fill="#4F4F4F"/>
</svg>
