<svg width="30" height="30" viewBox="0 0 30 30" fill="none" xmlns="http://www.w3.org/2000/svg">
<path fill-rule="evenodd" clip-rule="evenodd" d="M19.6781 2.53727C19.7887 2.56492 19.8921 2.6065 19.987 2.65969C21.7959 3.13545 23.2539 4.62315 24.2621 6.43789C25.5145 8.69217 26.25 11.7218 26.25 14.9999C26.25 18.278 25.5145 21.3076 24.2621 23.5619C23.2541 25.3764 21.7962 26.8639 19.9879 27.3399C19.8927 27.3933 19.7891 27.435 19.6781 27.4627C15.0928 28.6091 12.3816 28.2704 10.3275 27.5114L9.89697 27.3427C9.7565 27.2846 9.61895 27.2247 9.48386 27.1635C7.73922 26.3725 6.31209 24.6964 5.33188 22.616C4.34128 20.5135 3.75 17.8861 3.75 15C3.75 12.1139 4.34128 9.48655 5.33188 7.38405C6.31208 5.30364 7.73921 3.62752 9.48388 2.8366C9.61896 2.77536 9.75652 2.71549 9.89698 2.65737L10.3275 2.48868C12.3817 1.72968 15.0928 1.39104 19.6781 2.53727ZM10.5161 5.11354C9.4945 5.57669 8.42165 6.69172 7.59342 8.4496C6.77559 10.1854 6.25 12.4435 6.25 15C6.25 17.5565 6.7756 19.8146 7.59342 21.5504C8.42166 23.3082 9.49453 24.4234 10.5161 24.8865C11.5292 25.3458 12.794 25.7645 14.8117 25.6991C14.2065 25.0876 13.6791 24.3561 13.2379 23.5619C11.9855 21.3076 11.25 18.278 11.25 14.9999C11.25 11.7218 11.9855 8.69217 13.2379 6.43789C13.679 5.64385 14.2063 4.91242 14.8114 4.30097C12.7937 4.23561 11.5291 4.65431 10.5161 5.11354ZM18.75 4.9999C17.6842 4.9999 16.4565 5.79225 15.4233 7.652C14.4136 9.46941 13.75 12.0648 13.75 14.9999C13.75 17.935 14.4136 20.5304 15.4233 22.3478C16.4565 24.2075 17.6842 24.9999 18.75 24.9999C19.8158 24.9999 21.0435 24.2075 22.0767 22.3478C23.0864 20.5304 23.75 17.935 23.75 14.9999C23.75 12.0648 23.0864 9.46941 22.0767 7.652C21.0435 5.79225 19.8158 4.9999 18.75 4.9999ZM18.75 9.9999C19.9963 9.9999 20.7881 10.9777 21.1939 11.7892C21.637 12.6755 21.875 13.8124 21.875 14.9999C21.875 16.1874 21.637 17.3242 21.1939 18.2106C20.7881 19.022 19.9963 19.9999 18.75 19.9999C17.5037 19.9999 16.7119 19.022 16.3061 18.2106C15.863 17.3242 15.625 16.1874 15.625 14.9999C15.625 13.8124 15.863 12.6755 16.3061 11.7892C16.7119 10.9777 17.5037 9.9999 18.75 9.9999ZM18.75 12.5754C18.6969 12.6379 18.6255 12.7407 18.5423 12.9072C18.3068 13.3782 18.125 14.1164 18.125 14.9999C18.125 15.8835 18.3068 16.6215 18.5423 17.0925C18.6255 17.2591 18.6969 17.362 18.75 17.4244C18.8031 17.362 18.8745 17.2591 18.9577 17.0925C19.1932 16.6215 19.375 15.8835 19.375 14.9999C19.375 14.1164 19.1932 13.3782 18.9577 12.9072C18.8745 12.7407 18.8031 12.6379 18.75 12.5754Z" fill="#4F4F4F"/>
</svg>
