<svg width="24" height="24" viewBox="0 0 24 24" fill="none" xmlns="http://www.w3.org/2000/svg">
<g clip-path="url(#clip0_13383_1099)">
<path d="M22.5821 5.44465C22.5821 15.5674 21.1208 20.5023 12.4582 22.9758C12.3499 23.0081 12.2347 23.0081 12.1264 22.9758C3.46256 20.4999 2 15.6157 2 5.60072C2.00004 5.4689 2.04313 5.34078 2.12267 5.23567C2.20221 5.13056 2.31387 5.05427 2.44072 5.01842C5.90491 4.11432 9.12855 2.46116 11.8843 0.175557C11.9381 0.115904 12.0047 0.0691933 12.0791 0.0389965C12.1536 0.00879968 12.2339 -0.00414924 12.3141 0.00116163C12.4744 0.00247812 12.6277 0.0675624 12.7402 0.181764C13.8674 1.32468 18.6256 3.69281 22.1681 4.87447C22.288 4.9144 22.3924 4.99093 22.4667 5.0932C22.5409 5.19546 22.5813 5.31827 22.5821 5.44465Z" fill="#A57B2A"/>
</g>
<defs>
<clipPath id="clip0_13383_1099">
<rect width="24" height="24" fill="white"/>
</clipPath>
</defs>
</svg>
